%TF.GenerationSoftware,KiCad,Pcbnew,9.0.8*%
%TF.CreationDate,2026-04-30T20:24:59-06:00*%
%TF.ProjectId,usb hub,75736220-6875-4622-9e6b-696361645f70,rev?*%
%TF.SameCoordinates,Original*%
%TF.FileFunction,Copper,L1,Top*%
%TF.FilePolarity,Positive*%
%FSLAX46Y46*%
G04 Gerber Fmt 4.6, Leading zero omitted, Abs format (unit mm)*
G04 Created by KiCad (PCBNEW 9.0.8) date 2026-04-30 20:24:59*
%MOMM*%
%LPD*%
G01*
G04 APERTURE LIST*
G04 Aperture macros list*
%AMRoundRect*
0 Rectangle with rounded corners*
0 $1 Rounding radius*
0 $2 $3 $4 $5 $6 $7 $8 $9 X,Y pos of 4 corners*
0 Add a 4 corners polygon primitive as box body*
4,1,4,$2,$3,$4,$5,$6,$7,$8,$9,$2,$3,0*
0 Add four circle primitives for the rounded corners*
1,1,$1+$1,$2,$3*
1,1,$1+$1,$4,$5*
1,1,$1+$1,$6,$7*
1,1,$1+$1,$8,$9*
0 Add four rect primitives between the rounded corners*
20,1,$1+$1,$2,$3,$4,$5,0*
20,1,$1+$1,$4,$5,$6,$7,0*
20,1,$1+$1,$6,$7,$8,$9,0*
20,1,$1+$1,$8,$9,$2,$3,0*%
G04 Aperture macros list end*
%TA.AperFunction,SMDPad,CuDef*%
%ADD10RoundRect,0.140000X-0.140000X-0.170000X0.140000X-0.170000X0.140000X0.170000X-0.140000X0.170000X0*%
%TD*%
%TA.AperFunction,SMDPad,CuDef*%
%ADD11RoundRect,0.147500X-0.147500X-0.172500X0.147500X-0.172500X0.147500X0.172500X-0.147500X0.172500X0*%
%TD*%
%TA.AperFunction,SMDPad,CuDef*%
%ADD12RoundRect,0.250000X0.275000X0.250000X-0.275000X0.250000X-0.275000X-0.250000X0.275000X-0.250000X0*%
%TD*%
%TA.AperFunction,SMDPad,CuDef*%
%ADD13RoundRect,0.250000X0.850000X0.275000X-0.850000X0.275000X-0.850000X-0.275000X0.850000X-0.275000X0*%
%TD*%
%TA.AperFunction,SMDPad,CuDef*%
%ADD14RoundRect,0.218750X-0.218750X-0.256250X0.218750X-0.256250X0.218750X0.256250X-0.218750X0.256250X0*%
%TD*%
%TA.AperFunction,SMDPad,CuDef*%
%ADD15RoundRect,0.375000X-0.625000X-0.375000X0.625000X-0.375000X0.625000X0.375000X-0.625000X0.375000X0*%
%TD*%
%TA.AperFunction,SMDPad,CuDef*%
%ADD16RoundRect,0.500000X-0.500000X-1.400000X0.500000X-1.400000X0.500000X1.400000X-0.500000X1.400000X0*%
%TD*%
%TA.AperFunction,SMDPad,CuDef*%
%ADD17R,1.500000X0.900000*%
%TD*%
%TA.AperFunction,SMDPad,CuDef*%
%ADD18R,0.900000X1.500000*%
%TD*%
%TA.AperFunction,HeatsinkPad*%
%ADD19C,0.600000*%
%TD*%
%TA.AperFunction,HeatsinkPad*%
%ADD20R,3.900000X3.900000*%
%TD*%
%TA.AperFunction,SMDPad,CuDef*%
%ADD21RoundRect,0.135000X-0.135000X-0.185000X0.135000X-0.185000X0.135000X0.185000X-0.135000X0.185000X0*%
%TD*%
%TA.AperFunction,SMDPad,CuDef*%
%ADD22RoundRect,0.500000X-0.500000X-0.500000X0.500000X-0.500000X0.500000X0.500000X-0.500000X0.500000X0*%
%TD*%
%TA.AperFunction,SMDPad,CuDef*%
%ADD23RoundRect,0.062500X-0.350000X-0.062500X0.350000X-0.062500X0.350000X0.062500X-0.350000X0.062500X0*%
%TD*%
%TA.AperFunction,SMDPad,CuDef*%
%ADD24RoundRect,0.062500X-0.062500X-0.350000X0.062500X-0.350000X0.062500X0.350000X-0.062500X0.350000X0*%
%TD*%
%TA.AperFunction,HeatsinkPad*%
%ADD25R,2.600000X2.600000*%
%TD*%
%TA.AperFunction,SMDPad,CuDef*%
%ADD26RoundRect,0.140000X0.140000X0.170000X-0.140000X0.170000X-0.140000X-0.170000X0.140000X-0.170000X0*%
%TD*%
%TA.AperFunction,SMDPad,CuDef*%
%ADD27R,0.600000X1.450000*%
%TD*%
%TA.AperFunction,SMDPad,CuDef*%
%ADD28R,0.300000X1.450000*%
%TD*%
%TA.AperFunction,HeatsinkPad*%
%ADD29O,1.000000X2.100000*%
%TD*%
%TA.AperFunction,HeatsinkPad*%
%ADD30O,1.000000X1.600000*%
%TD*%
%TA.AperFunction,ViaPad*%
%ADD31C,0.600000*%
%TD*%
%TA.AperFunction,Conductor*%
%ADD32C,0.200000*%
%TD*%
G04 APERTURE END LIST*
D10*
%TO.P,C8,1*%
%TO.N,GND*%
X151120000Y-64420000D03*
%TO.P,C8,2*%
%TO.N,Net-(J2-In)*%
X152080000Y-64420000D03*
%TD*%
%TO.P,C1,1*%
%TO.N,GND*%
X144490000Y-66960000D03*
%TO.P,C1,2*%
%TO.N,+3V3*%
X145450000Y-66960000D03*
%TD*%
D11*
%TO.P,L2,1*%
%TO.N,Net-(U2-RFO)*%
X148225000Y-64430000D03*
%TO.P,L2,2*%
%TO.N,Net-(J2-In)*%
X149195000Y-64430000D03*
%TD*%
D12*
%TO.P,J2,1,In*%
%TO.N,Net-(J2-In)*%
X144805000Y-60945000D03*
D13*
%TO.P,J2,2,Ext*%
%TO.N,GND*%
X143280000Y-62420000D03*
X143280000Y-59470000D03*
%TD*%
D14*
%TO.P,L1,1,1*%
%TO.N,Net-(U2-DCC_SW)*%
X146822500Y-73990000D03*
%TO.P,L1,2,2*%
%TO.N,GND*%
X148397500Y-73990000D03*
%TD*%
D15*
%TO.P,U3,1,GND*%
%TO.N,GND*%
X162170000Y-82695000D03*
%TO.P,U3,2,VO*%
%TO.N,+3V3*%
X162170000Y-84995000D03*
D16*
X168470000Y-84995000D03*
D15*
%TO.P,U3,3,VI*%
%TO.N,+5V*%
X162170000Y-87295000D03*
%TD*%
D17*
%TO.P,U1,1,GND*%
%TO.N,Net-(U1-GND-Pad1)*%
X158500000Y-57750000D03*
%TO.P,U1,2,3V3*%
%TO.N,unconnected-(U1-3V3-Pad2)*%
X158500000Y-59020000D03*
%TO.P,U1,3,EN*%
%TO.N,Net-(U1-EN)*%
X158500000Y-60290000D03*
%TO.P,U1,4,IO4*%
%TO.N,busy*%
X158500000Y-61560000D03*
%TO.P,U1,5,IO5*%
%TO.N,sck*%
X158500000Y-62830000D03*
%TO.P,U1,6,IO6*%
%TO.N,mosi*%
X158500000Y-64100000D03*
%TO.P,U1,7,IO7*%
%TO.N,miso*%
X158500000Y-65370000D03*
%TO.P,U1,8,IO15*%
%TO.N,unconnected-(U1-IO15-Pad8)*%
X158500000Y-66640000D03*
%TO.P,U1,9,IO16*%
%TO.N,unconnected-(U1-IO16-Pad9)*%
X158500000Y-67910000D03*
%TO.P,U1,10,IO17*%
%TO.N,unconnected-(U1-IO17-Pad10)*%
X158500000Y-69180000D03*
%TO.P,U1,11,IO18*%
%TO.N,unconnected-(U1-IO18-Pad11)*%
X158500000Y-70450000D03*
%TO.P,U1,12,IO8*%
%TO.N,nss*%
X158500000Y-71720000D03*
%TO.P,U1,13,USB_D-*%
%TO.N,d-*%
X158500000Y-72990000D03*
%TO.P,U1,14,USB_D+*%
%TO.N,d+*%
X158500000Y-74260000D03*
D18*
%TO.P,U1,15,IO3*%
%TO.N,reset*%
X160265000Y-75510000D03*
%TO.P,U1,16,IO46*%
%TO.N,unconnected-(U1-IO46-Pad16)*%
X161535000Y-75510000D03*
%TO.P,U1,17,IO9*%
%TO.N,dio1*%
X162805000Y-75510000D03*
%TO.P,U1,18,IO10*%
%TO.N,unconnected-(U1-IO10-Pad18)*%
X164075000Y-75510000D03*
%TO.P,U1,19,IO11*%
%TO.N,unconnected-(U1-IO11-Pad19)*%
X165345000Y-75510000D03*
%TO.P,U1,20,IO12*%
%TO.N,unconnected-(U1-IO12-Pad20)*%
X166615000Y-75510000D03*
%TO.P,U1,21,IO13*%
%TO.N,unconnected-(U1-IO13-Pad21)*%
X167885000Y-75510000D03*
%TO.P,U1,22,IO14*%
%TO.N,unconnected-(U1-IO14-Pad22)*%
X169155000Y-75510000D03*
%TO.P,U1,23,IO21*%
%TO.N,unconnected-(U1-IO21-Pad23)*%
X170425000Y-75510000D03*
%TO.P,U1,24,IO47*%
%TO.N,unconnected-(U1-IO47-Pad24)*%
X171695000Y-75510000D03*
%TO.P,U1,25,IO48*%
%TO.N,unconnected-(U1-IO48-Pad25)*%
X172965000Y-75510000D03*
%TO.P,U1,26,IO45*%
%TO.N,unconnected-(U1-IO45-Pad26)*%
X174235000Y-75510000D03*
D17*
%TO.P,U1,27,IO0*%
%TO.N,Net-(U1-IO0)*%
X176000000Y-74260000D03*
%TO.P,U1,28,IO35*%
%TO.N,unconnected-(U1-IO35-Pad28)*%
X176000000Y-72990000D03*
%TO.P,U1,29,IO36*%
%TO.N,unconnected-(U1-IO36-Pad29)*%
X176000000Y-71720000D03*
%TO.P,U1,30,IO37*%
%TO.N,unconnected-(U1-IO37-Pad30)*%
X176000000Y-70450000D03*
%TO.P,U1,31,IO38*%
%TO.N,unconnected-(U1-IO38-Pad31)*%
X176000000Y-69180000D03*
%TO.P,U1,32,IO39*%
%TO.N,unconnected-(U1-IO39-Pad32)*%
X176000000Y-67910000D03*
%TO.P,U1,33,IO40*%
%TO.N,unconnected-(U1-IO40-Pad33)*%
X176000000Y-66640000D03*
%TO.P,U1,34,IO41*%
%TO.N,unconnected-(U1-IO41-Pad34)*%
X176000000Y-65370000D03*
%TO.P,U1,35,IO42*%
%TO.N,unconnected-(U1-IO42-Pad35)*%
X176000000Y-64100000D03*
%TO.P,U1,36,RXD0*%
%TO.N,unconnected-(U1-RXD0-Pad36)*%
X176000000Y-62830000D03*
%TO.P,U1,37,TXD0*%
%TO.N,unconnected-(U1-TXD0-Pad37)*%
X176000000Y-61560000D03*
%TO.P,U1,38,IO2*%
%TO.N,unconnected-(U1-IO2-Pad38)*%
X176000000Y-60290000D03*
%TO.P,U1,39,IO1*%
%TO.N,unconnected-(U1-IO1-Pad39)*%
X176000000Y-59020000D03*
%TO.P,U1,40,GND*%
%TO.N,Net-(U1-GND-Pad1)*%
X176000000Y-57750000D03*
D19*
%TO.P,U1,41,GND*%
X164350000Y-64770000D03*
X164350000Y-66170000D03*
X165050000Y-64070000D03*
X165050000Y-65470000D03*
X165050000Y-66870000D03*
X165750000Y-64770000D03*
D20*
X165750000Y-65470000D03*
D19*
X165750000Y-66170000D03*
X166450000Y-64070000D03*
X166450000Y-65470000D03*
X166450000Y-66870000D03*
X167150000Y-64770000D03*
X167150000Y-66170000D03*
%TD*%
D21*
%TO.P,R1,1*%
%TO.N,Net-(J1-CC1)*%
X161870000Y-91175000D03*
%TO.P,R1,2*%
%TO.N,GND*%
X162890000Y-91175000D03*
%TD*%
%TO.P,R3,1*%
%TO.N,+3V3*%
X153560000Y-79130000D03*
%TO.P,R3,2*%
%TO.N,Net-(U1-EN)*%
X154580000Y-79130000D03*
%TD*%
D22*
%TO.P,SW2,1,1*%
%TO.N,GND*%
X174550000Y-80970000D03*
%TO.P,SW2,2,2*%
%TO.N,Net-(U1-IO0)*%
X180550000Y-80970000D03*
%TD*%
D23*
%TO.P,U2,1,VDD_IN*%
%TO.N,+3V3*%
X147692500Y-67042500D03*
%TO.P,U2,2,GND*%
%TO.N,GND*%
X147692500Y-67542500D03*
%TO.P,U2,3,XTA*%
%TO.N,unconnected-(U2-XTA-Pad3)*%
X147692500Y-68042500D03*
%TO.P,U2,4,XTB*%
%TO.N,unconnected-(U2-XTB-Pad4)*%
X147692500Y-68542500D03*
%TO.P,U2,5,GND*%
%TO.N,GND*%
X147692500Y-69042500D03*
%TO.P,U2,6,DIO3*%
%TO.N,unconnected-(U2-DIO3-Pad6)*%
X147692500Y-69542500D03*
D24*
%TO.P,U2,7,VREG*%
%TO.N,+3V3*%
X148380000Y-70230000D03*
%TO.P,U2,8,GND*%
%TO.N,GND*%
X148880000Y-70230000D03*
%TO.P,U2,9,DCC_SW*%
%TO.N,Net-(U2-DCC_SW)*%
X149380000Y-70230000D03*
%TO.P,U2,10,VBAT*%
%TO.N,+3V3*%
X149880000Y-70230000D03*
%TO.P,U2,11,VBAT_IO*%
X150380000Y-70230000D03*
%TO.P,U2,12,DIO2*%
%TO.N,unconnected-(U2-DIO2-Pad12)*%
X150880000Y-70230000D03*
D23*
%TO.P,U2,13,DIO1*%
%TO.N,dio1*%
X151567500Y-69542500D03*
%TO.P,U2,14,BUSY*%
%TO.N,busy*%
X151567500Y-69042500D03*
%TO.P,U2,15,~{RESET}*%
%TO.N,reset*%
X151567500Y-68542500D03*
%TO.P,U2,16,MISO*%
%TO.N,miso*%
X151567500Y-68042500D03*
%TO.P,U2,17,MOSI*%
%TO.N,mosi*%
X151567500Y-67542500D03*
%TO.P,U2,18,SCK*%
%TO.N,sck*%
X151567500Y-67042500D03*
D24*
%TO.P,U2,19,NSS*%
%TO.N,nss*%
X150880000Y-66355000D03*
%TO.P,U2,20,GND*%
%TO.N,GND*%
X150380000Y-66355000D03*
%TO.P,U2,21,RFI_P*%
%TO.N,Net-(J2-In)*%
X149880000Y-66355000D03*
%TO.P,U2,22,RFI_N*%
X149380000Y-66355000D03*
%TO.P,U2,23,RFO*%
%TO.N,Net-(U2-RFO)*%
X148880000Y-66355000D03*
%TO.P,U2,24,VR_PA*%
%TO.N,Net-(U2-VR_PA)*%
X148380000Y-66355000D03*
D25*
%TO.P,U2,25,GND*%
%TO.N,GND*%
X149630000Y-68292500D03*
%TD*%
D26*
%TO.P,C3,1*%
%TO.N,GND*%
X154700000Y-71620000D03*
%TO.P,C3,2*%
%TO.N,+3V3*%
X153740000Y-71620000D03*
%TD*%
D21*
%TO.P,R4,1*%
%TO.N,+3V3*%
X179750000Y-74310000D03*
%TO.P,R4,2*%
%TO.N,Net-(U1-IO0)*%
X180770000Y-74310000D03*
%TD*%
D22*
%TO.P,SW1,1,1*%
%TO.N,GND*%
X147220000Y-90190000D03*
%TO.P,SW1,2,2*%
%TO.N,Net-(U1-EN)*%
X153220000Y-90190000D03*
%TD*%
D10*
%TO.P,C5,1*%
%TO.N,GND*%
X145840000Y-64920000D03*
%TO.P,C5,2*%
%TO.N,Net-(U2-VR_PA)*%
X146800000Y-64920000D03*
%TD*%
%TO.P,C7,1*%
%TO.N,GND*%
X170920000Y-84495000D03*
%TO.P,C7,2*%
%TO.N,+3V3*%
X171880000Y-84495000D03*
%TD*%
%TO.P,C4,1*%
%TO.N,GND*%
X145560000Y-71670000D03*
%TO.P,C4,2*%
%TO.N,+3V3*%
X146520000Y-71670000D03*
%TD*%
%TO.P,C2,1*%
%TO.N,+3V3*%
X149970000Y-72740000D03*
%TO.P,C2,2*%
%TO.N,GND*%
X150930000Y-72740000D03*
%TD*%
D27*
%TO.P,J1,A1,GND*%
%TO.N,GND*%
X159670000Y-93360000D03*
%TO.P,J1,A4,VBUS*%
%TO.N,+5V*%
X160470000Y-93360000D03*
D28*
%TO.P,J1,A5,CC1*%
%TO.N,Net-(J1-CC1)*%
X161670000Y-93360000D03*
%TO.P,J1,A6,D+*%
%TO.N,d+*%
X162670000Y-93360000D03*
%TO.P,J1,A7,D-*%
%TO.N,d-*%
X163170000Y-93360000D03*
%TO.P,J1,A8*%
%TO.N,N/C*%
X164170000Y-93360000D03*
D27*
%TO.P,J1,A9,VBUS*%
%TO.N,+5V*%
X165370000Y-93360000D03*
%TO.P,J1,A12,GND*%
%TO.N,GND*%
X166170000Y-93360000D03*
%TO.P,J1,B1,GND*%
X166170000Y-93360000D03*
%TO.P,J1,B4,VBUS*%
%TO.N,+5V*%
X165370000Y-93360000D03*
D28*
%TO.P,J1,B5,CC2*%
%TO.N,Net-(J1-CC2)*%
X164670000Y-93360000D03*
%TO.P,J1,B6,D+*%
%TO.N,d+*%
X163670000Y-93360000D03*
%TO.P,J1,B7,D-*%
%TO.N,d-*%
X162170000Y-93360000D03*
%TO.P,J1,B8*%
%TO.N,N/C*%
X161170000Y-93360000D03*
D27*
%TO.P,J1,B9,VBUS*%
%TO.N,+5V*%
X160470000Y-93360000D03*
%TO.P,J1,B12,GND*%
%TO.N,GND*%
X159670000Y-93360000D03*
D29*
%TO.P,J1,S1,SHIELD*%
%TO.N,unconnected-(J1-SHIELD-PadS1)*%
X158600000Y-94275000D03*
D30*
X158600000Y-98455000D03*
D29*
X167240000Y-94275000D03*
D30*
X167240000Y-98455000D03*
%TD*%
D26*
%TO.P,C6,1*%
%TO.N,+5V*%
X159640000Y-87565000D03*
%TO.P,C6,2*%
%TO.N,GND*%
X158680000Y-87565000D03*
%TD*%
D21*
%TO.P,R2,1*%
%TO.N,Net-(J1-CC2)*%
X164570000Y-91025000D03*
%TO.P,R2,2*%
%TO.N,GND*%
X165590000Y-91025000D03*
%TD*%
D31*
%TO.N,GND*%
X153760000Y-70320000D03*
X149630000Y-68292500D03*
X152560000Y-69811472D03*
X145560000Y-71670000D03*
%TO.N,+3V3*%
X153305735Y-74744265D03*
X153760000Y-72950000D03*
X148766985Y-71196985D03*
X162170000Y-84995000D03*
X153980000Y-82960000D03*
X150590000Y-71310000D03*
X165160000Y-85000000D03*
%TO.N,Net-(J1-CC1)*%
X162712303Y-90242303D03*
X161160000Y-95490000D03*
%TO.N,nss*%
X155880000Y-66710000D03*
X151005000Y-66355000D03*
%TO.N,mosi*%
X156050000Y-64330000D03*
X152680000Y-65755000D03*
%TO.N,busy*%
X156630000Y-62230000D03*
X152272385Y-69042500D03*
%TO.N,miso*%
X155880000Y-65390000D03*
X153690000Y-65755000D03*
%TO.N,dio1*%
X160110000Y-71400000D03*
X151567500Y-69667500D03*
%TO.N,sck*%
X155880000Y-63450000D03*
X151840000Y-65755000D03*
%TO.N,reset*%
X154680000Y-75270000D03*
X160265000Y-75510000D03*
%TD*%
D32*
%TO.N,GND*%
X154700000Y-71620000D02*
X154700000Y-71260000D01*
X154700000Y-71260000D02*
X153760000Y-70320000D01*
X152560000Y-69811472D02*
X152560000Y-71110000D01*
X147692500Y-69042500D02*
X148880000Y-69042500D01*
X148880000Y-70230000D02*
X148880000Y-69042500D01*
X150380000Y-67542500D02*
X150380000Y-66355000D01*
X162890000Y-91175000D02*
X163660000Y-90405000D01*
X163660000Y-90405000D02*
X164970000Y-90405000D01*
X149630000Y-68292500D02*
X150380000Y-67542500D01*
X164970000Y-90405000D02*
X165590000Y-91025000D01*
X148880000Y-67542500D02*
X149630000Y-68292500D01*
X147692500Y-67542500D02*
X148880000Y-67542500D01*
X148880000Y-69042500D02*
X149630000Y-68292500D01*
X152560000Y-71110000D02*
X150930000Y-72740000D01*
%TO.N,+3V3*%
X179750000Y-74310000D02*
X179071358Y-74310000D01*
X146940000Y-71670000D02*
X148380000Y-70230000D01*
X146520000Y-71670000D02*
X146940000Y-71670000D01*
X146980000Y-69756886D02*
X147453114Y-70230000D01*
X147265614Y-67042500D02*
X146980000Y-67328114D01*
X150380000Y-71100000D02*
X150380000Y-70230000D01*
X153305735Y-78875735D02*
X153305735Y-74744265D01*
X179071358Y-74310000D02*
X168470000Y-84911358D01*
X153560000Y-79130000D02*
X153305735Y-78875735D01*
X168470000Y-84995000D02*
X165165000Y-84995000D01*
X165165000Y-84995000D02*
X165160000Y-85000000D01*
X149880000Y-71690000D02*
X149880000Y-72650000D01*
X149880000Y-72650000D02*
X149970000Y-72740000D01*
X169470000Y-85995000D02*
X168470000Y-84995000D01*
X153560000Y-79130000D02*
X153560000Y-82540000D01*
X148380000Y-70230000D02*
X148380000Y-70810000D01*
X147692500Y-67042500D02*
X147265614Y-67042500D01*
X147453114Y-70230000D02*
X148380000Y-70230000D01*
X145532500Y-67042500D02*
X145450000Y-66960000D01*
X170380000Y-85995000D02*
X169470000Y-85995000D01*
X149880000Y-70230000D02*
X149880000Y-71690000D01*
X150590000Y-71310000D02*
X150380000Y-71100000D01*
X149880000Y-71690000D02*
X150210000Y-71690000D01*
X150210000Y-71690000D02*
X150590000Y-71310000D01*
X153740000Y-72930000D02*
X153760000Y-72950000D01*
X153740000Y-71620000D02*
X153740000Y-72930000D01*
X153560000Y-82540000D02*
X153980000Y-82960000D01*
X146980000Y-67328114D02*
X146980000Y-69756886D01*
X147692500Y-67042500D02*
X145532500Y-67042500D01*
X168470000Y-84911358D02*
X168470000Y-84995000D01*
X171880000Y-84495000D02*
X170380000Y-85995000D01*
X148380000Y-70810000D02*
X148766985Y-71196985D01*
%TO.N,Net-(U2-VR_PA)*%
X146800000Y-64920000D02*
X146945000Y-64920000D01*
X146945000Y-64920000D02*
X148380000Y-66355000D01*
%TO.N,+5V*%
X159640000Y-87565000D02*
X161900000Y-87565000D01*
X160430000Y-89035000D02*
X162170000Y-87295000D01*
X160519797Y-95269797D02*
X160705000Y-95084594D01*
X165370000Y-93360000D02*
X165370000Y-93960000D01*
X160430000Y-93320000D02*
X160430000Y-89035000D01*
X160705000Y-95084594D02*
X160705000Y-93595000D01*
X160911471Y-96090000D02*
X160519797Y-95698326D01*
X160519797Y-95698326D02*
X160519797Y-95269797D01*
X163240000Y-96090000D02*
X160911471Y-96090000D01*
X160470000Y-93360000D02*
X160430000Y-93320000D01*
X160705000Y-93595000D02*
X160470000Y-93360000D01*
X161900000Y-87565000D02*
X162170000Y-87295000D01*
X165370000Y-93960000D02*
X163240000Y-96090000D01*
%TO.N,Net-(J1-CC2)*%
X164570000Y-91025000D02*
X164670000Y-91125000D01*
X164670000Y-91125000D02*
X164670000Y-93360000D01*
%TO.N,d+*%
X162645000Y-79355000D02*
X160330000Y-77040000D01*
X157977488Y-75440000D02*
X156797488Y-74260000D01*
X161551076Y-91795000D02*
X161300000Y-91543924D01*
X162645000Y-80579038D02*
X162645000Y-79355000D01*
X161300000Y-91543924D02*
X161300000Y-90806076D01*
X162645000Y-91795000D02*
X161551076Y-91795000D01*
X162670000Y-93360000D02*
X162670000Y-92272499D01*
X162670000Y-92385000D02*
X162720000Y-92335000D01*
X162720000Y-92335000D02*
X163620000Y-92335000D01*
X161300000Y-90806076D02*
X163919980Y-88186096D01*
X159515000Y-75440000D02*
X157977488Y-75440000D01*
X162670000Y-92272499D02*
X162645000Y-92247499D01*
X159515000Y-76560000D02*
X159515000Y-75440000D01*
X156797488Y-74260000D02*
X158500000Y-74260000D01*
X163919980Y-88186096D02*
X163919980Y-81854018D01*
X163670000Y-92385000D02*
X163670000Y-93360000D01*
X163620000Y-92335000D02*
X163670000Y-92385000D01*
X162670000Y-93360000D02*
X162670000Y-92385000D01*
X163919980Y-81854018D02*
X162645000Y-80579038D01*
X162645000Y-92247499D02*
X162645000Y-91795000D01*
X160330000Y-77040000D02*
X160330000Y-76560000D01*
X160330000Y-76560000D02*
X159515000Y-76560000D01*
%TO.N,d-*%
X163470000Y-82040406D02*
X162195000Y-80765406D01*
X162170000Y-92272499D02*
X162195000Y-92247499D01*
X160850020Y-91730312D02*
X160850020Y-90619688D01*
X156005901Y-74034099D02*
X155935000Y-73963198D01*
X162195000Y-80765406D02*
X162195000Y-80223198D01*
X160850020Y-90619688D02*
X163470000Y-87999708D01*
X163025000Y-94385000D02*
X163170000Y-94240000D01*
X162170000Y-93360000D02*
X162170000Y-94335000D01*
X162170000Y-93360000D02*
X162170000Y-92272499D01*
X161367207Y-92247499D02*
X160850020Y-91730312D01*
X163470000Y-87999708D02*
X163470000Y-82040406D01*
X162195000Y-80223198D02*
X156005901Y-74034099D01*
X162170000Y-94335000D02*
X162220000Y-94385000D01*
X157050000Y-72990000D02*
X158500000Y-72990000D01*
X163170000Y-94240000D02*
X163170000Y-93360000D01*
X156005901Y-74034099D02*
X157050000Y-72990000D01*
X162195000Y-92247499D02*
X161367207Y-92247499D01*
X162220000Y-94385000D02*
X163025000Y-94385000D01*
%TO.N,Net-(J1-CC1)*%
X161160000Y-95490000D02*
X161670000Y-94980000D01*
X161870000Y-91175000D02*
X161870000Y-91084606D01*
X161870000Y-91084606D02*
X162712303Y-90242303D01*
X161670000Y-94980000D02*
X161670000Y-93360000D01*
%TO.N,Net-(U2-DCC_SW)*%
X149380000Y-71432500D02*
X149380000Y-70230000D01*
X146822500Y-73990000D02*
X149380000Y-71432500D01*
%TO.N,Net-(U1-EN)*%
X157550000Y-60290000D02*
X158500000Y-60290000D01*
X154580000Y-79130000D02*
X155280000Y-78430000D01*
X155280000Y-62560000D02*
X157550000Y-60290000D01*
X154580000Y-88830000D02*
X153220000Y-90190000D01*
X154580000Y-79130000D02*
X154580000Y-88830000D01*
X155280000Y-78430000D02*
X155280000Y-62560000D01*
%TO.N,Net-(U1-IO0)*%
X177520000Y-73690000D02*
X176950000Y-74260000D01*
X180550000Y-74530000D02*
X180770000Y-74310000D01*
X180550000Y-80970000D02*
X180550000Y-74530000D01*
X176950000Y-74260000D02*
X176000000Y-74260000D01*
X180150000Y-73690000D02*
X177520000Y-73690000D01*
X180770000Y-74310000D02*
X180150000Y-73690000D01*
%TO.N,nss*%
X158500000Y-71720000D02*
X157550000Y-71720000D01*
X157550000Y-71720000D02*
X155880000Y-70050000D01*
X155880000Y-70050000D02*
X155880000Y-66710000D01*
%TO.N,mosi*%
X152680000Y-65755000D02*
X152680000Y-66856886D01*
X156280000Y-64100000D02*
X156050000Y-64330000D01*
X151994386Y-67542500D02*
X151567500Y-67542500D01*
X152680000Y-66856886D02*
X151994386Y-67542500D01*
X158500000Y-64100000D02*
X156280000Y-64100000D01*
%TO.N,Net-(U1-GND-Pad1)*%
X173470000Y-57750000D02*
X165750000Y-65470000D01*
X158500000Y-57750000D02*
X159450000Y-57750000D01*
X159450000Y-57750000D02*
X165750000Y-64050000D01*
X165750000Y-64050000D02*
X165750000Y-65470000D01*
X176000000Y-57750000D02*
X173470000Y-57750000D01*
%TO.N,busy*%
X158500000Y-61560000D02*
X157300000Y-61560000D01*
X157300000Y-61560000D02*
X156630000Y-62230000D01*
%TO.N,miso*%
X153690000Y-66790000D02*
X152437500Y-68042500D01*
X158480000Y-65390000D02*
X155880000Y-65390000D01*
X152437500Y-68042500D02*
X151567500Y-68042500D01*
X153690000Y-65755000D02*
X153690000Y-66790000D01*
X158500000Y-65370000D02*
X158480000Y-65390000D01*
%TO.N,dio1*%
X162805000Y-74095000D02*
X160110000Y-71400000D01*
X162805000Y-75510000D02*
X162805000Y-74095000D01*
%TO.N,sck*%
X156500000Y-62830000D02*
X155880000Y-63450000D01*
X151840000Y-65755000D02*
X151840000Y-66770000D01*
X158500000Y-62830000D02*
X156500000Y-62830000D01*
X151840000Y-66770000D02*
X151567500Y-67042500D01*
%TO.N,reset*%
X151642500Y-68467500D02*
X152069386Y-68467500D01*
X152069386Y-68467500D02*
X152094386Y-68442500D01*
X151567500Y-68542500D02*
X151642500Y-68467500D01*
X152094386Y-68442500D02*
X152603186Y-68442500D01*
X152603186Y-68442500D02*
X153160000Y-68999314D01*
X153160000Y-73750000D02*
X154680000Y-75270000D01*
X153160000Y-68999314D02*
X153160000Y-73750000D01*
%TO.N,unconnected-(J1-SHIELD-PadS1)*%
X158600000Y-98455000D02*
X158600000Y-94275000D01*
X167240000Y-94275000D02*
X167240000Y-98455000D01*
X167240000Y-98455000D02*
X158600000Y-98455000D01*
%TO.N,Net-(J2-In)*%
X149380000Y-66355000D02*
X149880000Y-65855000D01*
X151470000Y-65030000D02*
X150778114Y-65030000D01*
X149195000Y-64430000D02*
X145710000Y-60945000D01*
X149880000Y-66355000D02*
X149880000Y-65855000D01*
X149880000Y-65928114D02*
X149880000Y-66355000D01*
X145710000Y-60945000D02*
X144805000Y-60945000D01*
X150778114Y-65030000D02*
X149880000Y-65928114D01*
X152080000Y-64420000D02*
X151470000Y-65030000D01*
X149880000Y-65855000D02*
X149880000Y-65115000D01*
X149880000Y-65115000D02*
X149195000Y-64430000D01*
%TO.N,Net-(U2-RFO)*%
X148225000Y-64430000D02*
X148880000Y-65085000D01*
X148880000Y-65085000D02*
X148880000Y-66355000D01*
%TD*%
%TA.AperFunction,Conductor*%
%TO.N,GND*%
G36*
X143193039Y-46280185D02*
G01*
X143238794Y-46332989D01*
X143250000Y-46384500D01*
X143250000Y-56260000D01*
X182865500Y-56260000D01*
X182932539Y-56279685D01*
X182978294Y-56332489D01*
X182989500Y-56384000D01*
X182989500Y-98415572D01*
X182989184Y-98424418D01*
X182989184Y-98424419D01*
X182974869Y-98624557D01*
X182972351Y-98642068D01*
X182930645Y-98833790D01*
X182925661Y-98850765D01*
X182857093Y-99034605D01*
X182849743Y-99050699D01*
X182755709Y-99222908D01*
X182746144Y-99237791D01*
X182628561Y-99394864D01*
X182616975Y-99408235D01*
X182478235Y-99546975D01*
X182464864Y-99558561D01*
X182307791Y-99676144D01*
X182292908Y-99685709D01*
X182120699Y-99779743D01*
X182104605Y-99787093D01*
X181920765Y-99855661D01*
X181903790Y-99860645D01*
X181712068Y-99902351D01*
X181694557Y-99904869D01*
X181513779Y-99917799D01*
X181494417Y-99919184D01*
X181485572Y-99919500D01*
X167666471Y-99919500D01*
X167599432Y-99899815D01*
X167553677Y-99847011D01*
X167543733Y-99777853D01*
X167572758Y-99714297D01*
X167619019Y-99680939D01*
X167713907Y-99641635D01*
X167713907Y-99641634D01*
X167713914Y-99641632D01*
X167877782Y-99532139D01*
X168017139Y-99392782D01*
X168126632Y-99228914D01*
X168202051Y-99046835D01*
X168240500Y-98853541D01*
X168240500Y-98056459D01*
X168240500Y-98056456D01*
X168202052Y-97863170D01*
X168202051Y-97863169D01*
X168202051Y-97863165D01*
X168166755Y-97777952D01*
X168126635Y-97681092D01*
X168126628Y-97681079D01*
X168017139Y-97517218D01*
X168017136Y-97517214D01*
X167876819Y-97376897D01*
X167843334Y-97315574D01*
X167840500Y-97289216D01*
X167840500Y-95690784D01*
X167860185Y-95623745D01*
X167876819Y-95603103D01*
X168017136Y-95462785D01*
X168017139Y-95462782D01*
X168126632Y-95298914D01*
X168202051Y-95116835D01*
X168221951Y-95016794D01*
X168240500Y-94923543D01*
X168240500Y-93626456D01*
X168202052Y-93433170D01*
X168202051Y-93433169D01*
X168202051Y-93433165D01*
X168202049Y-93433160D01*
X168126635Y-93251092D01*
X168126628Y-93251079D01*
X168017139Y-93087218D01*
X168017136Y-93087214D01*
X167877785Y-92947863D01*
X167877781Y-92947860D01*
X167713920Y-92838371D01*
X167713907Y-92838364D01*
X167531839Y-92762950D01*
X167531829Y-92762947D01*
X167338543Y-92724500D01*
X167338541Y-92724500D01*
X167141459Y-92724500D01*
X167141458Y-92724500D01*
X167118188Y-92729128D01*
X167048597Y-92722899D01*
X166993420Y-92680034D01*
X166970178Y-92614144D01*
X166970000Y-92607510D01*
X166970000Y-92587172D01*
X166969999Y-92587155D01*
X166963598Y-92527627D01*
X166963596Y-92527620D01*
X166913354Y-92392913D01*
X166913350Y-92392906D01*
X166827190Y-92277812D01*
X166827187Y-92277809D01*
X166712093Y-92191649D01*
X166712086Y-92191645D01*
X166577379Y-92141403D01*
X166577372Y-92141401D01*
X166517844Y-92135000D01*
X166420000Y-92135000D01*
X166420000Y-93113749D01*
X166414670Y-93131897D01*
X166414332Y-93150812D01*
X166400837Y-93179009D01*
X166400315Y-93180788D01*
X166399096Y-93182648D01*
X166397595Y-93184894D01*
X166343980Y-93229695D01*
X166274654Y-93238397D01*
X166211629Y-93208237D01*
X166174915Y-93148791D01*
X166170499Y-93115995D01*
X166170499Y-92587129D01*
X166170498Y-92587123D01*
X166170497Y-92587116D01*
X166164091Y-92527517D01*
X166113884Y-92392906D01*
X166113797Y-92392671D01*
X166113793Y-92392664D01*
X166027547Y-92277455D01*
X166010499Y-92264693D01*
X166007538Y-92262476D01*
X165969688Y-92234141D01*
X165927818Y-92178207D01*
X165920027Y-92135027D01*
X165920000Y-92135000D01*
X165822165Y-92135000D01*
X165785598Y-92138931D01*
X165759092Y-92138931D01*
X165717875Y-92134500D01*
X165717873Y-92134500D01*
X165394500Y-92134500D01*
X165385814Y-92131949D01*
X165376853Y-92133238D01*
X165352812Y-92122259D01*
X165327461Y-92114815D01*
X165321533Y-92107974D01*
X165313297Y-92104213D01*
X165299007Y-92081978D01*
X165281706Y-92062011D01*
X165279418Y-92051496D01*
X165275523Y-92045435D01*
X165270500Y-92010500D01*
X165270500Y-91951986D01*
X165290185Y-91884947D01*
X165320048Y-91852825D01*
X165340000Y-91837844D01*
X165340000Y-91837843D01*
X165840000Y-91837843D01*
X165979194Y-91797404D01*
X166117285Y-91715738D01*
X166117294Y-91715731D01*
X166230731Y-91602294D01*
X166230738Y-91602285D01*
X166312406Y-91464191D01*
X166312407Y-91464188D01*
X166357166Y-91310128D01*
X166357167Y-91310122D01*
X166359931Y-91275000D01*
X165840000Y-91275000D01*
X165840000Y-91837843D01*
X165340000Y-91837843D01*
X165340000Y-91285408D01*
X165340382Y-91275679D01*
X165340500Y-91274181D01*
X165340499Y-90775820D01*
X165340434Y-90775000D01*
X165340382Y-90774332D01*
X165340000Y-90764607D01*
X165340000Y-90212154D01*
X165840000Y-90212154D01*
X165840000Y-90775000D01*
X166359931Y-90775000D01*
X166357167Y-90739877D01*
X166357166Y-90739871D01*
X166312407Y-90585811D01*
X166312406Y-90585808D01*
X166230738Y-90447714D01*
X166230731Y-90447705D01*
X166117294Y-90334268D01*
X166117285Y-90334261D01*
X165979191Y-90252593D01*
X165979188Y-90252591D01*
X165840001Y-90212153D01*
X165840000Y-90212154D01*
X165340000Y-90212154D01*
X165339998Y-90212153D01*
X165200811Y-90252591D01*
X165200810Y-90252592D01*
X165143611Y-90286419D01*
X165075886Y-90303600D01*
X165017371Y-90286419D01*
X164960174Y-90252593D01*
X164959393Y-90252131D01*
X164959392Y-90252130D01*
X164959391Y-90252130D01*
X164959388Y-90252129D01*
X164805208Y-90207335D01*
X164805202Y-90207334D01*
X164769181Y-90204500D01*
X164370830Y-90204500D01*
X164370808Y-90204501D01*
X164334794Y-90207335D01*
X164180611Y-90252129D01*
X164180606Y-90252131D01*
X164042404Y-90333863D01*
X164042396Y-90333869D01*
X163928869Y-90447396D01*
X163928863Y-90447404D01*
X163847131Y-90585606D01*
X163847129Y-90585610D01*
X163820488Y-90677310D01*
X163811225Y-90691813D01*
X163806591Y-90708391D01*
X163792807Y-90720651D01*
X163782881Y-90736195D01*
X163767246Y-90743388D01*
X163754386Y-90754829D01*
X163736164Y-90757691D01*
X163719409Y-90765401D01*
X163702365Y-90763000D01*
X163685363Y-90765671D01*
X163668487Y-90758227D01*
X163650222Y-90755655D01*
X163636901Y-90744296D01*
X163621435Y-90737475D01*
X163602133Y-90714649D01*
X163597977Y-90711105D01*
X163501005Y-90564444D01*
X163494260Y-90542532D01*
X163483274Y-90522414D01*
X163483130Y-90506375D01*
X163480450Y-90497666D01*
X163482972Y-90488641D01*
X163482823Y-90471863D01*
X163510273Y-90333865D01*
X163512803Y-90321147D01*
X163512803Y-90163458D01*
X163512802Y-90163456D01*
X163482041Y-90008813D01*
X163482040Y-90008806D01*
X163482038Y-90008801D01*
X163421700Y-89863130D01*
X163421698Y-89863126D01*
X163421697Y-89863124D01*
X163346249Y-89750209D01*
X163325372Y-89683533D01*
X163343856Y-89616153D01*
X163361667Y-89593642D01*
X164278486Y-88676824D01*
X164278491Y-88676820D01*
X164288694Y-88666616D01*
X164288696Y-88666616D01*
X164400500Y-88554812D01*
X164469962Y-88434500D01*
X164479557Y-88417881D01*
X164520480Y-88265154D01*
X164520480Y-88107039D01*
X164520480Y-85767427D01*
X164540165Y-85700388D01*
X164592969Y-85654633D01*
X164662127Y-85644689D01*
X164713368Y-85664323D01*
X164780821Y-85709394D01*
X164780823Y-85709395D01*
X164780827Y-85709397D01*
X164920926Y-85767427D01*
X164926503Y-85769737D01*
X165081153Y-85800499D01*
X165081156Y-85800500D01*
X165081158Y-85800500D01*
X165238844Y-85800500D01*
X165238845Y-85800499D01*
X165393497Y-85769737D01*
X165539179Y-85709394D01*
X165601146Y-85667989D01*
X165675354Y-85618405D01*
X165676460Y-85620061D01*
X165732348Y-85596332D01*
X165746691Y-85595500D01*
X166845501Y-85595500D01*
X166912540Y-85615185D01*
X166958295Y-85667989D01*
X166969501Y-85719500D01*
X166969501Y-86453034D01*
X166980113Y-86572415D01*
X167036089Y-86768045D01*
X167036090Y-86768046D01*
X167036091Y-86768049D01*
X167130302Y-86948407D01*
X167143424Y-86964500D01*
X167258890Y-87106109D01*
X167298988Y-87138804D01*
X167416593Y-87234698D01*
X167596951Y-87328909D01*
X167792582Y-87384886D01*
X167911963Y-87395500D01*
X169028036Y-87395499D01*
X169147418Y-87384886D01*
X169343049Y-87328909D01*
X169523407Y-87234698D01*
X169681109Y-87106109D01*
X169809698Y-86948407D01*
X169903909Y-86768049D01*
X169927561Y-86685387D01*
X169941915Y-86662709D01*
X169953064Y-86638297D01*
X169960317Y-86633635D01*
X169964928Y-86626351D01*
X169989262Y-86615033D01*
X170011842Y-86600523D01*
X170024322Y-86598728D01*
X170028282Y-86596887D01*
X170046777Y-86595500D01*
X170293331Y-86595500D01*
X170293347Y-86595501D01*
X170300943Y-86595501D01*
X170459054Y-86595501D01*
X170459057Y-86595501D01*
X170611785Y-86554577D01*
X170661904Y-86525639D01*
X170748716Y-86475520D01*
X170860520Y-86363716D01*
X170860520Y-86363714D01*
X170870728Y-86353507D01*
X170870729Y-86353504D01*
X171882416Y-85341819D01*
X171943739Y-85308334D01*
X171970097Y-85305500D01*
X172084682Y-85305500D01*
X172084690Y-85305500D01*
X172120993Y-85302643D01*
X172120995Y-85302642D01*
X172120997Y-85302642D01*
X172161975Y-85290736D01*
X172276395Y-85257494D01*
X172415687Y-85175117D01*
X172530117Y-85060687D01*
X172612494Y-84921395D01*
X172657643Y-84765993D01*
X172660500Y-84729690D01*
X172660500Y-84260310D01*
X172657643Y-84224007D01*
X172634894Y-84145707D01*
X172612495Y-84068609D01*
X172612494Y-84068606D01*
X172612494Y-84068605D01*
X172530117Y-83929313D01*
X172530115Y-83929311D01*
X172530112Y-83929307D01*
X172415692Y-83814887D01*
X172415684Y-83814881D01*
X172276393Y-83732505D01*
X172276390Y-83732504D01*
X172120997Y-83687357D01*
X172120991Y-83687356D01*
X172084697Y-83684500D01*
X172084690Y-83684500D01*
X171675310Y-83684500D01*
X171675302Y-83684500D01*
X171639008Y-83687356D01*
X171639002Y-83687357D01*
X171483609Y-83732504D01*
X171483604Y-83732506D01*
X171462628Y-83744911D01*
X171394903Y-83762092D01*
X171336389Y-83744911D01*
X171316191Y-83732966D01*
X171316190Y-83732965D01*
X171170001Y-83690493D01*
X171170000Y-83690494D01*
X171170000Y-83996645D01*
X171152734Y-84059763D01*
X171147507Y-84068600D01*
X171147504Y-84068608D01*
X171102357Y-84224002D01*
X171102356Y-84224008D01*
X171099500Y-84260302D01*
X171099500Y-84371000D01*
X171096949Y-84379685D01*
X171098238Y-84388647D01*
X171087259Y-84412687D01*
X171079815Y-84438039D01*
X171072974Y-84443966D01*
X171069213Y-84452203D01*
X171046978Y-84466492D01*
X171027011Y-84483794D01*
X171016496Y-84486081D01*
X171010435Y-84489977D01*
X170975500Y-84495000D01*
X170794000Y-84495000D01*
X170726961Y-84475315D01*
X170681206Y-84422511D01*
X170670000Y-84371000D01*
X170670000Y-83666883D01*
X170668283Y-83664583D01*
X170663402Y-83594884D01*
X170696845Y-83533746D01*
X171898186Y-82332405D01*
X173541145Y-82332405D01*
X173677140Y-82403443D01*
X173872671Y-82459390D01*
X173872674Y-82459391D01*
X173991999Y-82469999D01*
X173992002Y-82470000D01*
X175107998Y-82470000D01*
X175108000Y-82469999D01*
X175227325Y-82459391D01*
X175227328Y-82459390D01*
X175422861Y-82403442D01*
X175558854Y-82332405D01*
X174550000Y-81323552D01*
X173541145Y-82332405D01*
X171898186Y-82332405D01*
X172838321Y-81392270D01*
X172899642Y-81358787D01*
X172969334Y-81363771D01*
X173025267Y-81405643D01*
X173049684Y-81471107D01*
X173050000Y-81479953D01*
X173050000Y-81528000D01*
X173060608Y-81647325D01*
X173060609Y-81647328D01*
X173116556Y-81842859D01*
X173187593Y-81978853D01*
X173187594Y-81978854D01*
X174196448Y-80970000D01*
X174196448Y-80969999D01*
X174903552Y-80969999D01*
X174903552Y-80970001D01*
X175912405Y-81978854D01*
X175983442Y-81842861D01*
X176039390Y-81647328D01*
X176039391Y-81647325D01*
X176049999Y-81528000D01*
X176050000Y-81527998D01*
X176050000Y-80412002D01*
X176049999Y-80411999D01*
X176039391Y-80292674D01*
X176039390Y-80292671D01*
X175983443Y-80097140D01*
X175912405Y-79961145D01*
X174903552Y-80969999D01*
X174196448Y-80969999D01*
X173816201Y-80589752D01*
X173782716Y-80528429D01*
X173787700Y-80458737D01*
X173816199Y-80414392D01*
X173994391Y-80236201D01*
X174055714Y-80202716D01*
X174125406Y-80207700D01*
X174169753Y-80236201D01*
X174550000Y-80616448D01*
X174550001Y-80616448D01*
X175558854Y-79607594D01*
X175558853Y-79607593D01*
X175422859Y-79536556D01*
X175227328Y-79480609D01*
X175227325Y-79480608D01*
X175108000Y-79470000D01*
X175059954Y-79470000D01*
X174992915Y-79450315D01*
X174947160Y-79397511D01*
X174937216Y-79328353D01*
X174966241Y-79264797D01*
X174972273Y-79258319D01*
X176100691Y-78129901D01*
X179158824Y-75071767D01*
X179220145Y-75038284D01*
X179289837Y-75043268D01*
X179309623Y-75052718D01*
X179357426Y-75080987D01*
X179360607Y-75082869D01*
X179369498Y-75085452D01*
X179514791Y-75127664D01*
X179514794Y-75127664D01*
X179514796Y-75127665D01*
X179550819Y-75130500D01*
X179825501Y-75130499D01*
X179892539Y-75150183D01*
X179938294Y-75202987D01*
X179949500Y-75254499D01*
X179949500Y-79364609D01*
X179929815Y-79431648D01*
X179877011Y-79477403D01*
X179859612Y-79483825D01*
X179676953Y-79536090D01*
X179676951Y-79536090D01*
X179676951Y-79536091D01*
X179496593Y-79630302D01*
X179496591Y-79630303D01*
X179496590Y-79630304D01*
X179338890Y-79758890D01*
X179210304Y-79916590D01*
X179116089Y-80096954D01*
X179060114Y-80292583D01*
X179060113Y-80292586D01*
X179049500Y-80411966D01*
X179049500Y-81528028D01*
X179049501Y-81528034D01*
X179060113Y-81647415D01*
X179116089Y-81843045D01*
X179116090Y-81843048D01*
X179116091Y-81843049D01*
X179210302Y-82023407D01*
X179210304Y-82023409D01*
X179338890Y-82181109D01*
X179415902Y-82243903D01*
X179496593Y-82309698D01*
X179676951Y-82403909D01*
X179872582Y-82459886D01*
X179991963Y-82470500D01*
X181108036Y-82470499D01*
X181227418Y-82459886D01*
X181423049Y-82403909D01*
X181603407Y-82309698D01*
X181761109Y-82181109D01*
X181889698Y-82023407D01*
X181983909Y-81843049D01*
X182039886Y-81647418D01*
X182050500Y-81528037D01*
X182050499Y-80411964D01*
X182039886Y-80292582D01*
X181983909Y-80096951D01*
X181889698Y-79916593D01*
X181772802Y-79773231D01*
X181761109Y-79758890D01*
X181603409Y-79630304D01*
X181603410Y-79630304D01*
X181603407Y-79630302D01*
X181423049Y-79536091D01*
X181423046Y-79536090D01*
X181240388Y-79483825D01*
X181181350Y-79446457D01*
X181151887Y-79383104D01*
X181150500Y-79364609D01*
X181150500Y-75158856D01*
X181170185Y-75091817D01*
X181211377Y-75052125D01*
X181297598Y-75001135D01*
X181411135Y-74887598D01*
X181492869Y-74749393D01*
X181537665Y-74595204D01*
X181540500Y-74559181D01*
X181540499Y-74060820D01*
X181537665Y-74024796D01*
X181492869Y-73870607D01*
X181411135Y-73732402D01*
X181411133Y-73732400D01*
X181411130Y-73732396D01*
X181297603Y-73618869D01*
X181297595Y-73618863D01*
X181159393Y-73537131D01*
X181159388Y-73537129D01*
X181005208Y-73492335D01*
X181005202Y-73492334D01*
X180969188Y-73489500D01*
X180969181Y-73489500D01*
X180850097Y-73489500D01*
X180820656Y-73480855D01*
X180790670Y-73474332D01*
X180785654Y-73470577D01*
X180783058Y-73469815D01*
X180762416Y-73453181D01*
X180637590Y-73328355D01*
X180637588Y-73328352D01*
X180518717Y-73209481D01*
X180518709Y-73209475D01*
X180397930Y-73139744D01*
X180397930Y-73139743D01*
X180397926Y-73139742D01*
X180381785Y-73130423D01*
X180229057Y-73089499D01*
X180070943Y-73089499D01*
X180063347Y-73089499D01*
X180063331Y-73089500D01*
X177599062Y-73089500D01*
X177599058Y-73089499D01*
X177440943Y-73089499D01*
X177394334Y-73101987D01*
X177381659Y-73102721D01*
X177359492Y-73097581D01*
X177336741Y-73097040D01*
X177326103Y-73089840D01*
X177313595Y-73086940D01*
X177297727Y-73070634D01*
X177278879Y-73057877D01*
X177273822Y-73046069D01*
X177264867Y-73036866D01*
X177260333Y-73014566D01*
X177251376Y-72993648D01*
X177250499Y-72978928D01*
X177250499Y-72492129D01*
X177250498Y-72492123D01*
X177250497Y-72492116D01*
X177244091Y-72432517D01*
X177231340Y-72398332D01*
X177226357Y-72328642D01*
X177231340Y-72311669D01*
X177244091Y-72277483D01*
X177250500Y-72217873D01*
X177250499Y-71222128D01*
X177244091Y-71162517D01*
X177231340Y-71128332D01*
X177226357Y-71058642D01*
X177231340Y-71041669D01*
X177244091Y-71007483D01*
X177250500Y-70947873D01*
X177250499Y-69952128D01*
X177244091Y-69892517D01*
X177231340Y-69858332D01*
X177226357Y-69788642D01*
X177231340Y-69771669D01*
X177244091Y-69737483D01*
X177250500Y-69677873D01*
X177250499Y-68682128D01*
X177244091Y-68622517D01*
X177231340Y-68588332D01*
X177226357Y-68518642D01*
X177231340Y-68501669D01*
X177244091Y-68467483D01*
X177250500Y-68407873D01*
X177250499Y-67412128D01*
X177244091Y-67352517D01*
X177231340Y-67318332D01*
X177226357Y-67248642D01*
X177231340Y-67231669D01*
X177244091Y-67197483D01*
X177250500Y-67137873D01*
X177250499Y-66142128D01*
X177244091Y-66082517D01*
X177231340Y-66048332D01*
X177226357Y-65978642D01*
X177231340Y-65961669D01*
X177244091Y-65927483D01*
X177250500Y-65867873D01*
X177250499Y-64872128D01*
X177244091Y-64812517D01*
X177231340Y-64778332D01*
X177226357Y-64708642D01*
X177231340Y-64691669D01*
X177244091Y-64657483D01*
X177250500Y-64597873D01*
X177250499Y-63602128D01*
X177244091Y-63542517D01*
X177231340Y-63508332D01*
X177226357Y-63438642D01*
X177231340Y-63421669D01*
X177244091Y-63387483D01*
X177250500Y-63327873D01*
X177250499Y-62332128D01*
X177244091Y-62272517D01*
X177231340Y-62238332D01*
X177226357Y-62168642D01*
X177231340Y-62151669D01*
X177244091Y-62117483D01*
X177250500Y-62057873D01*
X177250499Y-61062128D01*
X177244091Y-61002517D01*
X177231340Y-60968332D01*
X177226357Y-60898642D01*
X177231340Y-60881669D01*
X177244091Y-60847483D01*
X177250500Y-60787873D01*
X177250499Y-59792128D01*
X177244091Y-59732517D01*
X177231340Y-59698332D01*
X177226357Y-59628642D01*
X177231341Y-59611667D01*
X177244091Y-59577483D01*
X177250500Y-59517873D01*
X177250499Y-58522128D01*
X177244091Y-58462517D01*
X177231340Y-58428332D01*
X177226357Y-58358642D01*
X177231340Y-58341669D01*
X177244091Y-58307483D01*
X177250500Y-58247873D01*
X177250499Y-57252128D01*
X177244091Y-57192517D01*
X177228046Y-57149499D01*
X177193797Y-57057671D01*
X177193793Y-57057664D01*
X177107547Y-56942455D01*
X177107544Y-56942452D01*
X176992335Y-56856206D01*
X176992328Y-56856202D01*
X176857482Y-56805908D01*
X176857483Y-56805908D01*
X176797883Y-56799501D01*
X176797881Y-56799500D01*
X176797873Y-56799500D01*
X176797864Y-56799500D01*
X175202129Y-56799500D01*
X175202123Y-56799501D01*
X175142516Y-56805908D01*
X175007671Y-56856202D01*
X175007664Y-56856206D01*
X174892455Y-56942452D01*
X174892452Y-56942455D01*
X174806206Y-57057664D01*
X174806204Y-57057668D01*
X174806204Y-57057669D01*
X174802039Y-57068834D01*
X174760171Y-57124766D01*
X174694707Y-57149184D01*
X174685859Y-57149500D01*
X173556670Y-57149500D01*
X173556654Y-57149499D01*
X173549058Y-57149499D01*
X173390943Y-57149499D01*
X173314579Y-57169961D01*
X173238214Y-57190423D01*
X173238209Y-57190426D01*
X173101290Y-57269475D01*
X173101282Y-57269481D01*
X167387583Y-62983181D01*
X167326260Y-63016666D01*
X167299902Y-63019500D01*
X165620097Y-63019500D01*
X165553058Y-62999815D01*
X165532416Y-62983181D01*
X159939597Y-57390362D01*
X159930521Y-57381286D01*
X159930520Y-57381284D01*
X159818716Y-57269480D01*
X159787152Y-57251257D01*
X159777216Y-57242190D01*
X159765785Y-57223357D01*
X159750582Y-57207413D01*
X159744616Y-57193925D01*
X159744090Y-57192516D01*
X159718822Y-57124766D01*
X159693798Y-57057673D01*
X159693793Y-57057664D01*
X159607547Y-56942455D01*
X159607544Y-56942452D01*
X159492335Y-56856206D01*
X159492328Y-56856202D01*
X159357482Y-56805908D01*
X159357483Y-56805908D01*
X159297883Y-56799501D01*
X159297881Y-56799500D01*
X159297873Y-56799500D01*
X159297864Y-56799500D01*
X157702129Y-56799500D01*
X157702123Y-56799501D01*
X157642516Y-56805908D01*
X157507671Y-56856202D01*
X157507664Y-56856206D01*
X157392455Y-56942452D01*
X157392452Y-56942455D01*
X157306206Y-57057664D01*
X157306202Y-57057671D01*
X157255908Y-57192517D01*
X157250568Y-57242190D01*
X157249501Y-57252123D01*
X157249500Y-57252135D01*
X157249500Y-58247870D01*
X157249501Y-58247876D01*
X157255908Y-58307481D01*
X157268659Y-58341669D01*
X157273642Y-58411361D01*
X157268659Y-58428331D01*
X157255908Y-58462518D01*
X157249501Y-58522116D01*
X157249501Y-58522123D01*
X157249500Y-58522135D01*
X157249500Y-59517870D01*
X157249501Y-59517876D01*
X157255908Y-59577483D01*
X157268658Y-59611667D01*
X157270542Y-59638022D01*
X157276160Y-59663842D01*
X157273322Y-59676889D01*
X157273642Y-59681359D01*
X157268659Y-59698330D01*
X157255384Y-59733924D01*
X157213514Y-59789859D01*
X157201204Y-59797979D01*
X157181284Y-59809480D01*
X157181281Y-59809482D01*
X154799481Y-62191282D01*
X154799479Y-62191285D01*
X154753790Y-62270423D01*
X154753788Y-62270425D01*
X154720425Y-62328209D01*
X154720423Y-62328212D01*
X154695868Y-62419851D01*
X154679499Y-62480943D01*
X154679499Y-62480945D01*
X154679499Y-62649046D01*
X154679500Y-62649059D01*
X154679500Y-65428667D01*
X154659815Y-65495706D01*
X154607011Y-65541461D01*
X154537853Y-65551405D01*
X154474297Y-65522380D01*
X154440939Y-65476119D01*
X154399397Y-65375827D01*
X154399390Y-65375814D01*
X154311789Y-65244711D01*
X154311786Y-65244707D01*
X154200292Y-65133213D01*
X154200288Y-65133210D01*
X154069185Y-65045609D01*
X154069172Y-65045602D01*
X153923501Y-64985264D01*
X153923489Y-64985261D01*
X153768845Y-64954500D01*
X153768842Y-64954500D01*
X153611158Y-64954500D01*
X153611155Y-64954500D01*
X153456510Y-64985261D01*
X153456498Y-64985264D01*
X153310828Y-65045602D01*
X153310812Y-65045611D01*
X153253889Y-65083645D01*
X153187211Y-65104522D01*
X153119831Y-65086036D01*
X153116111Y-65083645D01*
X153059187Y-65045611D01*
X153059183Y-65045609D01*
X153059179Y-65045606D01*
X153059175Y-65045604D01*
X153059171Y-65045602D01*
X152913501Y-64985264D01*
X152913484Y-64985259D01*
X152912467Y-64985057D01*
X152911983Y-64984804D01*
X152907665Y-64983494D01*
X152907913Y-64982674D01*
X152850558Y-64952667D01*
X152815989Y-64891949D01*
X152817591Y-64828847D01*
X152857643Y-64690993D01*
X152860500Y-64654690D01*
X152860500Y-64185310D01*
X152857643Y-64149007D01*
X152847906Y-64115494D01*
X152812495Y-63993609D01*
X152812494Y-63993606D01*
X152812494Y-63993605D01*
X152730117Y-63854313D01*
X152730115Y-63854311D01*
X152730112Y-63854307D01*
X152615692Y-63739887D01*
X152615684Y-63739881D01*
X152477342Y-63658066D01*
X152476395Y-63657506D01*
X152476394Y-63657505D01*
X152476393Y-63657505D01*
X152476390Y-63657504D01*
X152320997Y-63612357D01*
X152320991Y-63612356D01*
X152284697Y-63609500D01*
X152284690Y-63609500D01*
X151875310Y-63609500D01*
X151875302Y-63609500D01*
X151839008Y-63612356D01*
X151839002Y-63612357D01*
X151683609Y-63657504D01*
X151683604Y-63657506D01*
X151662628Y-63669911D01*
X151594903Y-63687092D01*
X151536389Y-63669911D01*
X151516191Y-63657966D01*
X151516190Y-63657965D01*
X151370001Y-63615493D01*
X151370000Y-63615494D01*
X151370000Y-63921645D01*
X151352734Y-63984763D01*
X151347507Y-63993600D01*
X151347504Y-63993608D01*
X151302357Y-64149002D01*
X151302356Y-64149008D01*
X151299500Y-64185302D01*
X151299500Y-64296000D01*
X151298393Y-64299769D01*
X151299267Y-64303601D01*
X151288626Y-64333029D01*
X151279815Y-64363039D01*
X151276846Y-64365611D01*
X151275510Y-64369308D01*
X151250646Y-64388314D01*
X151227011Y-64408794D01*
X151222220Y-64410042D01*
X151220000Y-64411740D01*
X151205082Y-64414509D01*
X151185590Y-64419589D01*
X151069228Y-64429089D01*
X151067085Y-64428645D01*
X151059138Y-64429500D01*
X150864783Y-64429500D01*
X150864767Y-64429499D01*
X150857171Y-64429499D01*
X150699057Y-64429499D01*
X150591701Y-64458265D01*
X150546324Y-64470424D01*
X150546323Y-64470425D01*
X150510959Y-64490843D01*
X150510950Y-64490849D01*
X150506177Y-64493605D01*
X150409398Y-64549480D01*
X150366636Y-64592241D01*
X150357841Y-64598421D01*
X150334523Y-64606325D01*
X150312913Y-64618126D01*
X150302014Y-64617346D01*
X150291670Y-64620853D01*
X150267780Y-64614897D01*
X150243221Y-64613140D01*
X150232121Y-64606006D01*
X150223876Y-64603951D01*
X150216144Y-64595738D01*
X150198875Y-64584640D01*
X150026819Y-64412584D01*
X149993334Y-64351261D01*
X149990500Y-64324903D01*
X149990500Y-64192067D01*
X149990499Y-64192052D01*
X149989968Y-64185310D01*
X149988763Y-64169999D01*
X150341209Y-64169999D01*
X150341210Y-64170000D01*
X150870000Y-64170000D01*
X150870000Y-63615494D01*
X150869998Y-63615493D01*
X150723809Y-63657965D01*
X150723806Y-63657967D01*
X150584625Y-63740278D01*
X150584616Y-63740285D01*
X150470285Y-63854616D01*
X150470278Y-63854625D01*
X150387968Y-63993804D01*
X150387966Y-63993809D01*
X150342855Y-64149081D01*
X150342854Y-64149087D01*
X150341209Y-64169999D01*
X149988763Y-64169999D01*
X149987609Y-64155325D01*
X149985774Y-64149008D01*
X149941933Y-63998107D01*
X149941931Y-63998104D01*
X149941931Y-63998103D01*
X149858590Y-63857180D01*
X149858588Y-63857178D01*
X149858585Y-63857174D01*
X149742825Y-63741414D01*
X149742817Y-63741408D01*
X149601895Y-63658068D01*
X149601892Y-63658066D01*
X149444679Y-63612391D01*
X149444673Y-63612390D01*
X149407947Y-63609500D01*
X149407940Y-63609500D01*
X149275097Y-63609500D01*
X149208058Y-63589815D01*
X149187416Y-63573181D01*
X146197590Y-60583355D01*
X146197588Y-60583352D01*
X146078717Y-60464481D01*
X146078716Y-60464480D01*
X145991904Y-60414360D01*
X145991904Y-60414359D01*
X145991900Y-60414358D01*
X145941785Y-60385423D01*
X145789057Y-60344499D01*
X145784567Y-60343296D01*
X145724907Y-60306930D01*
X145711122Y-60288617D01*
X145672712Y-60226344D01*
X145548657Y-60102289D01*
X145548656Y-60102288D01*
X145399334Y-60010186D01*
X145232797Y-59955001D01*
X145232795Y-59955000D01*
X145130016Y-59944500D01*
X145002038Y-59944500D01*
X144934999Y-59924815D01*
X144889244Y-59872011D01*
X144878680Y-59807895D01*
X144879999Y-59794980D01*
X144880000Y-59794973D01*
X144880000Y-59720000D01*
X141680001Y-59720000D01*
X141680001Y-59794986D01*
X141690494Y-59897697D01*
X141745641Y-60064119D01*
X141745643Y-60064124D01*
X141837684Y-60213345D01*
X141961654Y-60337315D01*
X142117025Y-60433149D01*
X142115965Y-60434866D01*
X142160833Y-60474359D01*
X142180000Y-60540586D01*
X142180000Y-61349413D01*
X142160315Y-61416452D01*
X142115989Y-61455171D01*
X142117025Y-61456851D01*
X141961654Y-61552684D01*
X141837684Y-61676654D01*
X141745643Y-61825875D01*
X141745641Y-61825880D01*
X141690494Y-61992302D01*
X141690493Y-61992309D01*
X141680000Y-62095013D01*
X141680000Y-62170000D01*
X144879999Y-62170000D01*
X144879999Y-62095028D01*
X144879998Y-62095015D01*
X144878679Y-62082102D01*
X144891448Y-62013409D01*
X144939328Y-61962524D01*
X145002036Y-61945499D01*
X145130008Y-61945499D01*
X145232797Y-61934999D01*
X145399334Y-61879814D01*
X145548656Y-61787712D01*
X145548657Y-61787710D01*
X145554803Y-61783920D01*
X145555470Y-61785002D01*
X145613345Y-61761654D01*
X145681987Y-61774692D01*
X145713144Y-61797379D01*
X147579496Y-63663731D01*
X147612981Y-63725054D01*
X147607997Y-63794746D01*
X147579498Y-63839091D01*
X147561414Y-63857175D01*
X147561406Y-63857185D01*
X147478068Y-63998104D01*
X147478067Y-63998105D01*
X147441846Y-64122778D01*
X147404239Y-64181663D01*
X147340766Y-64210869D01*
X147271580Y-64201123D01*
X147259649Y-64194914D01*
X147217521Y-64170000D01*
X147196395Y-64157506D01*
X147196394Y-64157505D01*
X147196393Y-64157505D01*
X147196390Y-64157504D01*
X147040997Y-64112357D01*
X147040991Y-64112356D01*
X147004697Y-64109500D01*
X147004690Y-64109500D01*
X146595310Y-64109500D01*
X146595302Y-64109500D01*
X146559008Y-64112356D01*
X146559002Y-64112357D01*
X146403609Y-64157504D01*
X146403604Y-64157506D01*
X146382628Y-64169911D01*
X146314903Y-64187092D01*
X146256389Y-64169911D01*
X146236191Y-64157966D01*
X146236190Y-64157965D01*
X146090001Y-64115493D01*
X146090000Y-64115494D01*
X146090000Y-64421645D01*
X146072734Y-64484763D01*
X146067507Y-64493600D01*
X146067504Y-64493608D01*
X146022357Y-64649002D01*
X146022356Y-64649008D01*
X146019500Y-64685302D01*
X146019500Y-65154697D01*
X146022356Y-65190991D01*
X146022357Y-65190997D01*
X146067503Y-65346389D01*
X146067505Y-65346393D01*
X146067506Y-65346395D01*
X146072732Y-65355233D01*
X146090000Y-65418352D01*
X146090000Y-65724503D01*
X146236194Y-65682032D01*
X146256384Y-65670091D01*
X146324108Y-65652906D01*
X146382629Y-65670089D01*
X146403605Y-65682494D01*
X146444587Y-65694400D01*
X146559002Y-65727642D01*
X146559005Y-65727642D01*
X146559007Y-65727643D01*
X146595310Y-65730500D01*
X146854903Y-65730500D01*
X146921942Y-65750185D01*
X146942584Y-65766819D01*
X147381585Y-66205820D01*
X147387426Y-66216517D01*
X147396803Y-66224307D01*
X147403859Y-66246612D01*
X147415070Y-66267143D01*
X147414200Y-66279300D01*
X147417877Y-66290922D01*
X147411754Y-66313498D01*
X147410086Y-66336835D01*
X147402780Y-66346593D01*
X147399591Y-66358356D01*
X147382234Y-66374039D01*
X147368214Y-66392768D01*
X147355514Y-66398183D01*
X147347750Y-66405200D01*
X147324967Y-66411210D01*
X147314100Y-66415845D01*
X147307097Y-66417000D01*
X147305600Y-66417001D01*
X147195528Y-66431491D01*
X147179764Y-66438020D01*
X147165688Y-66440344D01*
X147158344Y-66439443D01*
X147145492Y-66442000D01*
X146197854Y-66442000D01*
X146130815Y-66422315D01*
X146105925Y-66399537D01*
X146105634Y-66399829D01*
X145985692Y-66279887D01*
X145985684Y-66279881D01*
X145850123Y-66199711D01*
X145846395Y-66197506D01*
X145846394Y-66197505D01*
X145846393Y-66197505D01*
X145846390Y-66197504D01*
X145690997Y-66152357D01*
X145690991Y-66152356D01*
X145654697Y-66149500D01*
X145654690Y-66149500D01*
X145245310Y-66149500D01*
X145245302Y-66149500D01*
X145209008Y-66152356D01*
X145209002Y-66152357D01*
X145053609Y-66197504D01*
X145053604Y-66197506D01*
X145032628Y-66209911D01*
X144964903Y-66227092D01*
X144906389Y-66209911D01*
X144886191Y-66197966D01*
X144886190Y-66197965D01*
X144740001Y-66155493D01*
X144740000Y-66155494D01*
X144740000Y-66461645D01*
X144722734Y-66524763D01*
X144717507Y-66533600D01*
X144717504Y-66533608D01*
X144672357Y-66689002D01*
X144672356Y-66689008D01*
X144669500Y-66725302D01*
X144669500Y-67194697D01*
X144672356Y-67230991D01*
X144672357Y-67230997D01*
X144717503Y-67386389D01*
X144717505Y-67386393D01*
X144717506Y-67386395D01*
X144722732Y-67395233D01*
X144740000Y-67458352D01*
X144740000Y-67764503D01*
X144886194Y-67722032D01*
X144906384Y-67710091D01*
X144974108Y-67692906D01*
X145032629Y-67710089D01*
X145053605Y-67722494D01*
X145094587Y-67734400D01*
X145209002Y-67767642D01*
X145209005Y-67767642D01*
X145209007Y-67767643D01*
X145245310Y-67770500D01*
X145245318Y-67770500D01*
X145654682Y-67770500D01*
X145654690Y-67770500D01*
X145690993Y-67767643D01*
X145690995Y-67767642D01*
X145690997Y-67767642D01*
X145745380Y-67751842D01*
X145846395Y-67722494D01*
X145951613Y-67660267D01*
X145967514Y-67655917D01*
X145979799Y-67648023D01*
X146014734Y-67643000D01*
X146255500Y-67643000D01*
X146322539Y-67662685D01*
X146368294Y-67715489D01*
X146379500Y-67767000D01*
X146379500Y-69670216D01*
X146379499Y-69670234D01*
X146379499Y-69835940D01*
X146379498Y-69835940D01*
X146407796Y-69941546D01*
X146420423Y-69988671D01*
X146447307Y-70035235D01*
X146449358Y-70038786D01*
X146449359Y-70038790D01*
X146449360Y-70038790D01*
X146499479Y-70125600D01*
X146499481Y-70125603D01*
X146618349Y-70244471D01*
X146618355Y-70244476D01*
X146972592Y-70598713D01*
X146972594Y-70598716D01*
X146979647Y-70605769D01*
X146997631Y-70638711D01*
X147013124Y-70667085D01*
X147013123Y-70667089D01*
X147013127Y-70667096D01*
X147010454Y-70704414D01*
X147008140Y-70736777D01*
X147008136Y-70736782D01*
X147008136Y-70736787D01*
X147008118Y-70736809D01*
X146979639Y-70781124D01*
X146919326Y-70841437D01*
X146858003Y-70874922D01*
X146797050Y-70872832D01*
X146760997Y-70862357D01*
X146760991Y-70862356D01*
X146724697Y-70859500D01*
X146724690Y-70859500D01*
X146315310Y-70859500D01*
X146315302Y-70859500D01*
X146279008Y-70862356D01*
X146279002Y-70862357D01*
X146123609Y-70907504D01*
X146123604Y-70907506D01*
X146102628Y-70919911D01*
X146034903Y-70937092D01*
X145976389Y-70919911D01*
X145956191Y-70907966D01*
X145956190Y-70907965D01*
X145810001Y-70865493D01*
X145810000Y-70865494D01*
X145810000Y-71171645D01*
X145792734Y-71234763D01*
X145787507Y-71243600D01*
X145787504Y-71243608D01*
X145742357Y-71399002D01*
X145742356Y-71399008D01*
X145739500Y-71435302D01*
X145739500Y-71904697D01*
X145742356Y-71940991D01*
X145742357Y-71940997D01*
X145787503Y-72096389D01*
X145787505Y-72096393D01*
X145787506Y-72096395D01*
X145792732Y-72105233D01*
X145810000Y-72168352D01*
X145810000Y-72474503D01*
X145956194Y-72432032D01*
X145976384Y-72420091D01*
X146044108Y-72402906D01*
X146102629Y-72420089D01*
X146123605Y-72432494D01*
X146123688Y-72432518D01*
X146279002Y-72477642D01*
X146279005Y-72477642D01*
X146279007Y-72477643D01*
X146315310Y-72480500D01*
X146315318Y-72480500D01*
X146724682Y-72480500D01*
X146724690Y-72480500D01*
X146760993Y-72477643D01*
X146760995Y-72477642D01*
X146760997Y-72477642D01*
X146801975Y-72465736D01*
X146916395Y-72432494D01*
X147055687Y-72350117D01*
X147170117Y-72235687D01*
X147170118Y-72235684D01*
X147170751Y-72235052D01*
X147196431Y-72215347D01*
X147253404Y-72182454D01*
X147308716Y-72150520D01*
X147420520Y-72038716D01*
X147420520Y-72038714D01*
X147430724Y-72028511D01*
X147430728Y-72028506D01*
X147880849Y-71578384D01*
X147899335Y-71568290D01*
X147915011Y-71554210D01*
X147929388Y-71551880D01*
X147942170Y-71544901D01*
X147963184Y-71546403D01*
X147983981Y-71543034D01*
X147997333Y-71548846D01*
X148011862Y-71549885D01*
X148028727Y-71562510D01*
X148048045Y-71570919D01*
X148064642Y-71589397D01*
X148067795Y-71591757D01*
X148071630Y-71597176D01*
X148133036Y-71689076D01*
X148153914Y-71755753D01*
X148135430Y-71823134D01*
X148117615Y-71845648D01*
X146985084Y-72978181D01*
X146923761Y-73011666D01*
X146897403Y-73014500D01*
X146555818Y-73014500D01*
X146457316Y-73024563D01*
X146457315Y-73024564D01*
X146378526Y-73050672D01*
X146297715Y-73077450D01*
X146297704Y-73077455D01*
X146154612Y-73165716D01*
X146154608Y-73165719D01*
X146035719Y-73284608D01*
X146035716Y-73284612D01*
X145947455Y-73427704D01*
X145947450Y-73427715D01*
X145936656Y-73460289D01*
X145894564Y-73587315D01*
X145894564Y-73587316D01*
X145894563Y-73587316D01*
X145884500Y-73685818D01*
X145884500Y-74294181D01*
X145894563Y-74392683D01*
X145947450Y-74552284D01*
X145947455Y-74552295D01*
X146035716Y-74695387D01*
X146035719Y-74695391D01*
X146154608Y-74814280D01*
X146154612Y-74814283D01*
X146297704Y-74902544D01*
X146297707Y-74902545D01*
X146297713Y-74902549D01*
X146457315Y-74955436D01*
X146555826Y-74965500D01*
X146555831Y-74965500D01*
X147089169Y-74965500D01*
X147089174Y-74965500D01*
X147187685Y-74955436D01*
X147347287Y-74902549D01*
X147490391Y-74814281D01*
X147522672Y-74782000D01*
X147583995Y-74748515D01*
X147653687Y-74753499D01*
X147698034Y-74782000D01*
X147729919Y-74813885D01*
X147872922Y-74902091D01*
X147872927Y-74902093D01*
X148032416Y-74954942D01*
X148130856Y-74964999D01*
X148647500Y-74964999D01*
X148664136Y-74964999D01*
X148664152Y-74964998D01*
X148762583Y-74954943D01*
X148922072Y-74902093D01*
X148922077Y-74902091D01*
X149065080Y-74813885D01*
X149183885Y-74695080D01*
X149272091Y-74552077D01*
X149272093Y-74552072D01*
X149324942Y-74392583D01*
X149334999Y-74294150D01*
X149335000Y-74294137D01*
X149335000Y-74240000D01*
X148647500Y-74240000D01*
X148647500Y-74964999D01*
X148130856Y-74964999D01*
X148147500Y-74964998D01*
X148147500Y-74114000D01*
X148167185Y-74046961D01*
X148219989Y-74001206D01*
X148271500Y-73990000D01*
X148397500Y-73990000D01*
X148397500Y-73864000D01*
X148417185Y-73796961D01*
X148469989Y-73751206D01*
X148521500Y-73740000D01*
X149334999Y-73740000D01*
X149334999Y-73685864D01*
X149334998Y-73685851D01*
X149324685Y-73584902D01*
X149337454Y-73516209D01*
X149385334Y-73465324D01*
X149453124Y-73448403D01*
X149511163Y-73465566D01*
X149573605Y-73502494D01*
X149614587Y-73514400D01*
X149729002Y-73547642D01*
X149729005Y-73547642D01*
X149729007Y-73547643D01*
X149765310Y-73550500D01*
X149765318Y-73550500D01*
X150174682Y-73550500D01*
X150174690Y-73550500D01*
X150210993Y-73547643D01*
X150210995Y-73547642D01*
X150210997Y-73547642D01*
X150251975Y-73535736D01*
X150366395Y-73502494D01*
X150387369Y-73490089D01*
X150455088Y-73472906D01*
X150513613Y-73490090D01*
X150533803Y-73502031D01*
X150680000Y-73544504D01*
X150680000Y-73544503D01*
X151180000Y-73544503D01*
X151326195Y-73502031D01*
X151465374Y-73419721D01*
X151465383Y-73419714D01*
X151579714Y-73305383D01*
X151579721Y-73305374D01*
X151662031Y-73166195D01*
X151662033Y-73166190D01*
X151707144Y-73010918D01*
X151707145Y-73010912D01*
X151708790Y-72990000D01*
X151180000Y-72990000D01*
X151180000Y-73544503D01*
X150680000Y-73544503D01*
X150680000Y-73238352D01*
X150697267Y-73175233D01*
X150702494Y-73166395D01*
X150702691Y-73165719D01*
X150747642Y-73010997D01*
X150747643Y-73010991D01*
X150750499Y-72974697D01*
X150750500Y-72974690D01*
X150750500Y-72864000D01*
X150770185Y-72796961D01*
X150822989Y-72751206D01*
X150874500Y-72740000D01*
X150930000Y-72740000D01*
X150930000Y-72614000D01*
X150949685Y-72546961D01*
X151002489Y-72501206D01*
X151054000Y-72490000D01*
X151708790Y-72490000D01*
X151707145Y-72469089D01*
X151662031Y-72313804D01*
X151579721Y-72174625D01*
X151579714Y-72174616D01*
X151465383Y-72060285D01*
X151465374Y-72060278D01*
X151326195Y-71977968D01*
X151326191Y-71977966D01*
X151304704Y-71971724D01*
X151245819Y-71934117D01*
X151216613Y-71870645D01*
X151226359Y-71801458D01*
X151236196Y-71783761D01*
X151299394Y-71689179D01*
X151359737Y-71543497D01*
X151390500Y-71388842D01*
X151390500Y-71231158D01*
X151390500Y-71231155D01*
X151390499Y-71231153D01*
X151359739Y-71076511D01*
X151359737Y-71076507D01*
X151359737Y-71076503D01*
X151356081Y-71067678D01*
X151348615Y-70998210D01*
X151372266Y-70944745D01*
X151434279Y-70863929D01*
X151491009Y-70726972D01*
X151505500Y-70616901D01*
X151505500Y-70592000D01*
X151525185Y-70524961D01*
X151577989Y-70479206D01*
X151629500Y-70468000D01*
X151646344Y-70468000D01*
X151646345Y-70467999D01*
X151800997Y-70437237D01*
X151913666Y-70390567D01*
X151946672Y-70376897D01*
X151946672Y-70376896D01*
X151946679Y-70376894D01*
X152077789Y-70289289D01*
X152189289Y-70177789D01*
X152276232Y-70047668D01*
X152290162Y-70030398D01*
X152296546Y-70023791D01*
X152319036Y-70006536D01*
X152341427Y-69977354D01*
X152346337Y-69972275D01*
X152370809Y-69958365D01*
X152393550Y-69941760D01*
X152400783Y-69941329D01*
X152407081Y-69937750D01*
X152435189Y-69939279D01*
X152463296Y-69937605D01*
X152469612Y-69941152D01*
X152476847Y-69941546D01*
X152499667Y-69958029D01*
X152524217Y-69971816D01*
X152527613Y-69978216D01*
X152533486Y-69982458D01*
X152543771Y-70008661D01*
X152556971Y-70033533D01*
X152558169Y-70045343D01*
X152559015Y-70047497D01*
X152558599Y-70049577D01*
X152559500Y-70058449D01*
X152559500Y-73663330D01*
X152559499Y-73663348D01*
X152559499Y-73829054D01*
X152559498Y-73829054D01*
X152600422Y-73981783D01*
X152625257Y-74024798D01*
X152678695Y-74117357D01*
X152695167Y-74185257D01*
X152674409Y-74248246D01*
X152596347Y-74365074D01*
X152596337Y-74365092D01*
X152535999Y-74510763D01*
X152535996Y-74510775D01*
X152505235Y-74665418D01*
X152505235Y-74823111D01*
X152535996Y-74977754D01*
X152535999Y-74977766D01*
X152596337Y-75123437D01*
X152596344Y-75123450D01*
X152684337Y-75255139D01*
X152705215Y-75321816D01*
X152705235Y-75324030D01*
X152705235Y-78789065D01*
X152705234Y-78789083D01*
X152705234Y-78954789D01*
X152705233Y-78954789D01*
X152705234Y-78954792D01*
X152746158Y-79107520D01*
X152772886Y-79153813D01*
X152789500Y-79215813D01*
X152789500Y-79379168D01*
X152789501Y-79379192D01*
X152792335Y-79415205D01*
X152837129Y-79569388D01*
X152837131Y-79569393D01*
X152873153Y-79630304D01*
X152918865Y-79707598D01*
X152923178Y-79711911D01*
X152956665Y-79773231D01*
X152959500Y-79799595D01*
X152959500Y-82453330D01*
X152959499Y-82453348D01*
X152959499Y-82619054D01*
X152959498Y-82619054D01*
X152970762Y-82661091D01*
X153000423Y-82771785D01*
X153029360Y-82821904D01*
X153079480Y-82908716D01*
X153151354Y-82980590D01*
X153156427Y-82987257D01*
X153166023Y-83012383D01*
X153178911Y-83035985D01*
X153179362Y-83038151D01*
X153210261Y-83193491D01*
X153210264Y-83193501D01*
X153270602Y-83339172D01*
X153270609Y-83339185D01*
X153358210Y-83470288D01*
X153358213Y-83470292D01*
X153469707Y-83581786D01*
X153469711Y-83581789D01*
X153600814Y-83669390D01*
X153600827Y-83669397D01*
X153746498Y-83729735D01*
X153746503Y-83729737D01*
X153838473Y-83748031D01*
X153879691Y-83756230D01*
X153941602Y-83788615D01*
X153976176Y-83849330D01*
X153979500Y-83877847D01*
X153979500Y-88529901D01*
X153970855Y-88559341D01*
X153964332Y-88589328D01*
X153960577Y-88594343D01*
X153959815Y-88596940D01*
X153943181Y-88617582D01*
X153904613Y-88656150D01*
X153843290Y-88689635D01*
X153805952Y-88691981D01*
X153778037Y-88689500D01*
X153778033Y-88689500D01*
X152661971Y-88689500D01*
X152661965Y-88689500D01*
X152661964Y-88689501D01*
X152656351Y-88690000D01*
X152542584Y-88700113D01*
X152346954Y-88756089D01*
X152256772Y-88803196D01*
X152166593Y-88850302D01*
X152166591Y-88850303D01*
X152166590Y-88850304D01*
X152008890Y-88978890D01*
X151880304Y-89136590D01*
X151786089Y-89316954D01*
X151741332Y-89473376D01*
X151732174Y-89505385D01*
X151730114Y-89512583D01*
X151730113Y-89512586D01*
X151719500Y-89631966D01*
X151719500Y-90748028D01*
X151719501Y-90748034D01*
X151730113Y-90867415D01*
X151786089Y-91063045D01*
X151786090Y-91063048D01*
X151786091Y-91063049D01*
X151880302Y-91243407D01*
X151880304Y-91243409D01*
X152008890Y-91401109D01*
X152086251Y-91464188D01*
X152166593Y-91529698D01*
X152346951Y-91623909D01*
X152542582Y-91679886D01*
X152661963Y-91690500D01*
X153778036Y-91690499D01*
X153897418Y-91679886D01*
X154093049Y-91623909D01*
X154273407Y-91529698D01*
X154431109Y-91401109D01*
X154559698Y-91243407D01*
X154653909Y-91063049D01*
X154709886Y-90867418D01*
X154720500Y-90748037D01*
X154720499Y-89631964D01*
X154718016Y-89604045D01*
X154731686Y-89535530D01*
X154753845Y-89505388D01*
X154938506Y-89320728D01*
X154938511Y-89320724D01*
X154948714Y-89310520D01*
X154948716Y-89310520D01*
X155060520Y-89198716D01*
X155139577Y-89061784D01*
X155180500Y-88909057D01*
X155180500Y-87815000D01*
X157901210Y-87815000D01*
X157902854Y-87835910D01*
X157947968Y-87991195D01*
X158030278Y-88130374D01*
X158030285Y-88130383D01*
X158144616Y-88244714D01*
X158144625Y-88244721D01*
X158283804Y-88327031D01*
X158430000Y-88369504D01*
X158430000Y-87815000D01*
X157901210Y-87815000D01*
X155180500Y-87815000D01*
X155180500Y-87314999D01*
X157901209Y-87314999D01*
X157901210Y-87315000D01*
X158430000Y-87315000D01*
X158430000Y-86760494D01*
X158429998Y-86760493D01*
X158283809Y-86802965D01*
X158283806Y-86802967D01*
X158144625Y-86885278D01*
X158144616Y-86885285D01*
X158030285Y-86999616D01*
X158030278Y-86999625D01*
X157947968Y-87138804D01*
X157947966Y-87138809D01*
X157902855Y-87294081D01*
X157902854Y-87294087D01*
X157901209Y-87314999D01*
X155180500Y-87314999D01*
X155180500Y-79799595D01*
X155200185Y-79732556D01*
X155216818Y-79711914D01*
X155221135Y-79707598D01*
X155302869Y-79569393D01*
X155347665Y-79415204D01*
X155350500Y-79379181D01*
X155350499Y-79260095D01*
X155370183Y-79193057D01*
X155386813Y-79172420D01*
X155638506Y-78920728D01*
X155638511Y-78920724D01*
X155648714Y-78910520D01*
X155648716Y-78910520D01*
X155760520Y-78798716D01*
X155839577Y-78661784D01*
X155880500Y-78509057D01*
X155880500Y-75057295D01*
X155900185Y-74990256D01*
X155952989Y-74944501D01*
X156022147Y-74934557D01*
X156085703Y-74963582D01*
X156092181Y-74969614D01*
X161558181Y-80435614D01*
X161572884Y-80462541D01*
X161589477Y-80488360D01*
X161590368Y-80494560D01*
X161591666Y-80496937D01*
X161594500Y-80523295D01*
X161594500Y-80678736D01*
X161594499Y-80678754D01*
X161594499Y-80844460D01*
X161594498Y-80844460D01*
X161635423Y-80997191D01*
X161664358Y-81047306D01*
X161664359Y-81047310D01*
X161664360Y-81047310D01*
X161714479Y-81134120D01*
X161714481Y-81134123D01*
X161813677Y-81233319D01*
X161847162Y-81294642D01*
X161842178Y-81364334D01*
X161800306Y-81420267D01*
X161734842Y-81444684D01*
X161725996Y-81445000D01*
X161468903Y-81445000D01*
X161426175Y-81447897D01*
X161241476Y-81493831D01*
X161070977Y-81578390D01*
X161070974Y-81578392D01*
X160922633Y-81697632D01*
X160922632Y-81697633D01*
X160803392Y-81845974D01*
X160803390Y-81845977D01*
X160718831Y-82016476D01*
X160672897Y-82201175D01*
X160670000Y-82243903D01*
X160670000Y-82445000D01*
X162046000Y-82445000D01*
X162113039Y-82464685D01*
X162158794Y-82517489D01*
X162170000Y-82569000D01*
X162170000Y-82821000D01*
X162150315Y-82888039D01*
X162097511Y-82933794D01*
X162046000Y-82945000D01*
X160670000Y-82945000D01*
X160670000Y-83146096D01*
X160672897Y-83188824D01*
X160718831Y-83373523D01*
X160803390Y-83544022D01*
X160803392Y-83544025D01*
X160922630Y-83692364D01*
X160991884Y-83748031D01*
X161031803Y-83805375D01*
X161034383Y-83875197D01*
X160998805Y-83935329D01*
X160991885Y-83941326D01*
X160923066Y-83996645D01*
X160922276Y-83997280D01*
X160802969Y-84145704D01*
X160802967Y-84145707D01*
X160718360Y-84316302D01*
X160672400Y-84501107D01*
X160669500Y-84543879D01*
X160669500Y-85446122D01*
X160669501Y-85446125D01*
X160672399Y-85488886D01*
X160672399Y-85488887D01*
X160677722Y-85510289D01*
X160716940Y-85667989D01*
X160718360Y-85673696D01*
X160802967Y-85844292D01*
X160802969Y-85844295D01*
X160922277Y-85992721D01*
X160922278Y-85992722D01*
X160991486Y-86048353D01*
X161031405Y-86105696D01*
X161033985Y-86175518D01*
X160998406Y-86235651D01*
X160991486Y-86241647D01*
X160922278Y-86297277D01*
X160922277Y-86297278D01*
X160802969Y-86445704D01*
X160802967Y-86445707D01*
X160718360Y-86616302D01*
X160672400Y-86801107D01*
X160669500Y-86843878D01*
X160669472Y-86844705D01*
X160669436Y-86844811D01*
X160669358Y-86845973D01*
X160669059Y-86845952D01*
X160667294Y-86851286D01*
X160668281Y-86858147D01*
X160656461Y-86884028D01*
X160647525Y-86911038D01*
X160642136Y-86915396D01*
X160639256Y-86921703D01*
X160615318Y-86937086D01*
X160593200Y-86954976D01*
X160584901Y-86956634D01*
X160580478Y-86959477D01*
X160545543Y-86964500D01*
X160306666Y-86964500D01*
X160239627Y-86944815D01*
X160218984Y-86928180D01*
X160175692Y-86884887D01*
X160175684Y-86884881D01*
X160057371Y-86814911D01*
X160036395Y-86802506D01*
X160036394Y-86802505D01*
X160036393Y-86802505D01*
X160036390Y-86802504D01*
X159880997Y-86757357D01*
X159880991Y-86757356D01*
X159844697Y-86754500D01*
X159844690Y-86754500D01*
X159435310Y-86754500D01*
X159435302Y-86754500D01*
X159399008Y-86757356D01*
X159399002Y-86757357D01*
X159243609Y-86802504D01*
X159243604Y-86802506D01*
X159222628Y-86814911D01*
X159154903Y-86832092D01*
X159096389Y-86814911D01*
X159076191Y-86802966D01*
X159076190Y-86802965D01*
X158930001Y-86760493D01*
X158930000Y-86760494D01*
X158930000Y-87066645D01*
X158912734Y-87129763D01*
X158907507Y-87138600D01*
X158907504Y-87138608D01*
X158862357Y-87294002D01*
X158862356Y-87294008D01*
X158859500Y-87330302D01*
X158859500Y-87799697D01*
X158862356Y-87835991D01*
X158862357Y-87835997D01*
X158907503Y-87991389D01*
X158907505Y-87991393D01*
X158907506Y-87991395D01*
X158912732Y-88000233D01*
X158930000Y-88063352D01*
X158930000Y-88369503D01*
X159076194Y-88327032D01*
X159096384Y-88315091D01*
X159164108Y-88297906D01*
X159222629Y-88315089D01*
X159243605Y-88327494D01*
X159284587Y-88339400D01*
X159399002Y-88372642D01*
X159399005Y-88372642D01*
X159399007Y-88372643D01*
X159435310Y-88375500D01*
X159435318Y-88375500D01*
X159844682Y-88375500D01*
X159844690Y-88375500D01*
X159880993Y-88372643D01*
X159927638Y-88359091D01*
X159997507Y-88359290D01*
X160056178Y-88397231D01*
X160085022Y-88460869D01*
X160074881Y-88529999D01*
X160049916Y-88565848D01*
X159949478Y-88666286D01*
X159918923Y-88719210D01*
X159903645Y-88745673D01*
X159870423Y-88803215D01*
X159829499Y-88955943D01*
X159829499Y-88955945D01*
X159829499Y-89124046D01*
X159829500Y-89124059D01*
X159829500Y-92213412D01*
X159809815Y-92280451D01*
X159804767Y-92287723D01*
X159726203Y-92392669D01*
X159726202Y-92392671D01*
X159675908Y-92527517D01*
X159669501Y-92587116D01*
X159669501Y-92587123D01*
X159669500Y-92587135D01*
X159669500Y-93115994D01*
X159659962Y-93148473D01*
X159650981Y-93181185D01*
X159650134Y-93181945D01*
X159649815Y-93183033D01*
X159624236Y-93205197D01*
X159598991Y-93227863D01*
X159597868Y-93228044D01*
X159597011Y-93228788D01*
X159563482Y-93233608D01*
X159530019Y-93239024D01*
X159528977Y-93238570D01*
X159527853Y-93238732D01*
X159497031Y-93224656D01*
X159465962Y-93211124D01*
X159464962Y-93210010D01*
X159464297Y-93209707D01*
X159442384Y-93184864D01*
X159440882Y-93182616D01*
X159420019Y-93115933D01*
X159420000Y-93113748D01*
X159420000Y-92135000D01*
X159322155Y-92135000D01*
X159262627Y-92141401D01*
X159262620Y-92141403D01*
X159127913Y-92191645D01*
X159127906Y-92191649D01*
X159012812Y-92277809D01*
X159012809Y-92277812D01*
X158926649Y-92392906D01*
X158926645Y-92392913D01*
X158876403Y-92527620D01*
X158876401Y-92527627D01*
X158870000Y-92587155D01*
X158870000Y-92607510D01*
X158850315Y-92674549D01*
X158797511Y-92720304D01*
X158728353Y-92730248D01*
X158721812Y-92729128D01*
X158698542Y-92724500D01*
X158698541Y-92724500D01*
X158501459Y-92724500D01*
X158501457Y-92724500D01*
X158308170Y-92762947D01*
X158308160Y-92762950D01*
X158126092Y-92838364D01*
X158126079Y-92838371D01*
X157962218Y-92947860D01*
X157962214Y-92947863D01*
X157822863Y-93087214D01*
X157822860Y-93087218D01*
X157713371Y-93251079D01*
X157713364Y-93251092D01*
X157637950Y-93433160D01*
X157637947Y-93433170D01*
X157599500Y-93626456D01*
X157599500Y-93626459D01*
X157599500Y-94923541D01*
X157599500Y-94923543D01*
X157599499Y-94923543D01*
X157637947Y-95116829D01*
X157637950Y-95116839D01*
X157713364Y-95298907D01*
X157713371Y-95298920D01*
X157822860Y-95462781D01*
X157822863Y-95462785D01*
X157963181Y-95603103D01*
X157996666Y-95664426D01*
X157999500Y-95690784D01*
X157999500Y-97289216D01*
X157979815Y-97356255D01*
X157963181Y-97376897D01*
X157822863Y-97517214D01*
X157822860Y-97517218D01*
X157713371Y-97681079D01*
X157713364Y-97681092D01*
X157637950Y-97863160D01*
X157637947Y-97863170D01*
X157599500Y-98056456D01*
X157599500Y-98056459D01*
X157599500Y-98853541D01*
X157599500Y-98853543D01*
X157599499Y-98853543D01*
X157637947Y-99046829D01*
X157637950Y-99046839D01*
X157713364Y-99228907D01*
X157713371Y-99228920D01*
X157822860Y-99392781D01*
X157822863Y-99392785D01*
X157962214Y-99532136D01*
X157962218Y-99532139D01*
X158126079Y-99641628D01*
X158126092Y-99641635D01*
X158220981Y-99680939D01*
X158275385Y-99724780D01*
X158297450Y-99791074D01*
X158280171Y-99858773D01*
X158229034Y-99906384D01*
X158173529Y-99919500D01*
X142514428Y-99919500D01*
X142505582Y-99919184D01*
X142483622Y-99917613D01*
X142305442Y-99904869D01*
X142287931Y-99902351D01*
X142096209Y-99860645D01*
X142079234Y-99855661D01*
X141895394Y-99787093D01*
X141879300Y-99779743D01*
X141707091Y-99685709D01*
X141692208Y-99676144D01*
X141535135Y-99558561D01*
X141521764Y-99546975D01*
X141383024Y-99408235D01*
X141371438Y-99394864D01*
X141253855Y-99237791D01*
X141244290Y-99222908D01*
X141212815Y-99165266D01*
X141150253Y-99050694D01*
X141142909Y-99034611D01*
X141074336Y-98850760D01*
X141069354Y-98833790D01*
X141027648Y-98642068D01*
X141025130Y-98624556D01*
X141010816Y-98424418D01*
X141010500Y-98415572D01*
X141010500Y-91552405D01*
X146211145Y-91552405D01*
X146347140Y-91623443D01*
X146542671Y-91679390D01*
X146542674Y-91679391D01*
X146661999Y-91689999D01*
X146662002Y-91690000D01*
X147777998Y-91690000D01*
X147778000Y-91689999D01*
X147897325Y-91679391D01*
X147897328Y-91679390D01*
X148092861Y-91623442D01*
X148228854Y-91552405D01*
X147220000Y-90543552D01*
X146211145Y-91552405D01*
X141010500Y-91552405D01*
X141010500Y-89631999D01*
X145720000Y-89631999D01*
X145720000Y-90748000D01*
X145730608Y-90867325D01*
X145730609Y-90867328D01*
X145786556Y-91062859D01*
X145857593Y-91198853D01*
X145857594Y-91198854D01*
X146866448Y-90190000D01*
X146866448Y-90189999D01*
X147573552Y-90189999D01*
X147573552Y-90190000D01*
X148582405Y-91198854D01*
X148653442Y-91062861D01*
X148709390Y-90867328D01*
X148709391Y-90867325D01*
X148719999Y-90748000D01*
X148720000Y-90747998D01*
X148720000Y-89632002D01*
X148719999Y-89631999D01*
X148709391Y-89512674D01*
X148709390Y-89512671D01*
X148653443Y-89317140D01*
X148582405Y-89181145D01*
X147573552Y-90189999D01*
X146866448Y-90189999D01*
X145857593Y-89181144D01*
X145857592Y-89181145D01*
X145786558Y-89317134D01*
X145786557Y-89317138D01*
X145730609Y-89512671D01*
X145730608Y-89512674D01*
X145720000Y-89631999D01*
X141010500Y-89631999D01*
X141010500Y-88827593D01*
X146211144Y-88827593D01*
X147220000Y-89836448D01*
X147220001Y-89836448D01*
X148228854Y-88827594D01*
X148228853Y-88827593D01*
X148092859Y-88756556D01*
X147897328Y-88700609D01*
X147897325Y-88700608D01*
X147778000Y-88690000D01*
X146661999Y-88690000D01*
X146542674Y-88700608D01*
X146542671Y-88700609D01*
X146347138Y-88756557D01*
X146347134Y-88756558D01*
X146211145Y-88827592D01*
X146211144Y-88827593D01*
X141010500Y-88827593D01*
X141010500Y-71920000D01*
X144781210Y-71920000D01*
X144782854Y-71940910D01*
X144827968Y-72096195D01*
X144910278Y-72235374D01*
X144910285Y-72235383D01*
X145024616Y-72349714D01*
X145024625Y-72349721D01*
X145163804Y-72432031D01*
X145310000Y-72474504D01*
X145310000Y-71920000D01*
X144781210Y-71920000D01*
X141010500Y-71920000D01*
X141010500Y-71419999D01*
X144781209Y-71419999D01*
X144781210Y-71420000D01*
X145310000Y-71420000D01*
X145310000Y-70865494D01*
X145309998Y-70865493D01*
X145163809Y-70907965D01*
X145163806Y-70907967D01*
X145024625Y-70990278D01*
X145024616Y-70990285D01*
X144910285Y-71104616D01*
X144910278Y-71104625D01*
X144827968Y-71243804D01*
X144827966Y-71243809D01*
X144782855Y-71399081D01*
X144782854Y-71399087D01*
X144781209Y-71419999D01*
X141010500Y-71419999D01*
X141010500Y-67210000D01*
X143711210Y-67210000D01*
X143712854Y-67230910D01*
X143757968Y-67386195D01*
X143840278Y-67525374D01*
X143840285Y-67525383D01*
X143954616Y-67639714D01*
X143954625Y-67639721D01*
X144093804Y-67722031D01*
X144240000Y-67764504D01*
X144240000Y-67210000D01*
X143711210Y-67210000D01*
X141010500Y-67210000D01*
X141010500Y-66709999D01*
X143711209Y-66709999D01*
X143711210Y-66710000D01*
X144240000Y-66710000D01*
X144240000Y-66155494D01*
X144239998Y-66155493D01*
X144093809Y-66197965D01*
X144093806Y-66197967D01*
X143954625Y-66280278D01*
X143954616Y-66280285D01*
X143840285Y-66394616D01*
X143840278Y-66394625D01*
X143757968Y-66533804D01*
X143757966Y-66533809D01*
X143712855Y-66689081D01*
X143712854Y-66689087D01*
X143711209Y-66709999D01*
X141010500Y-66709999D01*
X141010500Y-65170000D01*
X145061210Y-65170000D01*
X145062854Y-65190910D01*
X145107968Y-65346195D01*
X145190278Y-65485374D01*
X145190285Y-65485383D01*
X145304616Y-65599714D01*
X145304625Y-65599721D01*
X145443804Y-65682031D01*
X145590000Y-65724504D01*
X145590000Y-65170000D01*
X145061210Y-65170000D01*
X141010500Y-65170000D01*
X141010500Y-64669999D01*
X145061209Y-64669999D01*
X145061210Y-64670000D01*
X145590000Y-64670000D01*
X145590000Y-64115494D01*
X145589998Y-64115493D01*
X145443809Y-64157965D01*
X145443806Y-64157967D01*
X145304625Y-64240278D01*
X145304616Y-64240285D01*
X145190285Y-64354616D01*
X145190278Y-64354625D01*
X145107968Y-64493804D01*
X145107966Y-64493809D01*
X145062855Y-64649081D01*
X145062854Y-64649087D01*
X145061209Y-64669999D01*
X141010500Y-64669999D01*
X141010500Y-62744986D01*
X141680001Y-62744986D01*
X141690494Y-62847697D01*
X141745641Y-63014119D01*
X141745643Y-63014124D01*
X141837684Y-63163345D01*
X141961654Y-63287315D01*
X142110875Y-63379356D01*
X142110880Y-63379358D01*
X142277302Y-63434505D01*
X142277309Y-63434506D01*
X142380019Y-63444999D01*
X143029999Y-63444999D01*
X143530000Y-63444999D01*
X144179972Y-63444999D01*
X144179986Y-63444998D01*
X144282697Y-63434505D01*
X144449119Y-63379358D01*
X144449124Y-63379356D01*
X144598345Y-63287315D01*
X144722315Y-63163345D01*
X144814356Y-63014124D01*
X144814358Y-63014119D01*
X144869505Y-62847697D01*
X144869506Y-62847690D01*
X144879999Y-62744986D01*
X144880000Y-62744973D01*
X144880000Y-62670000D01*
X143530000Y-62670000D01*
X143530000Y-63444999D01*
X143029999Y-63444999D01*
X143030000Y-63444998D01*
X143030000Y-62670000D01*
X141680001Y-62670000D01*
X141680001Y-62744986D01*
X141010500Y-62744986D01*
X141010500Y-59145013D01*
X141680000Y-59145013D01*
X141680000Y-59220000D01*
X143030000Y-59220000D01*
X143530000Y-59220000D01*
X144879999Y-59220000D01*
X144879999Y-59145028D01*
X144879998Y-59145013D01*
X144869505Y-59042302D01*
X144814358Y-58875880D01*
X144814356Y-58875875D01*
X144722315Y-58726654D01*
X144598345Y-58602684D01*
X144449124Y-58510643D01*
X144449119Y-58510641D01*
X144282697Y-58455494D01*
X144282690Y-58455493D01*
X144179986Y-58445000D01*
X143530000Y-58445000D01*
X143530000Y-59220000D01*
X143030000Y-59220000D01*
X143030000Y-58445000D01*
X142380028Y-58445000D01*
X142380012Y-58445001D01*
X142277302Y-58455494D01*
X142110880Y-58510641D01*
X142110875Y-58510643D01*
X141961654Y-58602684D01*
X141837684Y-58726654D01*
X141745643Y-58875875D01*
X141745641Y-58875880D01*
X141690494Y-59042302D01*
X141690493Y-59042309D01*
X141680000Y-59145013D01*
X141010500Y-59145013D01*
X141010500Y-47764427D01*
X141010816Y-47755581D01*
X141025130Y-47555443D01*
X141027646Y-47537938D01*
X141069356Y-47346200D01*
X141074335Y-47329242D01*
X141142911Y-47145382D01*
X141150251Y-47129310D01*
X141244294Y-46957083D01*
X141253850Y-46942214D01*
X141371443Y-46785128D01*
X141383017Y-46771771D01*
X141521771Y-46633017D01*
X141535128Y-46621443D01*
X141692214Y-46503850D01*
X141707083Y-46494294D01*
X141879310Y-46400251D01*
X141895382Y-46392911D01*
X142079242Y-46324335D01*
X142096200Y-46319356D01*
X142287938Y-46277646D01*
X142305436Y-46275130D01*
X142505582Y-46260816D01*
X142514428Y-46260500D01*
X142575892Y-46260500D01*
X143126000Y-46260500D01*
X143193039Y-46280185D01*
G37*
%TD.AperFunction*%
%TA.AperFunction,Conductor*%
G36*
X154618773Y-65974690D02*
G01*
X154666384Y-66025827D01*
X154679500Y-66081332D01*
X154679500Y-70686000D01*
X154659815Y-70753039D01*
X154607011Y-70798794D01*
X154555502Y-70810000D01*
X154495375Y-70810000D01*
X154495351Y-70810001D01*
X154459089Y-70812854D01*
X154303803Y-70857969D01*
X154283608Y-70869912D01*
X154215884Y-70887092D01*
X154157370Y-70869910D01*
X154136397Y-70857507D01*
X154136390Y-70857504D01*
X153980997Y-70812357D01*
X153980991Y-70812356D01*
X153944697Y-70809500D01*
X153944690Y-70809500D01*
X153884500Y-70809500D01*
X153817461Y-70789815D01*
X153771706Y-70737011D01*
X153760500Y-70685500D01*
X153760500Y-69088373D01*
X153760501Y-69088360D01*
X153760501Y-68920259D01*
X153760501Y-68920257D01*
X153719577Y-68767529D01*
X153680176Y-68699285D01*
X153640520Y-68630598D01*
X153528716Y-68518794D01*
X153528715Y-68518793D01*
X153524385Y-68514463D01*
X153524374Y-68514453D01*
X153257258Y-68247337D01*
X153223773Y-68186014D01*
X153228757Y-68116322D01*
X153257254Y-68071980D01*
X154048506Y-67280727D01*
X154048511Y-67280724D01*
X154058714Y-67270520D01*
X154058716Y-67270520D01*
X154170520Y-67158716D01*
X154249577Y-67021784D01*
X154279534Y-66909981D01*
X154290500Y-66869058D01*
X154290500Y-66710943D01*
X154290500Y-66334765D01*
X154310185Y-66267726D01*
X154311398Y-66265874D01*
X154324269Y-66246612D01*
X154399394Y-66134179D01*
X154402055Y-66127755D01*
X154440939Y-66033880D01*
X154484779Y-65979476D01*
X154551073Y-65957411D01*
X154618773Y-65974690D01*
G37*
%TD.AperFunction*%
%TA.AperFunction,Conductor*%
G36*
X150438081Y-67125681D02*
G01*
X150455515Y-67136885D01*
X150456529Y-67137662D01*
X150458737Y-67140688D01*
X150466613Y-67146303D01*
X150622695Y-67295269D01*
X150657601Y-67355794D01*
X150660021Y-67401154D01*
X150654500Y-67443095D01*
X150654500Y-67641903D01*
X150668989Y-67751968D01*
X150671094Y-67759822D01*
X150667814Y-67760700D01*
X150673581Y-67814573D01*
X150670517Y-67825022D01*
X150671095Y-67825177D01*
X150668990Y-67833029D01*
X150654500Y-67943098D01*
X150654500Y-68141903D01*
X150668989Y-68251968D01*
X150671094Y-68259822D01*
X150667814Y-68260700D01*
X150673581Y-68314573D01*
X150670517Y-68325022D01*
X150671095Y-68325177D01*
X150668990Y-68333029D01*
X150654500Y-68443098D01*
X150654500Y-68641903D01*
X150668989Y-68751968D01*
X150671094Y-68759822D01*
X150667814Y-68760700D01*
X150673581Y-68814573D01*
X150670517Y-68825022D01*
X150671095Y-68825177D01*
X150668990Y-68833029D01*
X150654500Y-68943098D01*
X150654500Y-69141896D01*
X150659955Y-69183333D01*
X150649187Y-69252368D01*
X150602806Y-69304623D01*
X150535536Y-69323506D01*
X150520830Y-69322454D01*
X150479401Y-69317000D01*
X150280596Y-69317000D01*
X150170531Y-69331489D01*
X150162678Y-69333594D01*
X150161802Y-69330324D01*
X150107853Y-69336067D01*
X150097477Y-69333018D01*
X150097323Y-69333595D01*
X150089470Y-69331490D01*
X149979401Y-69317000D01*
X149780596Y-69317000D01*
X149670531Y-69331489D01*
X149662678Y-69333594D01*
X149661802Y-69330324D01*
X149607853Y-69336067D01*
X149597477Y-69333018D01*
X149597323Y-69333595D01*
X149589470Y-69331490D01*
X149479401Y-69317000D01*
X149280596Y-69317000D01*
X149170529Y-69331489D01*
X149162681Y-69333593D01*
X149161856Y-69330515D01*
X149107229Y-69336342D01*
X149097355Y-69333489D01*
X149097197Y-69334082D01*
X149089346Y-69331978D01*
X149005000Y-69320873D01*
X149005000Y-69348994D01*
X149003922Y-69352664D01*
X149004779Y-69356393D01*
X148994155Y-69385925D01*
X148985315Y-69416033D01*
X148982048Y-69419582D01*
X148981129Y-69422139D01*
X148956466Y-69447385D01*
X148955466Y-69448152D01*
X148890292Y-69473333D01*
X148821850Y-69459281D01*
X148804534Y-69448152D01*
X148803534Y-69447385D01*
X148788236Y-69426444D01*
X148771870Y-69410456D01*
X148769718Y-69401095D01*
X148762319Y-69390966D01*
X148755000Y-69348994D01*
X148755000Y-69320873D01*
X148754999Y-69320873D01*
X148738589Y-69323034D01*
X148669554Y-69312268D01*
X148632542Y-69285540D01*
X148483644Y-69128945D01*
X148481567Y-69124903D01*
X148475115Y-69118966D01*
X148474348Y-69117966D01*
X148463264Y-69089278D01*
X148451714Y-69066798D01*
X148452288Y-69060870D01*
X148449167Y-69052792D01*
X148456561Y-69016778D01*
X148458453Y-68997254D01*
X148461314Y-68993625D01*
X148463219Y-68984350D01*
X148474348Y-68967034D01*
X148475115Y-68966034D01*
X148493892Y-68952316D01*
X148501719Y-68942393D01*
X148512617Y-68938637D01*
X148531534Y-68924819D01*
X148573506Y-68917500D01*
X148601626Y-68917500D01*
X148590521Y-68833159D01*
X148588418Y-68825307D01*
X148592041Y-68824335D01*
X148585919Y-68772384D01*
X148589495Y-68759984D01*
X148588905Y-68759826D01*
X148591008Y-68751975D01*
X148591008Y-68751974D01*
X148591009Y-68751972D01*
X148605500Y-68641901D01*
X148605499Y-68443100D01*
X148591009Y-68333028D01*
X148591008Y-68333025D01*
X148588905Y-68325174D01*
X148592207Y-68324289D01*
X148586392Y-68270575D01*
X148589501Y-68259985D01*
X148588905Y-68259826D01*
X148591008Y-68251975D01*
X148591008Y-68251974D01*
X148591009Y-68251972D01*
X148605500Y-68141901D01*
X148605499Y-67943100D01*
X148605499Y-67943098D01*
X148605499Y-67943096D01*
X148591011Y-67833036D01*
X148588906Y-67825182D01*
X148592007Y-67824350D01*
X148586128Y-67769882D01*
X148589147Y-67759889D01*
X148588418Y-67759694D01*
X148590521Y-67751842D01*
X148601626Y-67667500D01*
X148573506Y-67667500D01*
X148569835Y-67666422D01*
X148566107Y-67667279D01*
X148536574Y-67656655D01*
X148506467Y-67647815D01*
X148502917Y-67644548D01*
X148500361Y-67643629D01*
X148475115Y-67618966D01*
X148474348Y-67617966D01*
X148449167Y-67552792D01*
X148463219Y-67484350D01*
X148474348Y-67467034D01*
X148475115Y-67466034D01*
X148496055Y-67450736D01*
X148512044Y-67434370D01*
X148521404Y-67432218D01*
X148531534Y-67424819D01*
X148573506Y-67417500D01*
X148601626Y-67417500D01*
X148599533Y-67401603D01*
X148610298Y-67332568D01*
X148656678Y-67280312D01*
X148723947Y-67261426D01*
X148738651Y-67262477D01*
X148780599Y-67268000D01*
X148979400Y-67267999D01*
X148979401Y-67267999D01*
X149008828Y-67264125D01*
X149089472Y-67253509D01*
X149089475Y-67253507D01*
X149097326Y-67251405D01*
X149098210Y-67254707D01*
X149151925Y-67248892D01*
X149162514Y-67252001D01*
X149162674Y-67251405D01*
X149170524Y-67253508D01*
X149170526Y-67253508D01*
X149170528Y-67253509D01*
X149280599Y-67268000D01*
X149479400Y-67267999D01*
X149479401Y-67267999D01*
X149508828Y-67264125D01*
X149589472Y-67253509D01*
X149589475Y-67253507D01*
X149597326Y-67251405D01*
X149598210Y-67254707D01*
X149651925Y-67248892D01*
X149662514Y-67252001D01*
X149662674Y-67251405D01*
X149670524Y-67253508D01*
X149670526Y-67253508D01*
X149670528Y-67253509D01*
X149780599Y-67268000D01*
X149979400Y-67267999D01*
X149979401Y-67267999D01*
X150008828Y-67264125D01*
X150089472Y-67253509D01*
X150089475Y-67253507D01*
X150097326Y-67251405D01*
X150098158Y-67254512D01*
X150152583Y-67248622D01*
X150162623Y-67251622D01*
X150162812Y-67250919D01*
X150170665Y-67253023D01*
X150254998Y-67264125D01*
X150255000Y-67264124D01*
X150255000Y-67236005D01*
X150256066Y-67232373D01*
X150255216Y-67228684D01*
X150263323Y-67206100D01*
X150263839Y-67195393D01*
X150269086Y-67188030D01*
X150274685Y-67168966D01*
X150277917Y-67165450D01*
X150278825Y-67162923D01*
X150303468Y-67137664D01*
X150304475Y-67136891D01*
X150369630Y-67111671D01*
X150438081Y-67125681D01*
G37*
%TD.AperFunction*%
%TD*%
M02*
