M48
; DRILL file {KiCad 9.0.8} date 2026-04-30T20:24:51-0600
; FORMAT={-:-/ absolute / metric / decimal}
; #@! TF.CreationDate,2026-04-30T20:24:51-06:00
; #@! TF.GenerationSoftware,Kicad,Pcbnew,9.0.8
; #@! TF.FileFunction,Plated,1,2,PTH
FMAT,2
METRIC
; #@! TA.AperFunction,Plated,PTH,ComponentDrill
T1C0.200
; #@! TA.AperFunction,Plated,PTH,ViaDrill
T2C0.300
; #@! TA.AperFunction,Plated,PTH,ComponentDrill
T3C0.600
%
G90
G05
T1
X164.35Y-64.77
X164.35Y-66.17
X165.05Y-64.07
X165.05Y-65.47
X165.05Y-66.87
X165.75Y-64.77
X165.75Y-66.17
X166.45Y-64.07
X166.45Y-65.47
X166.45Y-66.87
X167.15Y-64.77
X167.15Y-66.17
T2
X145.56Y-71.67
X148.767Y-71.197
X149.63Y-68.293
X150.59Y-71.31
X151.005Y-66.355
X151.567Y-69.667
X151.84Y-65.755
X152.272Y-69.043
X152.56Y-69.811
X152.68Y-65.755
X153.306Y-74.744
X153.69Y-65.755
X153.76Y-70.32
X153.76Y-72.95
X153.98Y-82.96
X154.68Y-75.27
X155.88Y-63.45
X155.88Y-65.39
X155.88Y-66.71
X156.05Y-64.33
X156.63Y-62.23
X160.11Y-71.4
X160.265Y-75.51
X161.16Y-95.49
X162.17Y-84.995
X162.712Y-90.242
X165.16Y-85.0
T3
G00X158.6Y-93.725
M15
G01X158.6Y-94.825
M16
G05
G00X158.6Y-98.155
M15
G01X158.6Y-98.755
M16
G05
G00X167.24Y-93.725
M15
G01X167.24Y-94.825
M16
G05
G00X167.24Y-98.155
M15
G01X167.24Y-98.755
M16
G05
M30
