%TF.GenerationSoftware,KiCad,Pcbnew,9.0.8*%
%TF.CreationDate,2026-04-30T20:24:59-06:00*%
%TF.ProjectId,usb hub,75736220-6875-4622-9e6b-696361645f70,rev?*%
%TF.SameCoordinates,Original*%
%TF.FileFunction,Legend,Top*%
%TF.FilePolarity,Positive*%
%FSLAX46Y46*%
G04 Gerber Fmt 4.6, Leading zero omitted, Abs format (unit mm)*
G04 Created by KiCad (PCBNEW 9.0.8) date 2026-04-30 20:24:59*
%MOMM*%
%LPD*%
G01*
G04 APERTURE LIST*
%ADD10C,0.300000*%
%ADD11C,0.150000*%
%ADD12C,0.000000*%
%ADD13C,0.120000*%
G04 APERTURE END LIST*
D10*
X171998572Y-89579757D02*
X171855715Y-89508328D01*
X171855715Y-89508328D02*
X171641429Y-89508328D01*
X171641429Y-89508328D02*
X171427143Y-89579757D01*
X171427143Y-89579757D02*
X171284286Y-89722614D01*
X171284286Y-89722614D02*
X171212857Y-89865471D01*
X171212857Y-89865471D02*
X171141429Y-90151185D01*
X171141429Y-90151185D02*
X171141429Y-90365471D01*
X171141429Y-90365471D02*
X171212857Y-90651185D01*
X171212857Y-90651185D02*
X171284286Y-90794042D01*
X171284286Y-90794042D02*
X171427143Y-90936900D01*
X171427143Y-90936900D02*
X171641429Y-91008328D01*
X171641429Y-91008328D02*
X171784286Y-91008328D01*
X171784286Y-91008328D02*
X171998572Y-90936900D01*
X171998572Y-90936900D02*
X172070000Y-90865471D01*
X172070000Y-90865471D02*
X172070000Y-90365471D01*
X172070000Y-90365471D02*
X171784286Y-90365471D01*
X172927143Y-89508328D02*
X172927143Y-89865471D01*
X172570000Y-89722614D02*
X172927143Y-89865471D01*
X172927143Y-89865471D02*
X173284286Y-89722614D01*
X172712857Y-90151185D02*
X172927143Y-89865471D01*
X172927143Y-89865471D02*
X173141429Y-90151185D01*
X174070000Y-89508328D02*
X174070000Y-89865471D01*
X173712857Y-89722614D02*
X174070000Y-89865471D01*
X174070000Y-89865471D02*
X174427143Y-89722614D01*
X173855714Y-90151185D02*
X174070000Y-89865471D01*
X174070000Y-89865471D02*
X174284286Y-90151185D01*
X175212857Y-89508328D02*
X175212857Y-89865471D01*
X174855714Y-89722614D02*
X175212857Y-89865471D01*
X175212857Y-89865471D02*
X175570000Y-89722614D01*
X174998571Y-90151185D02*
X175212857Y-89865471D01*
X175212857Y-89865471D02*
X175427143Y-90151185D01*
D11*
X151433333Y-63619580D02*
X151385714Y-63667200D01*
X151385714Y-63667200D02*
X151242857Y-63714819D01*
X151242857Y-63714819D02*
X151147619Y-63714819D01*
X151147619Y-63714819D02*
X151004762Y-63667200D01*
X151004762Y-63667200D02*
X150909524Y-63571961D01*
X150909524Y-63571961D02*
X150861905Y-63476723D01*
X150861905Y-63476723D02*
X150814286Y-63286247D01*
X150814286Y-63286247D02*
X150814286Y-63143390D01*
X150814286Y-63143390D02*
X150861905Y-62952914D01*
X150861905Y-62952914D02*
X150909524Y-62857676D01*
X150909524Y-62857676D02*
X151004762Y-62762438D01*
X151004762Y-62762438D02*
X151147619Y-62714819D01*
X151147619Y-62714819D02*
X151242857Y-62714819D01*
X151242857Y-62714819D02*
X151385714Y-62762438D01*
X151385714Y-62762438D02*
X151433333Y-62810057D01*
X152004762Y-63143390D02*
X151909524Y-63095771D01*
X151909524Y-63095771D02*
X151861905Y-63048152D01*
X151861905Y-63048152D02*
X151814286Y-62952914D01*
X151814286Y-62952914D02*
X151814286Y-62905295D01*
X151814286Y-62905295D02*
X151861905Y-62810057D01*
X151861905Y-62810057D02*
X151909524Y-62762438D01*
X151909524Y-62762438D02*
X152004762Y-62714819D01*
X152004762Y-62714819D02*
X152195238Y-62714819D01*
X152195238Y-62714819D02*
X152290476Y-62762438D01*
X152290476Y-62762438D02*
X152338095Y-62810057D01*
X152338095Y-62810057D02*
X152385714Y-62905295D01*
X152385714Y-62905295D02*
X152385714Y-62952914D01*
X152385714Y-62952914D02*
X152338095Y-63048152D01*
X152338095Y-63048152D02*
X152290476Y-63095771D01*
X152290476Y-63095771D02*
X152195238Y-63143390D01*
X152195238Y-63143390D02*
X152004762Y-63143390D01*
X152004762Y-63143390D02*
X151909524Y-63191009D01*
X151909524Y-63191009D02*
X151861905Y-63238628D01*
X151861905Y-63238628D02*
X151814286Y-63333866D01*
X151814286Y-63333866D02*
X151814286Y-63524342D01*
X151814286Y-63524342D02*
X151861905Y-63619580D01*
X151861905Y-63619580D02*
X151909524Y-63667200D01*
X151909524Y-63667200D02*
X152004762Y-63714819D01*
X152004762Y-63714819D02*
X152195238Y-63714819D01*
X152195238Y-63714819D02*
X152290476Y-63667200D01*
X152290476Y-63667200D02*
X152338095Y-63619580D01*
X152338095Y-63619580D02*
X152385714Y-63524342D01*
X152385714Y-63524342D02*
X152385714Y-63333866D01*
X152385714Y-63333866D02*
X152338095Y-63238628D01*
X152338095Y-63238628D02*
X152290476Y-63191009D01*
X152290476Y-63191009D02*
X152195238Y-63143390D01*
X144803333Y-66159580D02*
X144755714Y-66207200D01*
X144755714Y-66207200D02*
X144612857Y-66254819D01*
X144612857Y-66254819D02*
X144517619Y-66254819D01*
X144517619Y-66254819D02*
X144374762Y-66207200D01*
X144374762Y-66207200D02*
X144279524Y-66111961D01*
X144279524Y-66111961D02*
X144231905Y-66016723D01*
X144231905Y-66016723D02*
X144184286Y-65826247D01*
X144184286Y-65826247D02*
X144184286Y-65683390D01*
X144184286Y-65683390D02*
X144231905Y-65492914D01*
X144231905Y-65492914D02*
X144279524Y-65397676D01*
X144279524Y-65397676D02*
X144374762Y-65302438D01*
X144374762Y-65302438D02*
X144517619Y-65254819D01*
X144517619Y-65254819D02*
X144612857Y-65254819D01*
X144612857Y-65254819D02*
X144755714Y-65302438D01*
X144755714Y-65302438D02*
X144803333Y-65350057D01*
X145755714Y-66254819D02*
X145184286Y-66254819D01*
X145470000Y-66254819D02*
X145470000Y-65254819D01*
X145470000Y-65254819D02*
X145374762Y-65397676D01*
X145374762Y-65397676D02*
X145279524Y-65492914D01*
X145279524Y-65492914D02*
X145184286Y-65540533D01*
X148543333Y-63714819D02*
X148067143Y-63714819D01*
X148067143Y-63714819D02*
X148067143Y-62714819D01*
X148829048Y-62810057D02*
X148876667Y-62762438D01*
X148876667Y-62762438D02*
X148971905Y-62714819D01*
X148971905Y-62714819D02*
X149210000Y-62714819D01*
X149210000Y-62714819D02*
X149305238Y-62762438D01*
X149305238Y-62762438D02*
X149352857Y-62810057D01*
X149352857Y-62810057D02*
X149400476Y-62905295D01*
X149400476Y-62905295D02*
X149400476Y-63000533D01*
X149400476Y-63000533D02*
X149352857Y-63143390D01*
X149352857Y-63143390D02*
X148781429Y-63714819D01*
X148781429Y-63714819D02*
X149400476Y-63714819D01*
X142946666Y-63599819D02*
X142946666Y-64314104D01*
X142946666Y-64314104D02*
X142899047Y-64456961D01*
X142899047Y-64456961D02*
X142803809Y-64552200D01*
X142803809Y-64552200D02*
X142660952Y-64599819D01*
X142660952Y-64599819D02*
X142565714Y-64599819D01*
X143375238Y-63695057D02*
X143422857Y-63647438D01*
X143422857Y-63647438D02*
X143518095Y-63599819D01*
X143518095Y-63599819D02*
X143756190Y-63599819D01*
X143756190Y-63599819D02*
X143851428Y-63647438D01*
X143851428Y-63647438D02*
X143899047Y-63695057D01*
X143899047Y-63695057D02*
X143946666Y-63790295D01*
X143946666Y-63790295D02*
X143946666Y-63885533D01*
X143946666Y-63885533D02*
X143899047Y-64028390D01*
X143899047Y-64028390D02*
X143327619Y-64599819D01*
X143327619Y-64599819D02*
X143946666Y-64599819D01*
X146743333Y-73384819D02*
X146267143Y-73384819D01*
X146267143Y-73384819D02*
X146267143Y-72384819D01*
X147600476Y-73384819D02*
X147029048Y-73384819D01*
X147314762Y-73384819D02*
X147314762Y-72384819D01*
X147314762Y-72384819D02*
X147219524Y-72527676D01*
X147219524Y-72527676D02*
X147124286Y-72622914D01*
X147124286Y-72622914D02*
X147029048Y-72670533D01*
X164558095Y-79949819D02*
X164558095Y-80759342D01*
X164558095Y-80759342D02*
X164605714Y-80854580D01*
X164605714Y-80854580D02*
X164653333Y-80902200D01*
X164653333Y-80902200D02*
X164748571Y-80949819D01*
X164748571Y-80949819D02*
X164939047Y-80949819D01*
X164939047Y-80949819D02*
X165034285Y-80902200D01*
X165034285Y-80902200D02*
X165081904Y-80854580D01*
X165081904Y-80854580D02*
X165129523Y-80759342D01*
X165129523Y-80759342D02*
X165129523Y-79949819D01*
X165510476Y-79949819D02*
X166129523Y-79949819D01*
X166129523Y-79949819D02*
X165796190Y-80330771D01*
X165796190Y-80330771D02*
X165939047Y-80330771D01*
X165939047Y-80330771D02*
X166034285Y-80378390D01*
X166034285Y-80378390D02*
X166081904Y-80426009D01*
X166081904Y-80426009D02*
X166129523Y-80521247D01*
X166129523Y-80521247D02*
X166129523Y-80759342D01*
X166129523Y-80759342D02*
X166081904Y-80854580D01*
X166081904Y-80854580D02*
X166034285Y-80902200D01*
X166034285Y-80902200D02*
X165939047Y-80949819D01*
X165939047Y-80949819D02*
X165653333Y-80949819D01*
X165653333Y-80949819D02*
X165558095Y-80902200D01*
X165558095Y-80902200D02*
X165510476Y-80854580D01*
X156204819Y-75171904D02*
X157014342Y-75171904D01*
X157014342Y-75171904D02*
X157109580Y-75124285D01*
X157109580Y-75124285D02*
X157157200Y-75076666D01*
X157157200Y-75076666D02*
X157204819Y-74981428D01*
X157204819Y-74981428D02*
X157204819Y-74790952D01*
X157204819Y-74790952D02*
X157157200Y-74695714D01*
X157157200Y-74695714D02*
X157109580Y-74648095D01*
X157109580Y-74648095D02*
X157014342Y-74600476D01*
X157014342Y-74600476D02*
X156204819Y-74600476D01*
X157204819Y-73600476D02*
X157204819Y-74171904D01*
X157204819Y-73886190D02*
X156204819Y-73886190D01*
X156204819Y-73886190D02*
X156347676Y-73981428D01*
X156347676Y-73981428D02*
X156442914Y-74076666D01*
X156442914Y-74076666D02*
X156490533Y-74171904D01*
X162213333Y-90459819D02*
X161880000Y-89983628D01*
X161641905Y-90459819D02*
X161641905Y-89459819D01*
X161641905Y-89459819D02*
X162022857Y-89459819D01*
X162022857Y-89459819D02*
X162118095Y-89507438D01*
X162118095Y-89507438D02*
X162165714Y-89555057D01*
X162165714Y-89555057D02*
X162213333Y-89650295D01*
X162213333Y-89650295D02*
X162213333Y-89793152D01*
X162213333Y-89793152D02*
X162165714Y-89888390D01*
X162165714Y-89888390D02*
X162118095Y-89936009D01*
X162118095Y-89936009D02*
X162022857Y-89983628D01*
X162022857Y-89983628D02*
X161641905Y-89983628D01*
X163165714Y-90459819D02*
X162594286Y-90459819D01*
X162880000Y-90459819D02*
X162880000Y-89459819D01*
X162880000Y-89459819D02*
X162784762Y-89602676D01*
X162784762Y-89602676D02*
X162689524Y-89697914D01*
X162689524Y-89697914D02*
X162594286Y-89745533D01*
X153903333Y-78414819D02*
X153570000Y-77938628D01*
X153331905Y-78414819D02*
X153331905Y-77414819D01*
X153331905Y-77414819D02*
X153712857Y-77414819D01*
X153712857Y-77414819D02*
X153808095Y-77462438D01*
X153808095Y-77462438D02*
X153855714Y-77510057D01*
X153855714Y-77510057D02*
X153903333Y-77605295D01*
X153903333Y-77605295D02*
X153903333Y-77748152D01*
X153903333Y-77748152D02*
X153855714Y-77843390D01*
X153855714Y-77843390D02*
X153808095Y-77891009D01*
X153808095Y-77891009D02*
X153712857Y-77938628D01*
X153712857Y-77938628D02*
X153331905Y-77938628D01*
X154236667Y-77414819D02*
X154855714Y-77414819D01*
X154855714Y-77414819D02*
X154522381Y-77795771D01*
X154522381Y-77795771D02*
X154665238Y-77795771D01*
X154665238Y-77795771D02*
X154760476Y-77843390D01*
X154760476Y-77843390D02*
X154808095Y-77891009D01*
X154808095Y-77891009D02*
X154855714Y-77986247D01*
X154855714Y-77986247D02*
X154855714Y-78224342D01*
X154855714Y-78224342D02*
X154808095Y-78319580D01*
X154808095Y-78319580D02*
X154760476Y-78367200D01*
X154760476Y-78367200D02*
X154665238Y-78414819D01*
X154665238Y-78414819D02*
X154379524Y-78414819D01*
X154379524Y-78414819D02*
X154284286Y-78367200D01*
X154284286Y-78367200D02*
X154236667Y-78319580D01*
X176216667Y-77313200D02*
X176359524Y-77360819D01*
X176359524Y-77360819D02*
X176597619Y-77360819D01*
X176597619Y-77360819D02*
X176692857Y-77313200D01*
X176692857Y-77313200D02*
X176740476Y-77265580D01*
X176740476Y-77265580D02*
X176788095Y-77170342D01*
X176788095Y-77170342D02*
X176788095Y-77075104D01*
X176788095Y-77075104D02*
X176740476Y-76979866D01*
X176740476Y-76979866D02*
X176692857Y-76932247D01*
X176692857Y-76932247D02*
X176597619Y-76884628D01*
X176597619Y-76884628D02*
X176407143Y-76837009D01*
X176407143Y-76837009D02*
X176311905Y-76789390D01*
X176311905Y-76789390D02*
X176264286Y-76741771D01*
X176264286Y-76741771D02*
X176216667Y-76646533D01*
X176216667Y-76646533D02*
X176216667Y-76551295D01*
X176216667Y-76551295D02*
X176264286Y-76456057D01*
X176264286Y-76456057D02*
X176311905Y-76408438D01*
X176311905Y-76408438D02*
X176407143Y-76360819D01*
X176407143Y-76360819D02*
X176645238Y-76360819D01*
X176645238Y-76360819D02*
X176788095Y-76408438D01*
X177121429Y-76360819D02*
X177359524Y-77360819D01*
X177359524Y-77360819D02*
X177550000Y-76646533D01*
X177550000Y-76646533D02*
X177740476Y-77360819D01*
X177740476Y-77360819D02*
X177978572Y-76360819D01*
X178311905Y-76456057D02*
X178359524Y-76408438D01*
X178359524Y-76408438D02*
X178454762Y-76360819D01*
X178454762Y-76360819D02*
X178692857Y-76360819D01*
X178692857Y-76360819D02*
X178788095Y-76408438D01*
X178788095Y-76408438D02*
X178835714Y-76456057D01*
X178835714Y-76456057D02*
X178883333Y-76551295D01*
X178883333Y-76551295D02*
X178883333Y-76646533D01*
X178883333Y-76646533D02*
X178835714Y-76789390D01*
X178835714Y-76789390D02*
X178264286Y-77360819D01*
X178264286Y-77360819D02*
X178883333Y-77360819D01*
X176216666Y-77360819D02*
X175883333Y-76884628D01*
X175645238Y-77360819D02*
X175645238Y-76360819D01*
X175645238Y-76360819D02*
X176026190Y-76360819D01*
X176026190Y-76360819D02*
X176121428Y-76408438D01*
X176121428Y-76408438D02*
X176169047Y-76456057D01*
X176169047Y-76456057D02*
X176216666Y-76551295D01*
X176216666Y-76551295D02*
X176216666Y-76694152D01*
X176216666Y-76694152D02*
X176169047Y-76789390D01*
X176169047Y-76789390D02*
X176121428Y-76837009D01*
X176121428Y-76837009D02*
X176026190Y-76884628D01*
X176026190Y-76884628D02*
X175645238Y-76884628D01*
X176645238Y-76837009D02*
X176978571Y-76837009D01*
X177121428Y-77360819D02*
X176645238Y-77360819D01*
X176645238Y-77360819D02*
X176645238Y-76360819D01*
X176645238Y-76360819D02*
X177121428Y-76360819D01*
X177883333Y-76837009D02*
X177550000Y-76837009D01*
X177550000Y-77360819D02*
X177550000Y-76360819D01*
X177550000Y-76360819D02*
X178026190Y-76360819D01*
X178550000Y-76360819D02*
X178550000Y-76598914D01*
X178311905Y-76503676D02*
X178550000Y-76598914D01*
X178550000Y-76598914D02*
X178788095Y-76503676D01*
X178407143Y-76789390D02*
X178550000Y-76598914D01*
X178550000Y-76598914D02*
X178692857Y-76789390D01*
X179311905Y-76360819D02*
X179311905Y-76598914D01*
X179073810Y-76503676D02*
X179311905Y-76598914D01*
X179311905Y-76598914D02*
X179550000Y-76503676D01*
X179169048Y-76789390D02*
X179311905Y-76598914D01*
X179311905Y-76598914D02*
X179454762Y-76789390D01*
X148868095Y-64447319D02*
X148868095Y-65256842D01*
X148868095Y-65256842D02*
X148915714Y-65352080D01*
X148915714Y-65352080D02*
X148963333Y-65399700D01*
X148963333Y-65399700D02*
X149058571Y-65447319D01*
X149058571Y-65447319D02*
X149249047Y-65447319D01*
X149249047Y-65447319D02*
X149344285Y-65399700D01*
X149344285Y-65399700D02*
X149391904Y-65352080D01*
X149391904Y-65352080D02*
X149439523Y-65256842D01*
X149439523Y-65256842D02*
X149439523Y-64447319D01*
X149868095Y-64542557D02*
X149915714Y-64494938D01*
X149915714Y-64494938D02*
X150010952Y-64447319D01*
X150010952Y-64447319D02*
X150249047Y-64447319D01*
X150249047Y-64447319D02*
X150344285Y-64494938D01*
X150344285Y-64494938D02*
X150391904Y-64542557D01*
X150391904Y-64542557D02*
X150439523Y-64637795D01*
X150439523Y-64637795D02*
X150439523Y-64733033D01*
X150439523Y-64733033D02*
X150391904Y-64875890D01*
X150391904Y-64875890D02*
X149820476Y-65447319D01*
X149820476Y-65447319D02*
X150439523Y-65447319D01*
X153353333Y-73509580D02*
X153305714Y-73557200D01*
X153305714Y-73557200D02*
X153162857Y-73604819D01*
X153162857Y-73604819D02*
X153067619Y-73604819D01*
X153067619Y-73604819D02*
X152924762Y-73557200D01*
X152924762Y-73557200D02*
X152829524Y-73461961D01*
X152829524Y-73461961D02*
X152781905Y-73366723D01*
X152781905Y-73366723D02*
X152734286Y-73176247D01*
X152734286Y-73176247D02*
X152734286Y-73033390D01*
X152734286Y-73033390D02*
X152781905Y-72842914D01*
X152781905Y-72842914D02*
X152829524Y-72747676D01*
X152829524Y-72747676D02*
X152924762Y-72652438D01*
X152924762Y-72652438D02*
X153067619Y-72604819D01*
X153067619Y-72604819D02*
X153162857Y-72604819D01*
X153162857Y-72604819D02*
X153305714Y-72652438D01*
X153305714Y-72652438D02*
X153353333Y-72700057D01*
X153686667Y-72604819D02*
X154305714Y-72604819D01*
X154305714Y-72604819D02*
X153972381Y-72985771D01*
X153972381Y-72985771D02*
X154115238Y-72985771D01*
X154115238Y-72985771D02*
X154210476Y-73033390D01*
X154210476Y-73033390D02*
X154258095Y-73081009D01*
X154258095Y-73081009D02*
X154305714Y-73176247D01*
X154305714Y-73176247D02*
X154305714Y-73414342D01*
X154305714Y-73414342D02*
X154258095Y-73509580D01*
X154258095Y-73509580D02*
X154210476Y-73557200D01*
X154210476Y-73557200D02*
X154115238Y-73604819D01*
X154115238Y-73604819D02*
X153829524Y-73604819D01*
X153829524Y-73604819D02*
X153734286Y-73557200D01*
X153734286Y-73557200D02*
X153686667Y-73509580D01*
X180093333Y-73594819D02*
X179760000Y-73118628D01*
X179521905Y-73594819D02*
X179521905Y-72594819D01*
X179521905Y-72594819D02*
X179902857Y-72594819D01*
X179902857Y-72594819D02*
X179998095Y-72642438D01*
X179998095Y-72642438D02*
X180045714Y-72690057D01*
X180045714Y-72690057D02*
X180093333Y-72785295D01*
X180093333Y-72785295D02*
X180093333Y-72928152D01*
X180093333Y-72928152D02*
X180045714Y-73023390D01*
X180045714Y-73023390D02*
X179998095Y-73071009D01*
X179998095Y-73071009D02*
X179902857Y-73118628D01*
X179902857Y-73118628D02*
X179521905Y-73118628D01*
X180950476Y-72928152D02*
X180950476Y-73594819D01*
X180712381Y-72547200D02*
X180474286Y-73261485D01*
X180474286Y-73261485D02*
X181093333Y-73261485D01*
X148886667Y-86533200D02*
X149029524Y-86580819D01*
X149029524Y-86580819D02*
X149267619Y-86580819D01*
X149267619Y-86580819D02*
X149362857Y-86533200D01*
X149362857Y-86533200D02*
X149410476Y-86485580D01*
X149410476Y-86485580D02*
X149458095Y-86390342D01*
X149458095Y-86390342D02*
X149458095Y-86295104D01*
X149458095Y-86295104D02*
X149410476Y-86199866D01*
X149410476Y-86199866D02*
X149362857Y-86152247D01*
X149362857Y-86152247D02*
X149267619Y-86104628D01*
X149267619Y-86104628D02*
X149077143Y-86057009D01*
X149077143Y-86057009D02*
X148981905Y-86009390D01*
X148981905Y-86009390D02*
X148934286Y-85961771D01*
X148934286Y-85961771D02*
X148886667Y-85866533D01*
X148886667Y-85866533D02*
X148886667Y-85771295D01*
X148886667Y-85771295D02*
X148934286Y-85676057D01*
X148934286Y-85676057D02*
X148981905Y-85628438D01*
X148981905Y-85628438D02*
X149077143Y-85580819D01*
X149077143Y-85580819D02*
X149315238Y-85580819D01*
X149315238Y-85580819D02*
X149458095Y-85628438D01*
X149791429Y-85580819D02*
X150029524Y-86580819D01*
X150029524Y-86580819D02*
X150220000Y-85866533D01*
X150220000Y-85866533D02*
X150410476Y-86580819D01*
X150410476Y-86580819D02*
X150648572Y-85580819D01*
X151553333Y-86580819D02*
X150981905Y-86580819D01*
X151267619Y-86580819D02*
X151267619Y-85580819D01*
X151267619Y-85580819D02*
X151172381Y-85723676D01*
X151172381Y-85723676D02*
X151077143Y-85818914D01*
X151077143Y-85818914D02*
X150981905Y-85866533D01*
X148886666Y-86580819D02*
X148553333Y-86104628D01*
X148315238Y-86580819D02*
X148315238Y-85580819D01*
X148315238Y-85580819D02*
X148696190Y-85580819D01*
X148696190Y-85580819D02*
X148791428Y-85628438D01*
X148791428Y-85628438D02*
X148839047Y-85676057D01*
X148839047Y-85676057D02*
X148886666Y-85771295D01*
X148886666Y-85771295D02*
X148886666Y-85914152D01*
X148886666Y-85914152D02*
X148839047Y-86009390D01*
X148839047Y-86009390D02*
X148791428Y-86057009D01*
X148791428Y-86057009D02*
X148696190Y-86104628D01*
X148696190Y-86104628D02*
X148315238Y-86104628D01*
X149315238Y-86057009D02*
X149648571Y-86057009D01*
X149791428Y-86580819D02*
X149315238Y-86580819D01*
X149315238Y-86580819D02*
X149315238Y-85580819D01*
X149315238Y-85580819D02*
X149791428Y-85580819D01*
X150553333Y-86057009D02*
X150220000Y-86057009D01*
X150220000Y-86580819D02*
X150220000Y-85580819D01*
X150220000Y-85580819D02*
X150696190Y-85580819D01*
X151220000Y-85580819D02*
X151220000Y-85818914D01*
X150981905Y-85723676D02*
X151220000Y-85818914D01*
X151220000Y-85818914D02*
X151458095Y-85723676D01*
X151077143Y-86009390D02*
X151220000Y-85818914D01*
X151220000Y-85818914D02*
X151362857Y-86009390D01*
X151981905Y-85580819D02*
X151981905Y-85818914D01*
X151743810Y-85723676D02*
X151981905Y-85818914D01*
X151981905Y-85818914D02*
X152220000Y-85723676D01*
X151839048Y-86009390D02*
X151981905Y-85818914D01*
X151981905Y-85818914D02*
X152124762Y-86009390D01*
X146153333Y-64119580D02*
X146105714Y-64167200D01*
X146105714Y-64167200D02*
X145962857Y-64214819D01*
X145962857Y-64214819D02*
X145867619Y-64214819D01*
X145867619Y-64214819D02*
X145724762Y-64167200D01*
X145724762Y-64167200D02*
X145629524Y-64071961D01*
X145629524Y-64071961D02*
X145581905Y-63976723D01*
X145581905Y-63976723D02*
X145534286Y-63786247D01*
X145534286Y-63786247D02*
X145534286Y-63643390D01*
X145534286Y-63643390D02*
X145581905Y-63452914D01*
X145581905Y-63452914D02*
X145629524Y-63357676D01*
X145629524Y-63357676D02*
X145724762Y-63262438D01*
X145724762Y-63262438D02*
X145867619Y-63214819D01*
X145867619Y-63214819D02*
X145962857Y-63214819D01*
X145962857Y-63214819D02*
X146105714Y-63262438D01*
X146105714Y-63262438D02*
X146153333Y-63310057D01*
X147058095Y-63214819D02*
X146581905Y-63214819D01*
X146581905Y-63214819D02*
X146534286Y-63691009D01*
X146534286Y-63691009D02*
X146581905Y-63643390D01*
X146581905Y-63643390D02*
X146677143Y-63595771D01*
X146677143Y-63595771D02*
X146915238Y-63595771D01*
X146915238Y-63595771D02*
X147010476Y-63643390D01*
X147010476Y-63643390D02*
X147058095Y-63691009D01*
X147058095Y-63691009D02*
X147105714Y-63786247D01*
X147105714Y-63786247D02*
X147105714Y-64024342D01*
X147105714Y-64024342D02*
X147058095Y-64119580D01*
X147058095Y-64119580D02*
X147010476Y-64167200D01*
X147010476Y-64167200D02*
X146915238Y-64214819D01*
X146915238Y-64214819D02*
X146677143Y-64214819D01*
X146677143Y-64214819D02*
X146581905Y-64167200D01*
X146581905Y-64167200D02*
X146534286Y-64119580D01*
X171233333Y-83694580D02*
X171185714Y-83742200D01*
X171185714Y-83742200D02*
X171042857Y-83789819D01*
X171042857Y-83789819D02*
X170947619Y-83789819D01*
X170947619Y-83789819D02*
X170804762Y-83742200D01*
X170804762Y-83742200D02*
X170709524Y-83646961D01*
X170709524Y-83646961D02*
X170661905Y-83551723D01*
X170661905Y-83551723D02*
X170614286Y-83361247D01*
X170614286Y-83361247D02*
X170614286Y-83218390D01*
X170614286Y-83218390D02*
X170661905Y-83027914D01*
X170661905Y-83027914D02*
X170709524Y-82932676D01*
X170709524Y-82932676D02*
X170804762Y-82837438D01*
X170804762Y-82837438D02*
X170947619Y-82789819D01*
X170947619Y-82789819D02*
X171042857Y-82789819D01*
X171042857Y-82789819D02*
X171185714Y-82837438D01*
X171185714Y-82837438D02*
X171233333Y-82885057D01*
X171566667Y-82789819D02*
X172233333Y-82789819D01*
X172233333Y-82789819D02*
X171804762Y-83789819D01*
X145873333Y-70869580D02*
X145825714Y-70917200D01*
X145825714Y-70917200D02*
X145682857Y-70964819D01*
X145682857Y-70964819D02*
X145587619Y-70964819D01*
X145587619Y-70964819D02*
X145444762Y-70917200D01*
X145444762Y-70917200D02*
X145349524Y-70821961D01*
X145349524Y-70821961D02*
X145301905Y-70726723D01*
X145301905Y-70726723D02*
X145254286Y-70536247D01*
X145254286Y-70536247D02*
X145254286Y-70393390D01*
X145254286Y-70393390D02*
X145301905Y-70202914D01*
X145301905Y-70202914D02*
X145349524Y-70107676D01*
X145349524Y-70107676D02*
X145444762Y-70012438D01*
X145444762Y-70012438D02*
X145587619Y-69964819D01*
X145587619Y-69964819D02*
X145682857Y-69964819D01*
X145682857Y-69964819D02*
X145825714Y-70012438D01*
X145825714Y-70012438D02*
X145873333Y-70060057D01*
X146730476Y-70298152D02*
X146730476Y-70964819D01*
X146492381Y-69917200D02*
X146254286Y-70631485D01*
X146254286Y-70631485D02*
X146873333Y-70631485D01*
X150283333Y-71939580D02*
X150235714Y-71987200D01*
X150235714Y-71987200D02*
X150092857Y-72034819D01*
X150092857Y-72034819D02*
X149997619Y-72034819D01*
X149997619Y-72034819D02*
X149854762Y-71987200D01*
X149854762Y-71987200D02*
X149759524Y-71891961D01*
X149759524Y-71891961D02*
X149711905Y-71796723D01*
X149711905Y-71796723D02*
X149664286Y-71606247D01*
X149664286Y-71606247D02*
X149664286Y-71463390D01*
X149664286Y-71463390D02*
X149711905Y-71272914D01*
X149711905Y-71272914D02*
X149759524Y-71177676D01*
X149759524Y-71177676D02*
X149854762Y-71082438D01*
X149854762Y-71082438D02*
X149997619Y-71034819D01*
X149997619Y-71034819D02*
X150092857Y-71034819D01*
X150092857Y-71034819D02*
X150235714Y-71082438D01*
X150235714Y-71082438D02*
X150283333Y-71130057D01*
X150664286Y-71130057D02*
X150711905Y-71082438D01*
X150711905Y-71082438D02*
X150807143Y-71034819D01*
X150807143Y-71034819D02*
X151045238Y-71034819D01*
X151045238Y-71034819D02*
X151140476Y-71082438D01*
X151140476Y-71082438D02*
X151188095Y-71130057D01*
X151188095Y-71130057D02*
X151235714Y-71225295D01*
X151235714Y-71225295D02*
X151235714Y-71320533D01*
X151235714Y-71320533D02*
X151188095Y-71463390D01*
X151188095Y-71463390D02*
X150616667Y-72034819D01*
X150616667Y-72034819D02*
X151235714Y-72034819D01*
X162586666Y-91214819D02*
X162586666Y-91929104D01*
X162586666Y-91929104D02*
X162539047Y-92071961D01*
X162539047Y-92071961D02*
X162443809Y-92167200D01*
X162443809Y-92167200D02*
X162300952Y-92214819D01*
X162300952Y-92214819D02*
X162205714Y-92214819D01*
X163586666Y-92214819D02*
X163015238Y-92214819D01*
X163300952Y-92214819D02*
X163300952Y-91214819D01*
X163300952Y-91214819D02*
X163205714Y-91357676D01*
X163205714Y-91357676D02*
X163110476Y-91452914D01*
X163110476Y-91452914D02*
X163015238Y-91500533D01*
X158993333Y-89084580D02*
X158945714Y-89132200D01*
X158945714Y-89132200D02*
X158802857Y-89179819D01*
X158802857Y-89179819D02*
X158707619Y-89179819D01*
X158707619Y-89179819D02*
X158564762Y-89132200D01*
X158564762Y-89132200D02*
X158469524Y-89036961D01*
X158469524Y-89036961D02*
X158421905Y-88941723D01*
X158421905Y-88941723D02*
X158374286Y-88751247D01*
X158374286Y-88751247D02*
X158374286Y-88608390D01*
X158374286Y-88608390D02*
X158421905Y-88417914D01*
X158421905Y-88417914D02*
X158469524Y-88322676D01*
X158469524Y-88322676D02*
X158564762Y-88227438D01*
X158564762Y-88227438D02*
X158707619Y-88179819D01*
X158707619Y-88179819D02*
X158802857Y-88179819D01*
X158802857Y-88179819D02*
X158945714Y-88227438D01*
X158945714Y-88227438D02*
X158993333Y-88275057D01*
X159850476Y-88179819D02*
X159660000Y-88179819D01*
X159660000Y-88179819D02*
X159564762Y-88227438D01*
X159564762Y-88227438D02*
X159517143Y-88275057D01*
X159517143Y-88275057D02*
X159421905Y-88417914D01*
X159421905Y-88417914D02*
X159374286Y-88608390D01*
X159374286Y-88608390D02*
X159374286Y-88989342D01*
X159374286Y-88989342D02*
X159421905Y-89084580D01*
X159421905Y-89084580D02*
X159469524Y-89132200D01*
X159469524Y-89132200D02*
X159564762Y-89179819D01*
X159564762Y-89179819D02*
X159755238Y-89179819D01*
X159755238Y-89179819D02*
X159850476Y-89132200D01*
X159850476Y-89132200D02*
X159898095Y-89084580D01*
X159898095Y-89084580D02*
X159945714Y-88989342D01*
X159945714Y-88989342D02*
X159945714Y-88751247D01*
X159945714Y-88751247D02*
X159898095Y-88656009D01*
X159898095Y-88656009D02*
X159850476Y-88608390D01*
X159850476Y-88608390D02*
X159755238Y-88560771D01*
X159755238Y-88560771D02*
X159564762Y-88560771D01*
X159564762Y-88560771D02*
X159469524Y-88608390D01*
X159469524Y-88608390D02*
X159421905Y-88656009D01*
X159421905Y-88656009D02*
X159374286Y-88751247D01*
X164913333Y-90309819D02*
X164580000Y-89833628D01*
X164341905Y-90309819D02*
X164341905Y-89309819D01*
X164341905Y-89309819D02*
X164722857Y-89309819D01*
X164722857Y-89309819D02*
X164818095Y-89357438D01*
X164818095Y-89357438D02*
X164865714Y-89405057D01*
X164865714Y-89405057D02*
X164913333Y-89500295D01*
X164913333Y-89500295D02*
X164913333Y-89643152D01*
X164913333Y-89643152D02*
X164865714Y-89738390D01*
X164865714Y-89738390D02*
X164818095Y-89786009D01*
X164818095Y-89786009D02*
X164722857Y-89833628D01*
X164722857Y-89833628D02*
X164341905Y-89833628D01*
X165294286Y-89405057D02*
X165341905Y-89357438D01*
X165341905Y-89357438D02*
X165437143Y-89309819D01*
X165437143Y-89309819D02*
X165675238Y-89309819D01*
X165675238Y-89309819D02*
X165770476Y-89357438D01*
X165770476Y-89357438D02*
X165818095Y-89405057D01*
X165818095Y-89405057D02*
X165865714Y-89500295D01*
X165865714Y-89500295D02*
X165865714Y-89595533D01*
X165865714Y-89595533D02*
X165818095Y-89738390D01*
X165818095Y-89738390D02*
X165246667Y-90309819D01*
X165246667Y-90309819D02*
X165865714Y-90309819D01*
D12*
%TO.C,G\u002A\u002A\u002A*%
G36*
X163570477Y-97878029D02*
G01*
X163579720Y-97925756D01*
X163569855Y-98024905D01*
X163568758Y-98032559D01*
X163547378Y-98140901D01*
X163521123Y-98222684D01*
X163509607Y-98243347D01*
X163491219Y-98281038D01*
X163498465Y-98287261D01*
X163498765Y-98311406D01*
X163467635Y-98365341D01*
X163432484Y-98453285D01*
X163413769Y-98578283D01*
X163412408Y-98620044D01*
X163405943Y-98733162D01*
X163390120Y-98821450D01*
X163379594Y-98847686D01*
X163363334Y-98910839D01*
X163370557Y-98935515D01*
X163380620Y-98984368D01*
X163389208Y-99086723D01*
X163395194Y-99225819D01*
X163397202Y-99332420D01*
X163396669Y-99502959D01*
X163390424Y-99613237D01*
X163377286Y-99673108D01*
X163356077Y-99692428D01*
X163354080Y-99692517D01*
X163336227Y-99678377D01*
X163323330Y-99630397D01*
X163314720Y-99540235D01*
X163309730Y-99399551D01*
X163307691Y-99200003D01*
X163307552Y-99111368D01*
X163313900Y-98782283D01*
X163332327Y-98495686D01*
X163361902Y-98256571D01*
X163401697Y-98069932D01*
X163450782Y-97940762D01*
X163508229Y-97874055D01*
X163539294Y-97865684D01*
X163570477Y-97878029D01*
G37*
G36*
X163831098Y-98989889D02*
G01*
X163847712Y-99055948D01*
X163854189Y-99158996D01*
X163853286Y-99200678D01*
X163847195Y-99341720D01*
X163841354Y-99493124D01*
X163840213Y-99525643D01*
X163834522Y-99692517D01*
X163658865Y-99692517D01*
X163483208Y-99692517D01*
X163483208Y-99446597D01*
X163487850Y-99320446D01*
X163500292Y-99233277D01*
X163518306Y-99200678D01*
X163518340Y-99200678D01*
X163537579Y-99232442D01*
X163550340Y-99314381D01*
X163553471Y-99393900D01*
X163559247Y-99499716D01*
X163574145Y-99569899D01*
X163588603Y-99587123D01*
X163621340Y-99554313D01*
X163633708Y-99460113D01*
X163633172Y-99420249D01*
X163651329Y-99379469D01*
X163662769Y-99376335D01*
X163684868Y-99406831D01*
X163693997Y-99479655D01*
X163703462Y-99559798D01*
X163724851Y-99602045D01*
X163753098Y-99587213D01*
X163776088Y-99511167D01*
X163792256Y-99382859D01*
X163800035Y-99211239D01*
X163800459Y-99169938D01*
X163804771Y-99049689D01*
X163815701Y-98988520D01*
X163831098Y-98989889D01*
G37*
G36*
X164001532Y-99433604D02*
G01*
X164023168Y-99490512D01*
X164043674Y-99612655D01*
X164025622Y-99679663D01*
X163992614Y-99692517D01*
X163955972Y-99669312D01*
X163940873Y-99592392D01*
X163939917Y-99551991D01*
X163949207Y-99455620D01*
X163972190Y-99414353D01*
X164001532Y-99433604D01*
G37*
G36*
X164175498Y-99472946D02*
G01*
X164181311Y-99575318D01*
X164175498Y-99631037D01*
X164166811Y-99647685D01*
X164161298Y-99603547D01*
X164160274Y-99551991D01*
X164163014Y-99476008D01*
X164170021Y-99455149D01*
X164175498Y-99472946D01*
G37*
G36*
X164316587Y-99402472D02*
G01*
X164316691Y-99403312D01*
X164322429Y-99517881D01*
X164316333Y-99614101D01*
X164309012Y-99633506D01*
X164303901Y-99591705D01*
X164302117Y-99499294D01*
X164304228Y-99409138D01*
X164309424Y-99374408D01*
X164316587Y-99402472D01*
G37*
G36*
X164548381Y-99169876D02*
G01*
X164564407Y-99241570D01*
X164579635Y-99367673D01*
X164587950Y-99455380D01*
X164597752Y-99580997D01*
X164596469Y-99652138D01*
X164580879Y-99684149D01*
X164547757Y-99692375D01*
X164538129Y-99692517D01*
X164501611Y-99686479D01*
X164480244Y-99658604D01*
X164470036Y-99594248D01*
X164466998Y-99478769D01*
X164466888Y-99431105D01*
X164471330Y-99301923D01*
X164483059Y-99201862D01*
X164499676Y-99150127D01*
X164502267Y-99147827D01*
X164528641Y-99142119D01*
X164548381Y-99169876D01*
G37*
G36*
X176118665Y-80969335D02*
G01*
X176304099Y-80974667D01*
X176435319Y-80983139D01*
X176506075Y-80994409D01*
X176516957Y-81001836D01*
X176503126Y-81049704D01*
X176467100Y-81140162D01*
X176423331Y-81238973D01*
X176258302Y-81603152D01*
X176152755Y-81845837D01*
X176059921Y-82062648D01*
X175986310Y-82231710D01*
X175924374Y-82370235D01*
X175891000Y-82443001D01*
X175854367Y-82525638D01*
X175796750Y-82659843D01*
X175723834Y-82832183D01*
X175641304Y-83029221D01*
X175556525Y-83233458D01*
X175430724Y-83537368D01*
X175328741Y-83782341D01*
X175247914Y-83974523D01*
X175185583Y-84120061D01*
X175139088Y-84225099D01*
X175105768Y-84295785D01*
X175082963Y-84338264D01*
X175070645Y-84355906D01*
X175041723Y-84412507D01*
X175072813Y-84437433D01*
X175127861Y-84431417D01*
X175205329Y-84430783D01*
X175252851Y-84481789D01*
X175266010Y-84522435D01*
X175253946Y-84566519D01*
X175208580Y-84626622D01*
X175121832Y-84715325D01*
X175072138Y-84763157D01*
X174976898Y-84856557D01*
X174908533Y-84928475D01*
X174877123Y-84968072D01*
X174877551Y-84972462D01*
X174917399Y-84958238D01*
X175006800Y-84919635D01*
X175132000Y-84862754D01*
X175261675Y-84802043D01*
X175575981Y-84654402D01*
X175835335Y-84535753D01*
X176047198Y-84442814D01*
X176219032Y-84372305D01*
X176346458Y-84325022D01*
X176469403Y-84302873D01*
X176552149Y-84327437D01*
X176586552Y-84389094D01*
X176564471Y-84478225D01*
X176524958Y-84535884D01*
X176453587Y-84609151D01*
X176342977Y-84709051D01*
X176210724Y-84820901D01*
X176074421Y-84930018D01*
X175951664Y-85021721D01*
X175902157Y-85055608D01*
X175751210Y-85157064D01*
X175581523Y-85275390D01*
X175413665Y-85395874D01*
X175268202Y-85503802D01*
X175184664Y-85568879D01*
X175059004Y-85670513D01*
X175203859Y-85638493D01*
X175318371Y-85609937D01*
X175417569Y-85579992D01*
X175433130Y-85574379D01*
X175550357Y-85543928D01*
X175723585Y-85517481D01*
X175938617Y-85496024D01*
X176181256Y-85480542D01*
X176437306Y-85472020D01*
X176692570Y-85471444D01*
X176852631Y-85475850D01*
X177125888Y-85490692D01*
X177330974Y-85510037D01*
X177469860Y-85534238D01*
X177544516Y-85563652D01*
X177556910Y-85598632D01*
X177554937Y-85602232D01*
X177562928Y-85636951D01*
X177634276Y-85657541D01*
X177763282Y-85662852D01*
X177840107Y-85659865D01*
X177957855Y-85646405D01*
X178038791Y-85612454D01*
X178116217Y-85542102D01*
X178138724Y-85517190D01*
X178279130Y-85334227D01*
X178357124Y-85164771D01*
X178374996Y-84994931D01*
X178335034Y-84810815D01*
X178277666Y-84673845D01*
X178200371Y-84537876D01*
X178106493Y-84406960D01*
X178040557Y-84333730D01*
X177882977Y-84211451D01*
X177678528Y-84092950D01*
X177450187Y-83989650D01*
X177220929Y-83912974D01*
X177167285Y-83899562D01*
X177018743Y-83860230D01*
X176927703Y-83820878D01*
X176881835Y-83773727D01*
X176868809Y-83711281D01*
X176892936Y-83673048D01*
X176960607Y-83594636D01*
X177064248Y-83484069D01*
X177196286Y-83349376D01*
X177349148Y-83198583D01*
X177388579Y-83160418D01*
X177576337Y-82977434D01*
X177720430Y-82831566D01*
X177829403Y-82712909D01*
X177911798Y-82611555D01*
X177976159Y-82517596D01*
X178031029Y-82421125D01*
X178038510Y-82406718D01*
X178137515Y-82159290D01*
X178170911Y-81922616D01*
X178139570Y-81684705D01*
X178099910Y-81561580D01*
X178021197Y-81413937D01*
X177905999Y-81269033D01*
X177773673Y-81147410D01*
X177643574Y-81069614D01*
X177632379Y-81065372D01*
X177554030Y-81026423D01*
X177543483Y-80993789D01*
X177598284Y-80972660D01*
X177678637Y-80967483D01*
X177837050Y-81001109D01*
X177988817Y-81096004D01*
X178125770Y-81243187D01*
X178239739Y-81433682D01*
X178322556Y-81658508D01*
X178328660Y-81681933D01*
X178358196Y-81809876D01*
X178369232Y-81905826D01*
X178361615Y-82000600D01*
X178335194Y-82125013D01*
X178326303Y-82161627D01*
X178274683Y-82330217D01*
X178201099Y-82493173D01*
X178099488Y-82658488D01*
X177963789Y-82834156D01*
X177787938Y-83028173D01*
X177565873Y-83248532D01*
X177347754Y-83452012D01*
X177245388Y-83550569D01*
X177169379Y-83633323D01*
X177130306Y-83688243D01*
X177128095Y-83701808D01*
X177171848Y-83725028D01*
X177259799Y-83747271D01*
X177305565Y-83754728D01*
X177527790Y-83813671D01*
X177761800Y-83924724D01*
X177990686Y-84075860D01*
X178197540Y-84255051D01*
X178365452Y-84450271D01*
X178433292Y-84556876D01*
X178489662Y-84669371D01*
X178521207Y-84770060D01*
X178534686Y-84888487D01*
X178537007Y-85010159D01*
X178533540Y-85157298D01*
X178519167Y-85259726D01*
X178487937Y-85342821D01*
X178440401Y-85422199D01*
X178377096Y-85521197D01*
X178350652Y-85580539D01*
X178358243Y-85618551D01*
X178397045Y-85653559D01*
X178403943Y-85658632D01*
X178443958Y-85702313D01*
X178424063Y-85750657D01*
X178417688Y-85758537D01*
X178398741Y-85795820D01*
X178411921Y-85839332D01*
X178465063Y-85903680D01*
X178530879Y-85969569D01*
X178665891Y-86129281D01*
X178734525Y-86285697D01*
X178739575Y-86447868D01*
X178711774Y-86555912D01*
X178682550Y-86656081D01*
X178671439Y-86731329D01*
X178673668Y-86749181D01*
X178715277Y-86791979D01*
X178804911Y-86852254D01*
X178925526Y-86920976D01*
X179060077Y-86989115D01*
X179191520Y-87047637D01*
X179302809Y-87087514D01*
X179321893Y-87092641D01*
X179432992Y-87132638D01*
X179481255Y-87178518D01*
X179464588Y-87224143D01*
X179380898Y-87263371D01*
X179380166Y-87263582D01*
X179290925Y-87273404D01*
X179150789Y-87270920D01*
X178977698Y-87257902D01*
X178789595Y-87236121D01*
X178604421Y-87207349D01*
X178440119Y-87173357D01*
X178422835Y-87169057D01*
X178314924Y-87144362D01*
X178258821Y-87140920D01*
X178239361Y-87158739D01*
X178238395Y-87169142D01*
X178238119Y-87186189D01*
X178241959Y-87200600D01*
X178256922Y-87214195D01*
X178290014Y-87228797D01*
X178348240Y-87246227D01*
X178438606Y-87268305D01*
X178568118Y-87296855D01*
X178743781Y-87333698D01*
X178972600Y-87380655D01*
X179261582Y-87439548D01*
X179339041Y-87455329D01*
X179431081Y-87491473D01*
X179464114Y-87542243D01*
X179444606Y-87596763D01*
X179379023Y-87644160D01*
X179273832Y-87673557D01*
X179206577Y-87678117D01*
X179076574Y-87687057D01*
X179010053Y-87711168D01*
X179009005Y-87748213D01*
X179075424Y-87795951D01*
X179093679Y-87805022D01*
X179188968Y-87865539D01*
X179215408Y-87919355D01*
X179174401Y-87961103D01*
X179067347Y-87985416D01*
X179046114Y-87987197D01*
X178928054Y-88002516D01*
X178866250Y-88025529D01*
X178865055Y-88052095D01*
X178928823Y-88078073D01*
X178946334Y-88082111D01*
X179058578Y-88114391D01*
X179206955Y-88167876D01*
X179368834Y-88233194D01*
X179521583Y-88300972D01*
X179642572Y-88361838D01*
X179687565Y-88389099D01*
X179754474Y-88453382D01*
X179784096Y-88518378D01*
X179784177Y-88521133D01*
X179754108Y-88592658D01*
X179681328Y-88657249D01*
X179591973Y-88693950D01*
X179565571Y-88696390D01*
X179510651Y-88713749D01*
X179515671Y-88758876D01*
X179555823Y-88801784D01*
X179596189Y-88868532D01*
X179608520Y-88938138D01*
X179614878Y-88988264D01*
X179643486Y-89025137D01*
X179708644Y-89058674D01*
X179824651Y-89098796D01*
X179853137Y-89107830D01*
X180053000Y-89179078D01*
X180187061Y-89246981D01*
X180259533Y-89314122D01*
X180276016Y-89367117D01*
X180303341Y-89432632D01*
X180362475Y-89489179D01*
X180446476Y-89568199D01*
X180476657Y-89651551D01*
X180448769Y-89723909D01*
X180431698Y-89738872D01*
X180358134Y-89764690D01*
X180236278Y-89780037D01*
X180087361Y-89784635D01*
X179932610Y-89778209D01*
X179793253Y-89760482D01*
X179738168Y-89747906D01*
X179624573Y-89721856D01*
X179574432Y-89723880D01*
X179587210Y-89753027D01*
X179662375Y-89808348D01*
X179799391Y-89888891D01*
X179825426Y-89903188D01*
X179994789Y-89998269D01*
X180107792Y-90069994D01*
X180171600Y-90125035D01*
X180193377Y-90170061D01*
X180180287Y-90211744D01*
X180170622Y-90224606D01*
X180103684Y-90265887D01*
X180034578Y-90279550D01*
X179977166Y-90282774D01*
X179974565Y-90294877D01*
X180030385Y-90325612D01*
X180056445Y-90338620D01*
X180137131Y-90399380D01*
X180171044Y-90468530D01*
X180151284Y-90528323D01*
X180135149Y-90540999D01*
X180087990Y-90543452D01*
X179987935Y-90533056D01*
X179850760Y-90511827D01*
X179726865Y-90488793D01*
X179573944Y-90460109D01*
X179448184Y-90439768D01*
X179364400Y-90429959D01*
X179337496Y-90431221D01*
X179353065Y-90456669D01*
X179413188Y-90496471D01*
X179420815Y-90500578D01*
X179496078Y-90540358D01*
X179613364Y-90602341D01*
X179752573Y-90675904D01*
X179819235Y-90711129D01*
X179990626Y-90806444D01*
X180102081Y-90881039D01*
X180159036Y-90939953D01*
X180166925Y-90988228D01*
X180148300Y-91016305D01*
X180099951Y-91033714D01*
X180007509Y-91024970D01*
X179903170Y-91001076D01*
X179787588Y-90972314D01*
X179624853Y-90933342D01*
X179436393Y-90889228D01*
X179243635Y-90845039D01*
X179239640Y-90844135D01*
X179060749Y-90803421D01*
X178898997Y-90766221D01*
X178770756Y-90736328D01*
X178692394Y-90717531D01*
X178686321Y-90715997D01*
X178611453Y-90707083D01*
X178594491Y-90728858D01*
X178634214Y-90774045D01*
X178703886Y-90820932D01*
X178792026Y-90878206D01*
X178907757Y-90960645D01*
X179011286Y-91039030D01*
X179198329Y-91182399D01*
X179396475Y-91329266D01*
X179587586Y-91466523D01*
X179753524Y-91581064D01*
X179836874Y-91635597D01*
X179935795Y-91708551D01*
X179985964Y-91778810D01*
X180002511Y-91848170D01*
X180005268Y-91939533D01*
X179993327Y-92001275D01*
X179992367Y-92002944D01*
X179943839Y-92020846D01*
X179825597Y-92030291D01*
X179637626Y-92031282D01*
X179525085Y-92028823D01*
X179357899Y-92026274D01*
X179219533Y-92028296D01*
X179123204Y-92034388D01*
X179082132Y-92044054D01*
X179081540Y-92045552D01*
X179111333Y-92072696D01*
X179190200Y-92118059D01*
X179302383Y-92172765D01*
X179327469Y-92184063D01*
X179468875Y-92253470D01*
X179548701Y-92309779D01*
X179573388Y-92356824D01*
X179558212Y-92402299D01*
X179507951Y-92424623D01*
X179415504Y-92423441D01*
X179273772Y-92398397D01*
X179075654Y-92349132D01*
X178998350Y-92327962D01*
X178836605Y-92287208D01*
X178722860Y-92267425D01*
X178662022Y-92268614D01*
X178658999Y-92290779D01*
X178708375Y-92327827D01*
X178763952Y-92366402D01*
X178858421Y-92436937D01*
X178975864Y-92527428D01*
X179042123Y-92579488D01*
X179192639Y-92709918D01*
X179281144Y-92812224D01*
X179310254Y-92885860D01*
X179282583Y-92930275D01*
X179200746Y-92944924D01*
X179067359Y-92929258D01*
X178885036Y-92882728D01*
X178656393Y-92804787D01*
X178419400Y-92709974D01*
X178273601Y-92649546D01*
X178153627Y-92602327D01*
X178072854Y-92573416D01*
X178044785Y-92567206D01*
X178065053Y-92594475D01*
X178127851Y-92665541D01*
X178226920Y-92773639D01*
X178356000Y-92912003D01*
X178508832Y-93073869D01*
X178667437Y-93240233D01*
X178859744Y-93441704D01*
X179007910Y-93598998D01*
X179116864Y-93718225D01*
X179191535Y-93805497D01*
X179236854Y-93866923D01*
X179257750Y-93908615D01*
X179259153Y-93936683D01*
X179245993Y-93957237D01*
X179245931Y-93957299D01*
X179209187Y-93985407D01*
X179163719Y-93990859D01*
X179090144Y-93971881D01*
X178986811Y-93933586D01*
X178832200Y-93875236D01*
X178730131Y-93842965D01*
X178668216Y-93836002D01*
X178634067Y-93853575D01*
X178615295Y-93894912D01*
X178611221Y-93910189D01*
X178589752Y-93965751D01*
X178548035Y-93992589D01*
X178464908Y-94000850D01*
X178421364Y-94001231D01*
X178314197Y-93988170D01*
X178169279Y-93953734D01*
X178008306Y-93905041D01*
X177852972Y-93849209D01*
X177724972Y-93793355D01*
X177650145Y-93748189D01*
X177604171Y-93722659D01*
X177585889Y-93748255D01*
X177595184Y-93829216D01*
X177631941Y-93969784D01*
X177643091Y-94007117D01*
X177687946Y-94155364D01*
X177730897Y-94297845D01*
X177762749Y-94404062D01*
X177763101Y-94405242D01*
X177792690Y-94489418D01*
X177831255Y-94534137D01*
X177901500Y-94556385D01*
X177979924Y-94567470D01*
X178179575Y-94607598D01*
X178422431Y-94684545D01*
X178713432Y-94800037D01*
X178958589Y-94909439D01*
X179105770Y-94980064D01*
X179288294Y-95071428D01*
X179492689Y-95176393D01*
X179705486Y-95287825D01*
X179913216Y-95398586D01*
X180102408Y-95501541D01*
X180259593Y-95589554D01*
X180371300Y-95655489D01*
X180393506Y-95669618D01*
X180444902Y-95699716D01*
X180493305Y-95711425D01*
X180558093Y-95703539D01*
X180658644Y-95674849D01*
X180741881Y-95647909D01*
X180838396Y-95618053D01*
X180927311Y-95596422D01*
X181022357Y-95581820D01*
X181137261Y-95573050D01*
X181285752Y-95568914D01*
X181481560Y-95568216D01*
X181646141Y-95569076D01*
X181888871Y-95571764D01*
X182077038Y-95577003D01*
X182226333Y-95586276D01*
X182352448Y-95601064D01*
X182471073Y-95622847D01*
X182597899Y-95653108D01*
X182632945Y-95662229D01*
X182803238Y-95711756D01*
X182970899Y-95768468D01*
X183108718Y-95822884D01*
X183151133Y-95842762D01*
X183255812Y-95900675D01*
X183310564Y-95948901D01*
X183330643Y-96003988D01*
X183332448Y-96039444D01*
X183327748Y-96114639D01*
X183304509Y-96138172D01*
X183249025Y-96113040D01*
X183187823Y-96071064D01*
X183050966Y-95995354D01*
X182856580Y-95919199D01*
X182617223Y-95847097D01*
X182444142Y-95804685D01*
X182303068Y-95780886D01*
X182125711Y-95763020D01*
X181923248Y-95750928D01*
X181706857Y-95744453D01*
X181487715Y-95743436D01*
X181276999Y-95747720D01*
X181085886Y-95757145D01*
X180925554Y-95771554D01*
X180807179Y-95790788D01*
X180741940Y-95814690D01*
X180732724Y-95828908D01*
X180760847Y-95860740D01*
X180834764Y-95915128D01*
X180938799Y-95980595D01*
X180944495Y-95983944D01*
X181075851Y-96063672D01*
X181232873Y-96163230D01*
X181403869Y-96274715D01*
X181577145Y-96390226D01*
X181741008Y-96501861D01*
X181883764Y-96601719D01*
X181993721Y-96681898D01*
X182059184Y-96734497D01*
X182067717Y-96742949D01*
X182105472Y-96773369D01*
X182178782Y-96826012D01*
X182208243Y-96846324D01*
X182303064Y-96920508D01*
X182432128Y-97034468D01*
X182582744Y-97175694D01*
X182742220Y-97331674D01*
X182897863Y-97489898D01*
X183036982Y-97637856D01*
X183146885Y-97763038D01*
X183180098Y-97804286D01*
X183265427Y-97921508D01*
X183311437Y-98007902D01*
X183327116Y-98083659D01*
X183325781Y-98131541D01*
X183314882Y-98256710D01*
X183188854Y-98087546D01*
X182915185Y-97758516D01*
X182577757Y-97420866D01*
X182175685Y-97073923D01*
X181708088Y-96717015D01*
X181174082Y-96349470D01*
X180572784Y-95970615D01*
X179903309Y-95579780D01*
X179864629Y-95558000D01*
X179729694Y-95482019D01*
X179581488Y-95398370D01*
X179520691Y-95363989D01*
X179307326Y-95247776D01*
X179079881Y-95131835D01*
X178847487Y-95020024D01*
X178619277Y-94916206D01*
X178404383Y-94824240D01*
X178211936Y-94747986D01*
X178051068Y-94691305D01*
X177930911Y-94658057D01*
X177860597Y-94652103D01*
X177849225Y-94657402D01*
X177838683Y-94706554D01*
X177846275Y-94796082D01*
X177854216Y-94837068D01*
X177870514Y-94924748D01*
X177892826Y-95065763D01*
X177918717Y-95243696D01*
X177945753Y-95442129D01*
X177958404Y-95539696D01*
X177984001Y-95736803D01*
X178008188Y-95916177D01*
X178028912Y-96063084D01*
X178044120Y-96162789D01*
X178049232Y-96191411D01*
X178056632Y-96261265D01*
X178032155Y-96281813D01*
X178006161Y-96279028D01*
X177972143Y-96263107D01*
X177944232Y-96223340D01*
X177919639Y-96149761D01*
X177895574Y-96032405D01*
X177869247Y-95861307D01*
X177850406Y-95722669D01*
X177794486Y-95341635D01*
X177721655Y-94913978D01*
X177670423Y-94639207D01*
X177645332Y-94522977D01*
X177614854Y-94442930D01*
X177564459Y-94377133D01*
X177479614Y-94303654D01*
X177414799Y-94253398D01*
X177160439Y-94048034D01*
X176968353Y-93869277D01*
X176836580Y-93715257D01*
X176810197Y-93676265D01*
X176802605Y-93665409D01*
X177360110Y-93665409D01*
X177378452Y-93713476D01*
X177395242Y-93720180D01*
X177429368Y-93694965D01*
X177430373Y-93687122D01*
X177404836Y-93639542D01*
X177395242Y-93632351D01*
X177365166Y-93640315D01*
X177360110Y-93665409D01*
X176802605Y-93665409D01*
X176754459Y-93596569D01*
X176711432Y-93549777D01*
X176700956Y-93544606D01*
X176672149Y-93573260D01*
X176623881Y-93647488D01*
X176578472Y-93729046D01*
X176511115Y-93848008D01*
X176424356Y-93987658D01*
X176327450Y-94134669D01*
X176229650Y-94275715D01*
X176140207Y-94397470D01*
X176068377Y-94486606D01*
X176023410Y-94529799D01*
X176021960Y-94530549D01*
X175961158Y-94554951D01*
X175861592Y-94590775D01*
X175800562Y-94611596D01*
X175671897Y-94641550D01*
X175585337Y-94634412D01*
X175548642Y-94592264D01*
X175555656Y-94545893D01*
X175543034Y-94495041D01*
X175500871Y-94459397D01*
X175443549Y-94409021D01*
X175427883Y-94368874D01*
X175435976Y-94327089D01*
X175468557Y-94325661D01*
X175538082Y-94366575D01*
X175574901Y-94392299D01*
X175654781Y-94439682D01*
X175726636Y-94447827D01*
X175812556Y-94427489D01*
X175876455Y-94401955D01*
X175935461Y-94359711D01*
X176000191Y-94289486D01*
X176081261Y-94180005D01*
X176172582Y-94045204D01*
X176280853Y-93875957D01*
X176389755Y-93695205D01*
X176483876Y-93529013D01*
X176529912Y-93440969D01*
X176595828Y-93301198D01*
X176632029Y-93200715D01*
X176644085Y-93118049D01*
X176637566Y-93031729D01*
X176637030Y-93028111D01*
X176631491Y-92897999D01*
X176664361Y-92801064D01*
X176671049Y-92790370D01*
X176711812Y-92691497D01*
X176726641Y-92588428D01*
X176719876Y-92504106D01*
X176702764Y-92373762D01*
X176678496Y-92216047D01*
X176650264Y-92049613D01*
X176621259Y-91893112D01*
X176618952Y-91882011D01*
X176732013Y-91882011D01*
X176737005Y-91952824D01*
X176752731Y-92060595D01*
X176780744Y-92216117D01*
X176819169Y-92412972D01*
X176841021Y-92473453D01*
X176865555Y-92473613D01*
X176887288Y-92422915D01*
X176900736Y-92330824D01*
X176902631Y-92268936D01*
X176893403Y-92166874D01*
X176870107Y-92056913D01*
X176838134Y-91953039D01*
X176802878Y-91869234D01*
X176769731Y-91819481D01*
X176744085Y-91817765D01*
X176736196Y-91837362D01*
X176732013Y-91882011D01*
X176618952Y-91882011D01*
X176594674Y-91765194D01*
X176573699Y-91684512D01*
X176570451Y-91675669D01*
X176532869Y-91630412D01*
X176451381Y-91556628D01*
X176339604Y-91466139D01*
X176259222Y-91405479D01*
X176108867Y-91290947D01*
X175954496Y-91166589D01*
X175821913Y-91053403D01*
X175782022Y-91017140D01*
X175683384Y-90930618D01*
X175599947Y-90867381D01*
X175548142Y-90839744D01*
X175544885Y-90839405D01*
X175503516Y-90811157D01*
X175498146Y-90786708D01*
X175514668Y-90741593D01*
X175566296Y-90743194D01*
X175656122Y-90793089D01*
X175787238Y-90892856D01*
X175908580Y-90996134D01*
X176077124Y-91139394D01*
X176234279Y-91264645D01*
X176371668Y-91365979D01*
X176480912Y-91437486D01*
X176553634Y-91473255D01*
X176580822Y-91470322D01*
X176565300Y-91433356D01*
X176515516Y-91347790D01*
X176437228Y-91222772D01*
X176336197Y-91067453D01*
X176218182Y-90890982D01*
X176190229Y-90849813D01*
X176063861Y-90662820D01*
X175947817Y-90488500D01*
X175849242Y-90337790D01*
X175775278Y-90221626D01*
X175733069Y-90150943D01*
X175730233Y-90145560D01*
X175680184Y-90070241D01*
X175632271Y-90032424D01*
X175625466Y-90031383D01*
X175573728Y-90048389D01*
X175481761Y-90093092D01*
X175368960Y-90156021D01*
X175362882Y-90159617D01*
X175146832Y-90287852D01*
X175146071Y-90730503D01*
X175140580Y-90982658D01*
X175125991Y-91232143D01*
X175103840Y-91466409D01*
X175075663Y-91672909D01*
X175042996Y-91839096D01*
X175007376Y-91952421D01*
X174993145Y-91979384D01*
X174946398Y-92057935D01*
X174943027Y-92089974D01*
X174982668Y-92083980D01*
X174988741Y-92081708D01*
X175034056Y-92080344D01*
X175032991Y-92122737D01*
X174989858Y-92194032D01*
X174940025Y-92280287D01*
X174947905Y-92328850D01*
X175012703Y-92337583D01*
X175041438Y-92332489D01*
X175116001Y-92325587D01*
X175146818Y-92342408D01*
X175146832Y-92342988D01*
X175130760Y-92386693D01*
X175087637Y-92476076D01*
X175025106Y-92595714D01*
X174986661Y-92666205D01*
X174904936Y-92820861D01*
X174827868Y-92978577D01*
X174768718Y-93111862D01*
X174755782Y-93144754D01*
X174702260Y-93262332D01*
X174651914Y-93325572D01*
X174630306Y-93333734D01*
X174596410Y-93303717D01*
X174592899Y-93220083D01*
X174619548Y-93092460D01*
X174637306Y-93035117D01*
X174650831Y-92987155D01*
X174633519Y-92998499D01*
X174610073Y-93026335D01*
X174551754Y-93075182D01*
X174500727Y-93086108D01*
X174479336Y-93055126D01*
X174449465Y-93025338D01*
X174400290Y-93011212D01*
X174346140Y-92991636D01*
X174329511Y-92939782D01*
X174332275Y-92885809D01*
X174330871Y-92803383D01*
X174300974Y-92772863D01*
X174287491Y-92771632D01*
X174234185Y-92742272D01*
X174199427Y-92686810D01*
X174147834Y-92612710D01*
X174094903Y-92579048D01*
X174056574Y-92558968D01*
X174034721Y-92518188D01*
X174024890Y-92440144D01*
X174022628Y-92310247D01*
X174027679Y-92176187D01*
X174040908Y-92063010D01*
X174058995Y-91996432D01*
X174074082Y-91941594D01*
X174048232Y-91931714D01*
X173997123Y-91970138D01*
X173987496Y-91981175D01*
X173936782Y-92025339D01*
X173912932Y-92033873D01*
X173883894Y-92005539D01*
X173894938Y-91921916D01*
X173945559Y-91785067D01*
X174005062Y-91657104D01*
X174064841Y-91527196D01*
X174107185Y-91418698D01*
X174129805Y-91340979D01*
X174130411Y-91303410D01*
X174106712Y-91315363D01*
X174080167Y-91349776D01*
X173993627Y-91490948D01*
X173896459Y-91674540D01*
X173800499Y-91876396D01*
X173717584Y-92072360D01*
X173689510Y-92147061D01*
X173628872Y-92297156D01*
X173573481Y-92397519D01*
X173531049Y-92437801D01*
X173462245Y-92445630D01*
X173364445Y-92442671D01*
X173267449Y-92431502D01*
X173201055Y-92414703D01*
X173190945Y-92408368D01*
X173190014Y-92367847D01*
X173207164Y-92285637D01*
X173217397Y-92249196D01*
X173241284Y-92147537D01*
X173235292Y-92084453D01*
X173215531Y-92052553D01*
X173165661Y-92007838D01*
X173142220Y-91998741D01*
X173119496Y-92029854D01*
X173082591Y-92113210D01*
X173037792Y-92233839D01*
X173014779Y-92302277D01*
X172947147Y-92486691D01*
X172885016Y-92605781D01*
X172835139Y-92658814D01*
X172758723Y-92691097D01*
X172720029Y-92666463D01*
X172721258Y-92588615D01*
X172745655Y-92508146D01*
X172784070Y-92393241D01*
X172826287Y-92249013D01*
X172850541Y-92156832D01*
X172889897Y-91999702D01*
X172932427Y-91832022D01*
X172953336Y-91750517D01*
X172981109Y-91634736D01*
X172999444Y-91542565D01*
X173003817Y-91505563D01*
X172993319Y-91479634D01*
X172966056Y-91508027D01*
X172928375Y-91578713D01*
X172886621Y-91679661D01*
X172847142Y-91798840D01*
X172844774Y-91807044D01*
X172797532Y-91949662D01*
X172732804Y-92116977D01*
X172669391Y-92262227D01*
X172609226Y-92399837D01*
X172559794Y-92530210D01*
X172531214Y-92626506D01*
X172530288Y-92631106D01*
X172497476Y-92754316D01*
X172454160Y-92870040D01*
X172403539Y-92992356D01*
X172345748Y-93148675D01*
X172285852Y-93323128D01*
X172228917Y-93499844D01*
X172180008Y-93662952D01*
X172144192Y-93796582D01*
X172126533Y-93884862D01*
X172125532Y-93899619D01*
X172116248Y-93974860D01*
X172081960Y-93996419D01*
X172064052Y-93994396D01*
X172011129Y-93954108D01*
X171997524Y-93912774D01*
X171991388Y-93831821D01*
X171988741Y-93799225D01*
X171956890Y-93759559D01*
X171935237Y-93755311D01*
X171881500Y-93730643D01*
X171871684Y-93713960D01*
X171843741Y-93684427D01*
X171803281Y-93721520D01*
X171751770Y-93823010D01*
X171690672Y-93986663D01*
X171688604Y-93992813D01*
X171636916Y-94144014D01*
X171597987Y-94242904D01*
X171562808Y-94303979D01*
X171522374Y-94341735D01*
X171467679Y-94370668D01*
X171448547Y-94379177D01*
X171366580Y-94437879D01*
X171319342Y-94505818D01*
X171266465Y-94574349D01*
X171163183Y-94612938D01*
X171154189Y-94614693D01*
X171063434Y-94623415D01*
X171013199Y-94611566D01*
X171009860Y-94606495D01*
X170958354Y-94515913D01*
X170869667Y-94465290D01*
X170730288Y-94446298D01*
X170622695Y-94438115D01*
X170546012Y-94424369D01*
X170525229Y-94415128D01*
X170480377Y-94412430D01*
X170405531Y-94439662D01*
X170401385Y-94441774D01*
X170329849Y-94473222D01*
X170292005Y-94466490D01*
X170270465Y-94436380D01*
X170231856Y-94399166D01*
X170171390Y-94415766D01*
X170167015Y-94418076D01*
X170099742Y-94437324D01*
X170052167Y-94404504D01*
X169991046Y-94371049D01*
X169873127Y-94354744D01*
X169783248Y-94352545D01*
X169592078Y-94367902D01*
X169446343Y-94411783D01*
X169355066Y-94480899D01*
X169335494Y-94515725D01*
X169326329Y-94568485D01*
X169314599Y-94679451D01*
X169301309Y-94836657D01*
X169287465Y-95028137D01*
X169274074Y-95241926D01*
X169273232Y-95256502D01*
X169259791Y-95512315D01*
X169252756Y-95704957D01*
X169252132Y-95841226D01*
X169257924Y-95927921D01*
X169270138Y-95971842D01*
X169273774Y-95976527D01*
X169320623Y-95996442D01*
X169406259Y-95990723D01*
X169498654Y-95970995D01*
X169698687Y-95923923D01*
X169844982Y-95894537D01*
X169951368Y-95881247D01*
X170031673Y-95882464D01*
X170099727Y-95896601D01*
X170112075Y-95900504D01*
X170174703Y-95927288D01*
X170227315Y-95969319D01*
X170279603Y-96039275D01*
X170341261Y-96149836D01*
X170411902Y-96292726D01*
X170486743Y-96409206D01*
X170562741Y-96456674D01*
X170635907Y-96436192D01*
X170702254Y-96348820D01*
X170719270Y-96302337D01*
X170895933Y-96302337D01*
X170923490Y-96348926D01*
X170947528Y-96355034D01*
X170982970Y-96331757D01*
X170978900Y-96302337D01*
X170944417Y-96255848D01*
X170927306Y-96249640D01*
X170899456Y-96278150D01*
X170895933Y-96302337D01*
X170719270Y-96302337D01*
X170756363Y-96201011D01*
X170828014Y-96038643D01*
X171048339Y-96038643D01*
X171075872Y-96077373D01*
X171137370Y-96102627D01*
X171193243Y-96107906D01*
X171212116Y-96094422D01*
X171191496Y-96025658D01*
X171145898Y-95975767D01*
X171122602Y-95968589D01*
X171064969Y-95990957D01*
X171048339Y-96038643D01*
X170828014Y-96038643D01*
X170840847Y-96009562D01*
X170951432Y-95892471D01*
X171422904Y-95892471D01*
X171450879Y-95948465D01*
X171497920Y-95968589D01*
X171512208Y-95942604D01*
X171505871Y-95915892D01*
X171472051Y-95872062D01*
X171435375Y-95865764D01*
X171422904Y-95892471D01*
X170951432Y-95892471D01*
X170979759Y-95862477D01*
X171172838Y-95760006D01*
X171237553Y-95739062D01*
X171239873Y-95738398D01*
X171677924Y-95738398D01*
X171680023Y-95783053D01*
X171710982Y-95821037D01*
X171770787Y-95860619D01*
X171803885Y-95836305D01*
X171809350Y-95792932D01*
X171784508Y-95734217D01*
X171739087Y-95722669D01*
X171677924Y-95738398D01*
X171239873Y-95738398D01*
X171377173Y-95699101D01*
X171513960Y-95659907D01*
X171532876Y-95654480D01*
X172020138Y-95654480D01*
X172046934Y-95686592D01*
X172055269Y-95687538D01*
X172086101Y-95658942D01*
X172090401Y-95632767D01*
X172073369Y-95596404D01*
X172055269Y-95599709D01*
X172021478Y-95644623D01*
X172020138Y-95654480D01*
X171532876Y-95654480D01*
X171579946Y-95640976D01*
X171689002Y-95589952D01*
X171817763Y-95491113D01*
X171950657Y-95363180D01*
X172054694Y-95259931D01*
X172142799Y-95179321D01*
X172202309Y-95132606D01*
X172218096Y-95125435D01*
X172260973Y-95152032D01*
X172327304Y-95220113D01*
X172402461Y-95312115D01*
X172471817Y-95410472D01*
X172510665Y-95476749D01*
X172570821Y-95572213D01*
X172625593Y-95641183D01*
X172660959Y-95689472D01*
X172679742Y-95748968D01*
X172684773Y-95838660D01*
X172678883Y-95977541D01*
X172677952Y-95992497D01*
X172655893Y-96206665D01*
X172617488Y-96444138D01*
X172567366Y-96683772D01*
X172510159Y-96904422D01*
X172450497Y-97084941D01*
X172425857Y-97143627D01*
X172352858Y-97270097D01*
X172260949Y-97388647D01*
X172217168Y-97432359D01*
X172135224Y-97517226D01*
X172115018Y-97584723D01*
X172157962Y-97649689D01*
X172243883Y-97713172D01*
X172309280Y-97767832D01*
X172368166Y-97847478D01*
X172425716Y-97962689D01*
X172487103Y-98124045D01*
X172557499Y-98342124D01*
X172567550Y-98375090D01*
X172655042Y-98596870D01*
X172767544Y-98759764D01*
X172911430Y-98872633D01*
X172934190Y-98884819D01*
X173094259Y-98945837D01*
X173225379Y-98947051D01*
X173336862Y-98887590D01*
X173381209Y-98843004D01*
X173547577Y-98652416D01*
X173690605Y-98492509D01*
X173822649Y-98350710D01*
X173956066Y-98214443D01*
X174103213Y-98071136D01*
X174195223Y-97984602D01*
X174373942Y-97984602D01*
X174384263Y-98009872D01*
X174420318Y-97995750D01*
X174489737Y-97937432D01*
X174566962Y-97863111D01*
X174658688Y-97769352D01*
X174726852Y-97693658D01*
X174759123Y-97649878D01*
X174760185Y-97646113D01*
X174739053Y-97618100D01*
X174679728Y-97639798D01*
X174589562Y-97707416D01*
X174524580Y-97767605D01*
X174443383Y-97858274D01*
X174388692Y-97940367D01*
X174373942Y-97984602D01*
X174195223Y-97984602D01*
X174276446Y-97908213D01*
X174488122Y-97713101D01*
X174522805Y-97681333D01*
X174622621Y-97584491D01*
X174752487Y-97450663D01*
X174896816Y-97296286D01*
X175040021Y-97137797D01*
X175064248Y-97110359D01*
X175196163Y-96964436D01*
X175323174Y-96831175D01*
X175433012Y-96722962D01*
X175513413Y-96652181D01*
X175530184Y-96639947D01*
X175614152Y-96582793D01*
X175672638Y-96540778D01*
X175682533Y-96532850D01*
X175685185Y-96490978D01*
X175669894Y-96398752D01*
X175639759Y-96272856D01*
X175623091Y-96212806D01*
X175580111Y-96047479D01*
X175536719Y-95852424D01*
X175496367Y-95646613D01*
X175462509Y-95449019D01*
X175438599Y-95278614D01*
X175428091Y-95154370D01*
X175427883Y-95140452D01*
X175438468Y-95071216D01*
X175465410Y-95061247D01*
X175501488Y-95103621D01*
X175539483Y-95191417D01*
X175561562Y-95268626D01*
X175588717Y-95369588D01*
X175632813Y-95520106D01*
X175688669Y-95703047D01*
X175751102Y-95901278D01*
X175780703Y-95993186D01*
X175838507Y-96178278D01*
X175885520Y-96342387D01*
X175918452Y-96472881D01*
X175934013Y-96557127D01*
X175933613Y-96580300D01*
X175885112Y-96635656D01*
X175849358Y-96653684D01*
X175783231Y-96697158D01*
X175729729Y-96759048D01*
X175672171Y-96822479D01*
X175576534Y-96904669D01*
X175471884Y-96981916D01*
X175332511Y-97088086D01*
X175183894Y-97219649D01*
X175039805Y-97362389D01*
X174914016Y-97502094D01*
X174820300Y-97624550D01*
X174779255Y-97696732D01*
X174728640Y-97784550D01*
X174647255Y-97895116D01*
X174569391Y-97985947D01*
X174488602Y-98074682D01*
X174430999Y-98140954D01*
X174409073Y-98170387D01*
X174438554Y-98183829D01*
X174521458Y-98166018D01*
X174649476Y-98119260D01*
X174749376Y-98076054D01*
X174922705Y-97981045D01*
X175071644Y-97869141D01*
X175117484Y-97824288D01*
X175198080Y-97747210D01*
X175242578Y-97724866D01*
X175249978Y-97751123D01*
X175219281Y-97819847D01*
X175149488Y-97924905D01*
X175136665Y-97941999D01*
X175012213Y-98071064D01*
X174858487Y-98180083D01*
X174697579Y-98256152D01*
X174551583Y-98286371D01*
X174546839Y-98286441D01*
X174456045Y-98304011D01*
X174346071Y-98348266D01*
X174236541Y-98407982D01*
X174147080Y-98471938D01*
X174097314Y-98528911D01*
X174092890Y-98546029D01*
X174111240Y-98594087D01*
X174159506Y-98681524D01*
X174227520Y-98790015D01*
X174232423Y-98797421D01*
X174319040Y-98935343D01*
X174362727Y-99026277D01*
X174365567Y-99077184D01*
X174329643Y-99095027D01*
X174321529Y-99095283D01*
X174290945Y-99103447D01*
X174289510Y-99139714D01*
X174316862Y-99221749D01*
X174318849Y-99227026D01*
X174355297Y-99347859D01*
X174385123Y-99487402D01*
X174390980Y-99525643D01*
X174394387Y-99641224D01*
X174370939Y-99694117D01*
X174328992Y-99682048D01*
X174276901Y-99602744D01*
X174258961Y-99561560D01*
X174228542Y-99472001D01*
X174230061Y-99421862D01*
X174253965Y-99394686D01*
X174273864Y-99362739D01*
X174261582Y-99309439D01*
X174212562Y-99219966D01*
X174188263Y-99181104D01*
X174122566Y-99085551D01*
X174067453Y-99019070D01*
X174040193Y-98998405D01*
X174009960Y-98964178D01*
X173983521Y-98887596D01*
X173981700Y-98879142D01*
X173975552Y-98784351D01*
X174009998Y-98727347D01*
X174015505Y-98723112D01*
X174053220Y-98680877D01*
X174031773Y-98632187D01*
X174025783Y-98624811D01*
X173979879Y-98583787D01*
X173928674Y-98576505D01*
X173861732Y-98607728D01*
X173768618Y-98682217D01*
X173645331Y-98798452D01*
X173533922Y-98910652D01*
X173469664Y-98985648D01*
X173446466Y-99032088D01*
X173458237Y-99058617D01*
X173460868Y-99060364D01*
X173488772Y-99108608D01*
X173509408Y-99202096D01*
X173522208Y-99322080D01*
X173526600Y-99449814D01*
X173522014Y-99566551D01*
X173507881Y-99653544D01*
X173483629Y-99692045D01*
X173480099Y-99692517D01*
X173445082Y-99665503D01*
X173417482Y-99581493D01*
X173396332Y-99436033D01*
X173381394Y-99237966D01*
X173373975Y-99144449D01*
X173360551Y-99109803D01*
X173333161Y-99122663D01*
X173313726Y-99141355D01*
X173246982Y-99190235D01*
X173196179Y-99196786D01*
X173179474Y-99166018D01*
X173150108Y-99131997D01*
X173076792Y-99089316D01*
X173047731Y-99076320D01*
X172958334Y-99029063D01*
X172836637Y-98951867D01*
X172704879Y-98859091D01*
X172666477Y-98830184D01*
X172416964Y-98639084D01*
X172375494Y-98387970D01*
X172310911Y-98109002D01*
X172219798Y-97891125D01*
X172103113Y-97736449D01*
X172065566Y-97704431D01*
X171988045Y-97636726D01*
X171958604Y-97578481D01*
X171963311Y-97508671D01*
X171963400Y-97422596D01*
X171928492Y-97312462D01*
X171890121Y-97233319D01*
X172107966Y-97233319D01*
X172115931Y-97263395D01*
X172141024Y-97268451D01*
X172189092Y-97250109D01*
X172195795Y-97233319D01*
X172170580Y-97199193D01*
X172162737Y-97198188D01*
X172115157Y-97223725D01*
X172107966Y-97233319D01*
X171890121Y-97233319D01*
X171870200Y-97192231D01*
X171782115Y-97042110D01*
X171683136Y-96911508D01*
X171557275Y-96782083D01*
X171388541Y-96635491D01*
X171375612Y-96624852D01*
X171277117Y-96535372D01*
X171226814Y-96462748D01*
X171212140Y-96388537D01*
X171212116Y-96384787D01*
X171203659Y-96330440D01*
X171323839Y-96330440D01*
X171332356Y-96364739D01*
X171385468Y-96413727D01*
X171490448Y-96485896D01*
X171533659Y-96513665D01*
X171745860Y-96665506D01*
X171894069Y-96811220D01*
X171983605Y-96956199D01*
X171992451Y-96978617D01*
X172029632Y-97055232D01*
X172065487Y-97093514D01*
X172087905Y-97083144D01*
X172090401Y-97062079D01*
X172072195Y-96973743D01*
X172026125Y-96855794D01*
X171965009Y-96735906D01*
X171901666Y-96641754D01*
X171889241Y-96627801D01*
X171796204Y-96530691D01*
X171890605Y-96530691D01*
X171964331Y-96515183D01*
X171985007Y-96467455D01*
X171957069Y-96380529D01*
X171872099Y-96331939D01*
X171760082Y-96319903D01*
X171648706Y-96305942D01*
X171555508Y-96253876D01*
X171503622Y-96207617D01*
X171387773Y-96095331D01*
X171387773Y-96187978D01*
X171375746Y-96265058D01*
X171352641Y-96302337D01*
X171323839Y-96330440D01*
X171203659Y-96330440D01*
X171200175Y-96308055D01*
X171168202Y-96295018D01*
X171136615Y-96336779D01*
X171138314Y-96359426D01*
X171154574Y-96429456D01*
X171168650Y-96504343D01*
X171164846Y-96579774D01*
X171121088Y-96599945D01*
X171041023Y-96564690D01*
X170972603Y-96513126D01*
X170889124Y-96452424D01*
X170815063Y-96431028D01*
X170728458Y-96448907D01*
X170607348Y-96506028D01*
X170594952Y-96512589D01*
X170475915Y-96567311D01*
X170404002Y-96577314D01*
X170372129Y-96542582D01*
X170368962Y-96512093D01*
X170349738Y-96425101D01*
X170300813Y-96310569D01*
X170235306Y-96192297D01*
X170166339Y-96094084D01*
X170109166Y-96040826D01*
X170016547Y-96016246D01*
X169886476Y-96010804D01*
X169744972Y-96022232D01*
X169618057Y-96048263D01*
X169531750Y-96086633D01*
X169525696Y-96091651D01*
X169425220Y-96138886D01*
X169305421Y-96128679D01*
X169192913Y-96068377D01*
X169136780Y-96017036D01*
X169110749Y-95962104D01*
X169106990Y-95878082D01*
X169112020Y-95804892D01*
X169115289Y-95692411D01*
X169104220Y-95627593D01*
X169092387Y-95617275D01*
X169046170Y-95628423D01*
X168949757Y-95658475D01*
X168818990Y-95702340D01*
X168720617Y-95736721D01*
X168548554Y-95796176D01*
X168373677Y-95853942D01*
X168224133Y-95900812D01*
X168173250Y-95915714D01*
X167957133Y-95980029D01*
X167737633Y-96051052D01*
X167531122Y-96123003D01*
X167353975Y-96190101D01*
X167222563Y-96246565D01*
X167190576Y-96262654D01*
X167093687Y-96316902D01*
X167010961Y-96370716D01*
X166925046Y-96437258D01*
X166818591Y-96529691D01*
X166717286Y-96621676D01*
X166582573Y-96733503D01*
X166456947Y-96806492D01*
X166308459Y-96858840D01*
X166293720Y-96862931D01*
X165988281Y-96965383D01*
X165743265Y-97093071D01*
X165550993Y-97253944D01*
X165403789Y-97455947D01*
X165293971Y-97707028D01*
X165222973Y-97971079D01*
X165187642Y-98131891D01*
X165142277Y-98332253D01*
X165093436Y-98543438D01*
X165058558Y-98691272D01*
X165015352Y-98889805D01*
X164976954Y-99097717D01*
X164948184Y-99287111D01*
X164935633Y-99402683D01*
X164922580Y-99546581D01*
X164908010Y-99633765D01*
X164887819Y-99677740D01*
X164857901Y-99692007D01*
X164847527Y-99692517D01*
X164819298Y-99687990D01*
X164801655Y-99666432D01*
X164793256Y-99615879D01*
X164792759Y-99524366D01*
X164798819Y-99379927D01*
X164803176Y-99297289D01*
X164820871Y-99087451D01*
X164850404Y-98856089D01*
X164886726Y-98640045D01*
X164905515Y-98550747D01*
X164948961Y-98360753D01*
X164994950Y-98157186D01*
X165035701Y-97974560D01*
X165048074Y-97918382D01*
X165147449Y-97591449D01*
X165290733Y-97310521D01*
X165474591Y-97080476D01*
X165695690Y-96906195D01*
X165766749Y-96866550D01*
X165881714Y-96815121D01*
X166032180Y-96757408D01*
X166185902Y-96705766D01*
X166188326Y-96705022D01*
X166342898Y-96651152D01*
X166463060Y-96589203D01*
X166578773Y-96501507D01*
X166662600Y-96425345D01*
X166789499Y-96314843D01*
X166926902Y-96215748D01*
X167082993Y-96124589D01*
X167265957Y-96037893D01*
X167483976Y-95952188D01*
X167745235Y-95864004D01*
X168057916Y-95769868D01*
X168430205Y-95666309D01*
X168489433Y-95650355D01*
X168640754Y-95609149D01*
X168749654Y-95577201D01*
X168841739Y-95546191D01*
X168942617Y-95507801D01*
X169006650Y-95482319D01*
X169103067Y-95410149D01*
X169162292Y-95284160D01*
X169185285Y-95101540D01*
X169182323Y-94967344D01*
X169170686Y-94840256D01*
X169154606Y-94740793D01*
X169137502Y-94689935D01*
X169137005Y-94689376D01*
X169087359Y-94666459D01*
X168992773Y-94642470D01*
X168921118Y-94629865D01*
X168801180Y-94610965D01*
X168701087Y-94593185D01*
X168665090Y-94585656D01*
X168466528Y-94535384D01*
X168296517Y-94486645D01*
X168170056Y-94443956D01*
X168115977Y-94420359D01*
X167975520Y-94365644D01*
X167782369Y-94318758D01*
X167553845Y-94281649D01*
X167307271Y-94256267D01*
X167059967Y-94244560D01*
X166829258Y-94248476D01*
X166695016Y-94260499D01*
X166509026Y-94270517D01*
X166333247Y-94244796D01*
X166273439Y-94229157D01*
X166138158Y-94187607D01*
X166126668Y-94183779D01*
X169244758Y-94183779D01*
X169264136Y-94211304D01*
X169321814Y-94180744D01*
X169417105Y-94092468D01*
X169419904Y-94089586D01*
X169483949Y-94014304D01*
X169515259Y-93958534D01*
X169514098Y-93942678D01*
X169479214Y-93951472D01*
X169416274Y-93995852D01*
X169344047Y-94059018D01*
X169281299Y-94124171D01*
X169246800Y-94174511D01*
X169244758Y-94183779D01*
X166126668Y-94183779D01*
X165955681Y-94126812D01*
X165743819Y-94053190D01*
X165520386Y-93973155D01*
X165303194Y-93893125D01*
X165110055Y-93819515D01*
X164958782Y-93758742D01*
X164914054Y-93739495D01*
X164762282Y-93660677D01*
X164600896Y-93558218D01*
X164447319Y-93445115D01*
X164318973Y-93334367D01*
X164233281Y-93238974D01*
X164223746Y-93224463D01*
X164154541Y-93049511D01*
X164154158Y-93046103D01*
X164317392Y-93046103D01*
X164477153Y-93216901D01*
X164566320Y-93302547D01*
X164670350Y-93380706D01*
X164801627Y-93458596D01*
X164972535Y-93543433D01*
X165195460Y-93642436D01*
X165239778Y-93661346D01*
X165325975Y-93694440D01*
X165458103Y-93741091D01*
X165615013Y-93793951D01*
X165714052Y-93826165D01*
X165865519Y-93875834D01*
X165995193Y-93920435D01*
X166086291Y-93954079D01*
X166118063Y-93967926D01*
X166191833Y-93994125D01*
X166265765Y-93981174D01*
X166356365Y-93923268D01*
X166415074Y-93873133D01*
X169350152Y-93873133D01*
X169370009Y-93873972D01*
X169418055Y-93838010D01*
X169477004Y-93782009D01*
X169529571Y-93722731D01*
X169538237Y-93708998D01*
X170033876Y-93708998D01*
X170045016Y-93720180D01*
X170087698Y-93696837D01*
X170135792Y-93653556D01*
X171247247Y-93653556D01*
X171269209Y-93683366D01*
X171334567Y-93658777D01*
X171409384Y-93606485D01*
X171498132Y-93529351D01*
X171571771Y-93452145D01*
X171573129Y-93450471D01*
X171640827Y-93385601D01*
X171696089Y-93353737D01*
X171757573Y-93304002D01*
X171820736Y-93204587D01*
X171876285Y-93075216D01*
X171914927Y-92935609D01*
X171925035Y-92867816D01*
X171949610Y-92751486D01*
X171998784Y-92604551D01*
X172062313Y-92457416D01*
X172065538Y-92450890D01*
X172189736Y-92201264D01*
X172122634Y-92091220D01*
X172077470Y-92001895D01*
X172055741Y-91928947D01*
X172055401Y-91922623D01*
X172032760Y-91862122D01*
X171971448Y-91853786D01*
X171880802Y-91898473D01*
X171870830Y-91905636D01*
X171806069Y-91964911D01*
X171779592Y-92030704D01*
X171789053Y-92122168D01*
X171828745Y-92249027D01*
X171861499Y-92367475D01*
X171860696Y-92469220D01*
X171841932Y-92551393D01*
X171805662Y-92652613D01*
X171764781Y-92726549D01*
X171752274Y-92740135D01*
X171715593Y-92803583D01*
X171703955Y-92874301D01*
X171693141Y-92956958D01*
X171672773Y-93001743D01*
X171638540Y-93059933D01*
X171616607Y-93117631D01*
X171605840Y-93176081D01*
X171635758Y-93184833D01*
X171667900Y-93175936D01*
X171717213Y-93163616D01*
X171725245Y-93181743D01*
X171695869Y-93245116D01*
X171689319Y-93257807D01*
X171630438Y-93338214D01*
X171563765Y-93386284D01*
X171561507Y-93387042D01*
X171493018Y-93422664D01*
X171407586Y-93484409D01*
X171325069Y-93555436D01*
X171265321Y-93618906D01*
X171247247Y-93653556D01*
X170135792Y-93653556D01*
X170150985Y-93639883D01*
X170158174Y-93632351D01*
X170206702Y-93570239D01*
X170198894Y-93546122D01*
X170190646Y-93545627D01*
X170147429Y-93566176D01*
X170096014Y-93613296D01*
X170052723Y-93667424D01*
X170033876Y-93708998D01*
X169538237Y-93708998D01*
X169558467Y-93676937D01*
X169559964Y-93669693D01*
X169538711Y-93670613D01*
X169484049Y-93711637D01*
X169455546Y-93737745D01*
X169389554Y-93808600D01*
X169352843Y-93862835D01*
X169350152Y-93873133D01*
X166415074Y-93873133D01*
X166434246Y-93856761D01*
X166553110Y-93748000D01*
X166572342Y-93730073D01*
X168933262Y-93730073D01*
X168970678Y-93721471D01*
X169279889Y-93721471D01*
X169302027Y-93723383D01*
X169360637Y-93682622D01*
X169444008Y-93607658D01*
X169462656Y-93589273D01*
X169529043Y-93518859D01*
X169949161Y-93518859D01*
X169961389Y-93538821D01*
X170021815Y-93516283D01*
X171106722Y-93516283D01*
X171117537Y-93541403D01*
X171156683Y-93528574D01*
X171234209Y-93473501D01*
X171266689Y-93447911D01*
X171343300Y-93374887D01*
X171385282Y-93311150D01*
X171385308Y-93270718D01*
X171363097Y-93263471D01*
X171322664Y-93286809D01*
X171256743Y-93343627D01*
X171185405Y-93414134D01*
X171128721Y-93478538D01*
X171106722Y-93516283D01*
X170021815Y-93516283D01*
X170023225Y-93515757D01*
X170123043Y-93449876D01*
X170123096Y-93449834D01*
X170579751Y-93449834D01*
X170600530Y-93473506D01*
X170660347Y-93443108D01*
X170729418Y-93385010D01*
X170800296Y-93307184D01*
X170825690Y-93251509D01*
X170808002Y-93234947D01*
X171141853Y-93234947D01*
X171148607Y-93258472D01*
X171178537Y-93254854D01*
X171246141Y-93219892D01*
X171297936Y-93189739D01*
X171376442Y-93131958D01*
X171419866Y-93077731D01*
X171422904Y-93064705D01*
X171416195Y-93035716D01*
X171388169Y-93037043D01*
X171326983Y-93073269D01*
X171238464Y-93136082D01*
X171173031Y-93191307D01*
X171142204Y-93232257D01*
X171141853Y-93234947D01*
X170808002Y-93234947D01*
X170801075Y-93228461D01*
X170797112Y-93228340D01*
X170756085Y-93252123D01*
X170692868Y-93308771D01*
X170629101Y-93376232D01*
X170586425Y-93432456D01*
X170579751Y-93449834D01*
X170123096Y-93449834D01*
X170214800Y-93377276D01*
X170278366Y-93319151D01*
X170298699Y-93291104D01*
X170275811Y-93263964D01*
X170209708Y-93287492D01*
X170104234Y-93360175D01*
X170085851Y-93374745D01*
X169989622Y-93462093D01*
X169949161Y-93518859D01*
X169529043Y-93518859D01*
X169548173Y-93498568D01*
X169606140Y-93426898D01*
X169625695Y-93387913D01*
X169624622Y-93385706D01*
X169589739Y-93395208D01*
X169525097Y-93443231D01*
X169446265Y-93514610D01*
X169368813Y-93594181D01*
X169308310Y-93666779D01*
X169280327Y-93717239D01*
X169279889Y-93721471D01*
X168970678Y-93721471D01*
X168974462Y-93720601D01*
X169025186Y-93687152D01*
X169090975Y-93637792D01*
X169198436Y-93557918D01*
X169332621Y-93458615D01*
X169476877Y-93352223D01*
X169582007Y-93271723D01*
X170017648Y-93271723D01*
X170028893Y-93284063D01*
X170067073Y-93264204D01*
X170138855Y-93207152D01*
X170166868Y-93182343D01*
X170650013Y-93182343D01*
X170673215Y-93199976D01*
X170734805Y-93175333D01*
X170822763Y-93115087D01*
X170915539Y-93034988D01*
X170988682Y-92960776D01*
X171246141Y-92960776D01*
X171263160Y-92982420D01*
X171303634Y-92969460D01*
X171360996Y-92945093D01*
X171425008Y-92891407D01*
X171496324Y-92797818D01*
X171558463Y-92690540D01*
X171594943Y-92595785D01*
X171598659Y-92567117D01*
X171621547Y-92505873D01*
X171651258Y-92467996D01*
X171694301Y-92411096D01*
X171703955Y-92382677D01*
X171684043Y-92350388D01*
X171630174Y-92369859D01*
X171551153Y-92437095D01*
X171526318Y-92463279D01*
X171451848Y-92552720D01*
X171419989Y-92617835D01*
X171419630Y-92677679D01*
X171402209Y-92720770D01*
X171352660Y-92791640D01*
X171335962Y-92812117D01*
X171271584Y-92900074D01*
X171246141Y-92960776D01*
X170988682Y-92960776D01*
X170997522Y-92951807D01*
X171050063Y-92887145D01*
X171061806Y-92855531D01*
X171029964Y-92868329D01*
X170961875Y-92914398D01*
X170874067Y-92980622D01*
X170783066Y-93053883D01*
X170705399Y-93121066D01*
X170657594Y-93169054D01*
X170650013Y-93182343D01*
X170166868Y-93182343D01*
X170250909Y-93107915D01*
X170316265Y-93048149D01*
X170446038Y-92928272D01*
X170516156Y-92861997D01*
X170825670Y-92861997D01*
X170849521Y-92859894D01*
X170910924Y-92822925D01*
X170994660Y-92762613D01*
X171085506Y-92690479D01*
X171168242Y-92618044D01*
X171225637Y-92559243D01*
X171292442Y-92468502D01*
X171318377Y-92407030D01*
X171300248Y-92385187D01*
X171265333Y-92404826D01*
X171192316Y-92455781D01*
X171116373Y-92512365D01*
X171011115Y-92603825D01*
X170918000Y-92704033D01*
X170851397Y-92795711D01*
X170825673Y-92861577D01*
X170825670Y-92861997D01*
X170516156Y-92861997D01*
X170531830Y-92847182D01*
X170581652Y-92796403D01*
X170603514Y-92767460D01*
X170605429Y-92751878D01*
X170601424Y-92746463D01*
X170566054Y-92756731D01*
X170494417Y-92805843D01*
X170399278Y-92882316D01*
X170293398Y-92974665D01*
X170189541Y-93071406D01*
X170100472Y-93161057D01*
X170038952Y-93232131D01*
X170017648Y-93271723D01*
X169582007Y-93271723D01*
X169671997Y-93202816D01*
X169810988Y-93082210D01*
X169899097Y-92985003D01*
X169908141Y-92968137D01*
X170150939Y-92968137D01*
X170160065Y-92982325D01*
X170215297Y-92958632D01*
X170293289Y-92898423D01*
X170333321Y-92859987D01*
X170410379Y-92773907D01*
X170435277Y-92731412D01*
X170411544Y-92733242D01*
X170342708Y-92780136D01*
X170263568Y-92845358D01*
X170185736Y-92919591D01*
X170150939Y-92968137D01*
X169908141Y-92968137D01*
X169941573Y-92905793D01*
X169947386Y-92867959D01*
X169968902Y-92820443D01*
X170025868Y-92736917D01*
X170067592Y-92683803D01*
X170474356Y-92683803D01*
X170491922Y-92701369D01*
X170509488Y-92683803D01*
X170491922Y-92666238D01*
X170474356Y-92683803D01*
X170067592Y-92683803D01*
X170106908Y-92633755D01*
X170125163Y-92612020D01*
X170302941Y-92402752D01*
X170286715Y-92191964D01*
X170265794Y-91996967D01*
X170237621Y-91844266D01*
X170204599Y-91739535D01*
X170169134Y-91688451D01*
X170133630Y-91696691D01*
X170103583Y-91759670D01*
X170065376Y-91838576D01*
X169993483Y-91953590D01*
X169900063Y-92087577D01*
X169797278Y-92223402D01*
X169697287Y-92343928D01*
X169659691Y-92385187D01*
X169535139Y-92523932D01*
X169448988Y-92635082D01*
X169406390Y-92711454D01*
X169405141Y-92740209D01*
X169446428Y-92756514D01*
X169497145Y-92732399D01*
X169525434Y-92684299D01*
X169525809Y-92677971D01*
X169540130Y-92642001D01*
X169553140Y-92643851D01*
X169602216Y-92636947D01*
X169672659Y-92585019D01*
X169748098Y-92502314D01*
X169795633Y-92432857D01*
X169843832Y-92363432D01*
X169916073Y-92272082D01*
X169998797Y-92174374D01*
X170078444Y-92085876D01*
X170141455Y-92022154D01*
X170173771Y-91998741D01*
X170178319Y-92024037D01*
X170146431Y-92092071D01*
X170085998Y-92191063D01*
X170004907Y-92309234D01*
X169911048Y-92434804D01*
X169812311Y-92555994D01*
X169763471Y-92611382D01*
X169716690Y-92673105D01*
X169701466Y-92709416D01*
X169679477Y-92762794D01*
X169621184Y-92851731D01*
X169538101Y-92960302D01*
X169441739Y-93072583D01*
X169428532Y-93086951D01*
X169355056Y-93177420D01*
X169303819Y-93261026D01*
X169293561Y-93287509D01*
X169246554Y-93355178D01*
X169171266Y-93399858D01*
X169090560Y-93449523D01*
X169069101Y-93502119D01*
X169044368Y-93575159D01*
X168998838Y-93632351D01*
X168939887Y-93697535D01*
X168933262Y-93730073D01*
X166572342Y-93730073D01*
X166684537Y-93625490D01*
X166754650Y-93559083D01*
X166844811Y-93478497D01*
X166865064Y-93463120D01*
X168833203Y-93463120D01*
X168872543Y-93451410D01*
X168956415Y-93391015D01*
X169084151Y-93279137D01*
X169164235Y-93203042D01*
X169299657Y-93064742D01*
X169398061Y-92950102D01*
X169455068Y-92865262D01*
X169466300Y-92816364D01*
X169446749Y-92806763D01*
X169404840Y-92830585D01*
X169326779Y-92895056D01*
X169224594Y-92989685D01*
X169134560Y-93079032D01*
X168989075Y-93234100D01*
X168890800Y-93351668D01*
X168839066Y-93428940D01*
X168833203Y-93463120D01*
X166865064Y-93463120D01*
X166918666Y-93422422D01*
X166956656Y-93403997D01*
X166984273Y-93383823D01*
X167769239Y-93383823D01*
X167781494Y-93403527D01*
X167821786Y-93385173D01*
X167895409Y-93324687D01*
X168007653Y-93217998D01*
X168085421Y-93140512D01*
X168187921Y-93033572D01*
X168242721Y-92971023D01*
X168978205Y-92971023D01*
X169000041Y-92981683D01*
X169052310Y-92952416D01*
X169125003Y-92887712D01*
X169170632Y-92837985D01*
X169234385Y-92757058D01*
X169269532Y-92698755D01*
X169271654Y-92681424D01*
X169235923Y-92689582D01*
X169171542Y-92733926D01*
X169097081Y-92798614D01*
X169031109Y-92867798D01*
X168996810Y-92915947D01*
X168978205Y-92971023D01*
X168242721Y-92971023D01*
X168263330Y-92947499D01*
X168274188Y-92932520D01*
X168717787Y-92932520D01*
X168740927Y-92931470D01*
X168800710Y-92893838D01*
X168882682Y-92831271D01*
X168972386Y-92755415D01*
X169055369Y-92677916D01*
X169116446Y-92611337D01*
X169124673Y-92600122D01*
X169315020Y-92600122D01*
X169336666Y-92619169D01*
X169350152Y-92613541D01*
X169383972Y-92567002D01*
X169385283Y-92556697D01*
X169363638Y-92537650D01*
X169350152Y-92543278D01*
X169316332Y-92589817D01*
X169315020Y-92600122D01*
X169124673Y-92600122D01*
X169173111Y-92534091D01*
X169202110Y-92482218D01*
X169202712Y-92471956D01*
X169174095Y-92488639D01*
X169109673Y-92542590D01*
X169022929Y-92621004D01*
X168927349Y-92711073D01*
X168836415Y-92799992D01*
X168763611Y-92874954D01*
X168722421Y-92923153D01*
X168717787Y-92932520D01*
X168274188Y-92932520D01*
X168303358Y-92892279D01*
X168304113Y-92877026D01*
X168263936Y-92899602D01*
X168261078Y-92912157D01*
X168233033Y-92944218D01*
X168213729Y-92947289D01*
X168172870Y-92970851D01*
X168099809Y-93031816D01*
X168009396Y-93115602D01*
X167916477Y-93207627D01*
X167835899Y-93293310D01*
X167782512Y-93358068D01*
X167769239Y-93383823D01*
X166984273Y-93383823D01*
X166994069Y-93376667D01*
X166996348Y-93363010D01*
X167010450Y-93339389D01*
X167019464Y-93345140D01*
X167061707Y-93346125D01*
X167089727Y-93329128D01*
X167129072Y-93308020D01*
X167136874Y-93329433D01*
X167165239Y-93364438D01*
X167189307Y-93368866D01*
X167224971Y-93351300D01*
X167382794Y-93351300D01*
X167400359Y-93368866D01*
X167417925Y-93351300D01*
X167400359Y-93333734D01*
X167382794Y-93351300D01*
X167224971Y-93351300D01*
X167240289Y-93343755D01*
X167322656Y-93277207D01*
X167423584Y-93182395D01*
X167498331Y-93105380D01*
X167593582Y-93105380D01*
X167611148Y-93122946D01*
X167628713Y-93105380D01*
X167611148Y-93087814D01*
X167593582Y-93105380D01*
X167498331Y-93105380D01*
X167530250Y-93072492D01*
X167629830Y-92960672D01*
X167709500Y-92860109D01*
X167754454Y-92788299D01*
X167820198Y-92693051D01*
X167914258Y-92602226D01*
X167938719Y-92584265D01*
X168015339Y-92524768D01*
X168126356Y-92429218D01*
X168256420Y-92311187D01*
X168380183Y-92193948D01*
X168500426Y-92080195D01*
X168602209Y-91988971D01*
X168675370Y-91929025D01*
X168709746Y-91909102D01*
X168710569Y-91909551D01*
X168692923Y-91939003D01*
X168632948Y-92009987D01*
X168538028Y-92114380D01*
X168415546Y-92244057D01*
X168275283Y-92388461D01*
X168128506Y-92537767D01*
X167997119Y-92671607D01*
X167889740Y-92781187D01*
X167814988Y-92857711D01*
X167782248Y-92891565D01*
X167752905Y-92950672D01*
X167726461Y-93048800D01*
X167719220Y-93089862D01*
X167695881Y-93245906D01*
X168013611Y-92915719D01*
X168132201Y-92790307D01*
X168230678Y-92682025D01*
X168299869Y-92601269D01*
X168330601Y-92558437D01*
X168331341Y-92555622D01*
X168358377Y-92526708D01*
X168367657Y-92525712D01*
X168414121Y-92503011D01*
X168483908Y-92446705D01*
X168502464Y-92429101D01*
X168582351Y-92351916D01*
X168687451Y-92251867D01*
X168769678Y-92174398D01*
X168857712Y-92092941D01*
X168901654Y-92057157D01*
X168908229Y-92064193D01*
X168884161Y-92111197D01*
X168873216Y-92130484D01*
X168822984Y-92204785D01*
X168781746Y-92243205D01*
X168775779Y-92244661D01*
X168733251Y-92268708D01*
X168670123Y-92327910D01*
X168657982Y-92341272D01*
X168537050Y-92480496D01*
X168437213Y-92600557D01*
X168366509Y-92691423D01*
X168332979Y-92743062D01*
X168331341Y-92748902D01*
X168350503Y-92773710D01*
X168409415Y-92751126D01*
X168510217Y-92679765D01*
X168655048Y-92558243D01*
X168731887Y-92489777D01*
X168887739Y-92352114D01*
X168994588Y-92264520D01*
X169052373Y-92226651D01*
X169061033Y-92238160D01*
X169020507Y-92298704D01*
X168930733Y-92407937D01*
X168791649Y-92565514D01*
X168752918Y-92608296D01*
X168668911Y-92704558D01*
X168631073Y-92756624D01*
X168634386Y-92768430D01*
X168673831Y-92743910D01*
X168744388Y-92686999D01*
X168841038Y-92601633D01*
X168958762Y-92491747D01*
X169092542Y-92361275D01*
X169178672Y-92274499D01*
X169317919Y-92135457D01*
X169442978Y-92016125D01*
X169544581Y-91924917D01*
X169613460Y-91870244D01*
X169637271Y-91858216D01*
X169689913Y-91834548D01*
X169766235Y-91774490D01*
X169806350Y-91735782D01*
X169877150Y-91667272D01*
X169925703Y-91628744D01*
X169937084Y-91625415D01*
X169932413Y-91666150D01*
X169892538Y-91746295D01*
X169826968Y-91851059D01*
X169745214Y-91965652D01*
X169656784Y-92075284D01*
X169624881Y-92110976D01*
X169541264Y-92205121D01*
X169480753Y-92280243D01*
X169455658Y-92320990D01*
X169455546Y-92322131D01*
X169469459Y-92349583D01*
X169513638Y-92330014D01*
X169591747Y-92260586D01*
X169707446Y-92138463D01*
X169741653Y-92100508D01*
X169849351Y-91980395D01*
X169948216Y-91870562D01*
X170022725Y-91788239D01*
X170043997Y-91764949D01*
X170111042Y-91667377D01*
X170113554Y-91592114D01*
X170074353Y-91552562D01*
X170040488Y-91502949D01*
X170012243Y-91410879D01*
X170004571Y-91366376D01*
X169988157Y-91246194D01*
X169966724Y-91092961D01*
X169948348Y-90963843D01*
X169913215Y-90719401D01*
X170079609Y-90571755D01*
X170185945Y-90488316D01*
X170255650Y-90456559D01*
X170284940Y-90475855D01*
X170270028Y-90545580D01*
X170244844Y-90599100D01*
X170184231Y-90716972D01*
X170152114Y-90789628D01*
X170143316Y-90833516D01*
X170152658Y-90865088D01*
X170158148Y-90874494D01*
X170173001Y-90946094D01*
X170167698Y-90970653D01*
X170167619Y-91027767D01*
X170187150Y-91120128D01*
X170219002Y-91225532D01*
X170255887Y-91321772D01*
X170290514Y-91386643D01*
X170309126Y-91401507D01*
X170351831Y-91377110D01*
X170406076Y-91322462D01*
X170452948Y-91274390D01*
X170471512Y-91282046D01*
X170473188Y-91299521D01*
X170452279Y-91365094D01*
X170404094Y-91436639D01*
X170355853Y-91501051D01*
X170339191Y-91560899D01*
X170355169Y-91636360D01*
X170404850Y-91747609D01*
X170422293Y-91782646D01*
X170502851Y-92019389D01*
X170523413Y-92180761D01*
X170526730Y-92312561D01*
X170514341Y-92401503D01*
X170480473Y-92474287D01*
X170450729Y-92516929D01*
X170404188Y-92586932D01*
X170389201Y-92626398D01*
X170393523Y-92629711D01*
X170438523Y-92606041D01*
X170509661Y-92548094D01*
X170591226Y-92471492D01*
X170625186Y-92436039D01*
X170988065Y-92436039D01*
X170997582Y-92457909D01*
X171042200Y-92442844D01*
X171111524Y-92393666D01*
X171176474Y-92333016D01*
X171203723Y-92301483D01*
X171482321Y-92301483D01*
X171483930Y-92306394D01*
X171523113Y-92345421D01*
X171574144Y-92332863D01*
X171615878Y-92279166D01*
X171627243Y-92235578D01*
X171622381Y-92162052D01*
X171595985Y-92139267D01*
X171537269Y-92168493D01*
X171491870Y-92233768D01*
X171482321Y-92301483D01*
X171203723Y-92301483D01*
X171241065Y-92258271D01*
X171273755Y-92203883D01*
X171273597Y-92189038D01*
X171232647Y-92192352D01*
X171163898Y-92235228D01*
X171085570Y-92304132D01*
X171024043Y-92374411D01*
X170988065Y-92436039D01*
X170625186Y-92436039D01*
X170667505Y-92391859D01*
X170722789Y-92324817D01*
X170741364Y-92285992D01*
X170740724Y-92284456D01*
X170735625Y-92233804D01*
X170744788Y-92140688D01*
X170755060Y-92081681D01*
X170769395Y-91994913D01*
X170768980Y-91922787D01*
X170749164Y-91844859D01*
X170705299Y-91740687D01*
X170652271Y-91629861D01*
X170585663Y-91479086D01*
X170530654Y-91328894D01*
X170496876Y-91206323D01*
X170492708Y-91181936D01*
X170467280Y-91067898D01*
X170431579Y-91017221D01*
X170421334Y-91015062D01*
X170391639Y-91001612D01*
X170396422Y-90949991D01*
X170409358Y-90909668D01*
X170463423Y-90825615D01*
X170541144Y-90806831D01*
X170608029Y-90834426D01*
X170637796Y-90881517D01*
X170672102Y-90977310D01*
X170703616Y-91101256D01*
X170704151Y-91103806D01*
X170740371Y-91249734D01*
X170784217Y-91388569D01*
X170820332Y-91477309D01*
X170859702Y-91567664D01*
X170864759Y-91625866D01*
X170837696Y-91679798D01*
X170836395Y-91681665D01*
X170805333Y-91743493D01*
X170821362Y-91800569D01*
X170841244Y-91830901D01*
X170883559Y-91920783D01*
X170895933Y-91988992D01*
X170908146Y-92051191D01*
X170928697Y-92069004D01*
X170964344Y-92098006D01*
X170983842Y-92139521D01*
X171001726Y-92180465D01*
X171028500Y-92180368D01*
X171081032Y-92134997D01*
X171107866Y-92108396D01*
X171148262Y-92062731D01*
X171430850Y-92062731D01*
X171439813Y-92097860D01*
X171484971Y-92100359D01*
X171541531Y-92072485D01*
X171564134Y-92050589D01*
X171590139Y-91996448D01*
X171584317Y-91972786D01*
X171539191Y-91969157D01*
X171479295Y-92001824D01*
X171434822Y-92053092D01*
X171430850Y-92062731D01*
X171148262Y-92062731D01*
X171171923Y-92035984D01*
X171191563Y-91976280D01*
X171176445Y-91897129D01*
X171173896Y-91888570D01*
X171165887Y-91858688D01*
X171703955Y-91858688D01*
X171727187Y-91890466D01*
X171788074Y-91877119D01*
X171873403Y-91821992D01*
X171884289Y-91813038D01*
X171945112Y-91747703D01*
X171991512Y-91673919D01*
X172014190Y-91611215D01*
X172003845Y-91579125D01*
X171996157Y-91578115D01*
X171951915Y-91602045D01*
X171881497Y-91659904D01*
X171804108Y-91733247D01*
X171738955Y-91803635D01*
X171705245Y-91852623D01*
X171703955Y-91858688D01*
X171165887Y-91858688D01*
X171146976Y-91788136D01*
X171111362Y-91640081D01*
X171071927Y-91465728D01*
X171033544Y-91286395D01*
X171012388Y-91181936D01*
X171011988Y-91106521D01*
X171040607Y-91086578D01*
X171082298Y-91123593D01*
X171106722Y-91173153D01*
X171149814Y-91238581D01*
X171194550Y-91260982D01*
X171248740Y-91293193D01*
X171291176Y-91378466D01*
X171314846Y-91499761D01*
X171317510Y-91559812D01*
X171327392Y-91646804D01*
X171351445Y-91699080D01*
X171354070Y-91701007D01*
X171374874Y-91748369D01*
X171369269Y-91790909D01*
X171360923Y-91845631D01*
X171392269Y-91852802D01*
X171460345Y-91821848D01*
X171500070Y-91787142D01*
X171520891Y-91725019D01*
X171528036Y-91616713D01*
X171528298Y-91578002D01*
X171536953Y-91445943D01*
X171560408Y-91362475D01*
X171594900Y-91334770D01*
X171636665Y-91370002D01*
X171637082Y-91370658D01*
X171658938Y-91438597D01*
X171668286Y-91533250D01*
X171674247Y-91611016D01*
X171688042Y-91647112D01*
X171689588Y-91647427D01*
X171725712Y-91626413D01*
X171796343Y-91572408D01*
X171830072Y-91544364D01*
X172066686Y-91544364D01*
X172099184Y-91560747D01*
X172147783Y-91611168D01*
X172160664Y-91665839D01*
X172176976Y-91755132D01*
X172218325Y-91876899D01*
X172273327Y-92003525D01*
X172330598Y-92107395D01*
X172357445Y-92143190D01*
X172380188Y-92179062D01*
X172380951Y-92225523D01*
X172356007Y-92298572D01*
X172301633Y-92414206D01*
X172287918Y-92441807D01*
X172205008Y-92614348D01*
X172154745Y-92736453D01*
X172133816Y-92818052D01*
X172138912Y-92869074D01*
X172142904Y-92876712D01*
X172181504Y-92909612D01*
X172225288Y-92882090D01*
X172276900Y-92797980D01*
X172325315Y-92706280D01*
X172364350Y-92635628D01*
X172366992Y-92631106D01*
X172452011Y-92473419D01*
X172514313Y-92330441D01*
X172548682Y-92216302D01*
X172549898Y-92145134D01*
X172547992Y-92140917D01*
X172535060Y-92060159D01*
X172552526Y-91938886D01*
X172554629Y-91930406D01*
X172575121Y-91833179D01*
X172570412Y-91780010D01*
X172537747Y-91748380D01*
X172531971Y-91745048D01*
X172488078Y-91690489D01*
X172492126Y-91626462D01*
X172494701Y-91557524D01*
X172468400Y-91542033D01*
X172416319Y-91515130D01*
X172379605Y-91471770D01*
X172308188Y-91411125D01*
X172214682Y-91414062D01*
X172120641Y-91469160D01*
X172067259Y-91518022D01*
X172066686Y-91544364D01*
X171830072Y-91544364D01*
X171854003Y-91524467D01*
X171938371Y-91455834D01*
X172001268Y-91411202D01*
X172022070Y-91401507D01*
X172045782Y-91370790D01*
X172070113Y-91295625D01*
X172088818Y-91201491D01*
X172095651Y-91113865D01*
X172095267Y-91102891D01*
X172124271Y-91035500D01*
X172211486Y-90957480D01*
X172347210Y-90876213D01*
X172464949Y-90821735D01*
X172543458Y-90780943D01*
X172569191Y-90736266D01*
X172562592Y-90685522D01*
X172561215Y-90611963D01*
X172611234Y-90553919D01*
X172632964Y-90538851D01*
X172693572Y-90493420D01*
X172700355Y-90457927D01*
X172666931Y-90414361D01*
X172628694Y-90348425D01*
X172626736Y-90304960D01*
X172664125Y-90270280D01*
X172749967Y-90214098D01*
X172869517Y-90145628D01*
X172948127Y-90104103D01*
X173083251Y-90032175D01*
X173196195Y-89967173D01*
X173270971Y-89918543D01*
X173290118Y-89902097D01*
X173313652Y-89863461D01*
X173286537Y-89863201D01*
X173205689Y-89901893D01*
X173161908Y-89925989D01*
X173043855Y-89979049D01*
X172954125Y-89993604D01*
X172904520Y-89968867D01*
X172898423Y-89943554D01*
X172883925Y-89894363D01*
X172872074Y-89886930D01*
X172723292Y-89869843D01*
X172639424Y-89872875D01*
X172617372Y-89891284D01*
X172588910Y-89922076D01*
X172564675Y-89925989D01*
X172520486Y-89902553D01*
X172516362Y-89854933D01*
X172553021Y-89817155D01*
X172562317Y-89814388D01*
X172583682Y-89803029D01*
X172955981Y-89803029D01*
X172956785Y-89847862D01*
X173009412Y-89847687D01*
X173102496Y-89807209D01*
X173441245Y-89807209D01*
X173447096Y-89820595D01*
X173500208Y-89801164D01*
X173550422Y-89769015D01*
X173589336Y-89730821D01*
X173583485Y-89717435D01*
X173530373Y-89736866D01*
X173480159Y-89769015D01*
X173441245Y-89807209D01*
X173102496Y-89807209D01*
X173103791Y-89806646D01*
X173181525Y-89767676D01*
X173298866Y-89711035D01*
X173431585Y-89648405D01*
X173442960Y-89643105D01*
X173571734Y-89581063D01*
X173682886Y-89523778D01*
X173754445Y-89482621D01*
X173759142Y-89479437D01*
X173801301Y-89447095D01*
X173788371Y-89441434D01*
X173724011Y-89455313D01*
X173619259Y-89490858D01*
X173541843Y-89530087D01*
X173452161Y-89562131D01*
X173349171Y-89568444D01*
X173260374Y-89572125D01*
X173228330Y-89601023D01*
X173220125Y-89674323D01*
X173218997Y-89684460D01*
X173184618Y-89708386D01*
X173107465Y-89702555D01*
X173035560Y-89695985D01*
X173020995Y-89714509D01*
X173021710Y-89715729D01*
X173020588Y-89747812D01*
X173009649Y-89750332D01*
X172969378Y-89778340D01*
X172955981Y-89803029D01*
X172583682Y-89803029D01*
X172594309Y-89797379D01*
X172578263Y-89757165D01*
X172563639Y-89736642D01*
X172523718Y-89693206D01*
X172482129Y-89694934D01*
X172426707Y-89727859D01*
X172346458Y-89769844D01*
X172287787Y-89785463D01*
X172234625Y-89802705D01*
X172225071Y-89815031D01*
X172189532Y-89845489D01*
X172109517Y-89893991D01*
X172027530Y-89937240D01*
X171920743Y-89987086D01*
X171859643Y-90004381D01*
X171829283Y-89992080D01*
X171821766Y-89977935D01*
X171797724Y-89939351D01*
X171758203Y-89932310D01*
X171690795Y-89960094D01*
X171583090Y-90025985D01*
X171544826Y-90051176D01*
X171421023Y-90125408D01*
X171324239Y-90160738D01*
X171229841Y-90165896D01*
X171222689Y-90165353D01*
X171128878Y-90147425D01*
X171098797Y-90112981D01*
X171099662Y-90105259D01*
X171095315Y-90078267D01*
X171053795Y-90093561D01*
X171020616Y-90114042D01*
X170893995Y-90195980D01*
X170815524Y-90245165D01*
X170773812Y-90266146D01*
X170757466Y-90263474D01*
X170755094Y-90241698D01*
X170755648Y-90219863D01*
X170783033Y-90163996D01*
X170849231Y-90095336D01*
X170930780Y-90033625D01*
X170972314Y-90013817D01*
X171141853Y-90013817D01*
X171159419Y-90031383D01*
X171176984Y-90013817D01*
X171159419Y-89996252D01*
X171141853Y-90013817D01*
X170972314Y-90013817D01*
X171004215Y-89998603D01*
X171021426Y-89996252D01*
X171066685Y-89975446D01*
X171129804Y-89925680D01*
X171190854Y-89865931D01*
X171229906Y-89815175D01*
X171233078Y-89794715D01*
X171194052Y-89798499D01*
X171126103Y-89833744D01*
X171124751Y-89834626D01*
X171059979Y-89871389D01*
X171028345Y-89866109D01*
X171014835Y-89840254D01*
X170993193Y-89807568D01*
X170952169Y-89811623D01*
X170892982Y-89839686D01*
X170802001Y-89896671D01*
X170697797Y-89975390D01*
X170666873Y-90001584D01*
X170580891Y-90065570D01*
X170525234Y-90085140D01*
X170508350Y-90060715D01*
X170537166Y-89995130D01*
X170571964Y-89903684D01*
X170579751Y-89842939D01*
X170601308Y-89758145D01*
X170634047Y-89713873D01*
X170671105Y-89656789D01*
X170671103Y-89656648D01*
X171329220Y-89656648D01*
X171334043Y-89677534D01*
X171352641Y-89680069D01*
X171381559Y-89667215D01*
X171376062Y-89656648D01*
X171334370Y-89652443D01*
X171329220Y-89656648D01*
X170671103Y-89656648D01*
X170670764Y-89627372D01*
X170966196Y-89627372D01*
X170983762Y-89644938D01*
X171001327Y-89627372D01*
X171985007Y-89627372D01*
X172002572Y-89644938D01*
X172020138Y-89627372D01*
X172301189Y-89627372D01*
X172318755Y-89644938D01*
X172336321Y-89627372D01*
X172318755Y-89609806D01*
X172301189Y-89627372D01*
X172020138Y-89627372D01*
X172002572Y-89609806D01*
X171985007Y-89627372D01*
X171001327Y-89627372D01*
X170983762Y-89609806D01*
X170966196Y-89627372D01*
X170670764Y-89627372D01*
X170670712Y-89622868D01*
X170674422Y-89568805D01*
X170686679Y-89556161D01*
X170717724Y-89561995D01*
X170720276Y-89575835D01*
X170746065Y-89588614D01*
X170817402Y-89559237D01*
X170834453Y-89549591D01*
X170908907Y-89495031D01*
X170947240Y-89445294D01*
X170948630Y-89437402D01*
X170977217Y-89395879D01*
X171050135Y-89340433D01*
X171103893Y-89308851D01*
X171197844Y-89254541D01*
X171263573Y-89209048D01*
X171279550Y-89193196D01*
X171319342Y-89158990D01*
X171400736Y-89104788D01*
X171475601Y-89060022D01*
X171612796Y-88981499D01*
X171764499Y-88894705D01*
X171835192Y-88854272D01*
X171949495Y-88780005D01*
X172007252Y-88717390D01*
X172019632Y-88670919D01*
X172041545Y-88608561D01*
X172230926Y-88608561D01*
X172248492Y-88626127D01*
X172266058Y-88608561D01*
X172547109Y-88608561D01*
X172564675Y-88626127D01*
X172582240Y-88608561D01*
X172564675Y-88590996D01*
X172547109Y-88608561D01*
X172266058Y-88608561D01*
X172248492Y-88590996D01*
X172230926Y-88608561D01*
X172041545Y-88608561D01*
X172041864Y-88607652D01*
X172115737Y-88549998D01*
X172138590Y-88538299D01*
X172301189Y-88538299D01*
X172318755Y-88555864D01*
X172336321Y-88538299D01*
X172318755Y-88520733D01*
X172301189Y-88538299D01*
X172138590Y-88538299D01*
X172169446Y-88522503D01*
X172309973Y-88447745D01*
X172413019Y-88375579D01*
X172429891Y-88356786D01*
X172629082Y-88356786D01*
X172633905Y-88377672D01*
X172652503Y-88380207D01*
X172681420Y-88367353D01*
X172675924Y-88356786D01*
X172634231Y-88352582D01*
X172629082Y-88356786D01*
X172429891Y-88356786D01*
X172467993Y-88314344D01*
X172472702Y-88283702D01*
X172438469Y-88282602D01*
X172359379Y-88312190D01*
X172250509Y-88366486D01*
X172217273Y-88385000D01*
X172094936Y-88452927D01*
X172017024Y-88488873D01*
X171967720Y-88497023D01*
X171931207Y-88481559D01*
X171912172Y-88465708D01*
X171872524Y-88437137D01*
X171831652Y-88436801D01*
X171771271Y-88470240D01*
X171683637Y-88534934D01*
X171564826Y-88616525D01*
X171477736Y-88657592D01*
X171430074Y-88655173D01*
X171423442Y-88634910D01*
X171444792Y-88577662D01*
X171512850Y-88517281D01*
X171637203Y-88445612D01*
X171659044Y-88434518D01*
X171762084Y-88378697D01*
X171837870Y-88330123D01*
X171864292Y-88306312D01*
X171912755Y-88265153D01*
X171962253Y-88240185D01*
X171991467Y-88222927D01*
X171959269Y-88216359D01*
X171879612Y-88218326D01*
X171730952Y-88246952D01*
X171585885Y-88324876D01*
X171566942Y-88338320D01*
X171475527Y-88400845D01*
X171405961Y-88441557D01*
X171381749Y-88450470D01*
X171336397Y-88468440D01*
X171256670Y-88513945D01*
X171213390Y-88541625D01*
X171122779Y-88590184D01*
X171053412Y-88608573D01*
X171017198Y-88598967D01*
X171026042Y-88563536D01*
X171075594Y-88516487D01*
X171148792Y-88469758D01*
X171200637Y-88451251D01*
X171248302Y-88431630D01*
X171316728Y-88385012D01*
X171385676Y-88328026D01*
X171434907Y-88277302D01*
X171445218Y-88250285D01*
X171406829Y-88254219D01*
X171334918Y-88283950D01*
X171254676Y-88326675D01*
X171191290Y-88369590D01*
X171172593Y-88388860D01*
X171140300Y-88401221D01*
X171130507Y-88390271D01*
X171147140Y-88356720D01*
X171210929Y-88303375D01*
X171284207Y-88256180D01*
X171310527Y-88239682D01*
X171493167Y-88239682D01*
X171505153Y-88273900D01*
X171508659Y-88274813D01*
X171538653Y-88250195D01*
X171545864Y-88239682D01*
X171543079Y-88207309D01*
X171530372Y-88204550D01*
X171494597Y-88230053D01*
X171493167Y-88239682D01*
X171310527Y-88239682D01*
X171378322Y-88197187D01*
X171441446Y-88149911D01*
X171445825Y-88144536D01*
X172068442Y-88144536D01*
X172072264Y-88181420D01*
X172108584Y-88232721D01*
X172154668Y-88269419D01*
X172169446Y-88273477D01*
X172195491Y-88248637D01*
X172195795Y-88243983D01*
X172173032Y-88198846D01*
X172124153Y-88156663D01*
X172078270Y-88140169D01*
X172068442Y-88144536D01*
X171445825Y-88144536D01*
X171458036Y-88129549D01*
X171429902Y-88107841D01*
X171359209Y-88111748D01*
X171266523Y-88136021D01*
X171172407Y-88175415D01*
X171102529Y-88220253D01*
X171012501Y-88287315D01*
X170908534Y-88352406D01*
X170808911Y-88405670D01*
X170731914Y-88437247D01*
X170697006Y-88438910D01*
X170706520Y-88405093D01*
X170760086Y-88348285D01*
X170841612Y-88281826D01*
X170935011Y-88219058D01*
X171010110Y-88179282D01*
X171092459Y-88135488D01*
X171138404Y-88097044D01*
X171141853Y-88088093D01*
X171121209Y-88076100D01*
X171097939Y-88090010D01*
X171033117Y-88122915D01*
X170948630Y-88149613D01*
X170846634Y-88189635D01*
X170772973Y-88238586D01*
X170701108Y-88293263D01*
X170608319Y-88350636D01*
X170514980Y-88399852D01*
X170441464Y-88430060D01*
X170409324Y-88432280D01*
X170414380Y-88394067D01*
X170469780Y-88335015D01*
X170562970Y-88265595D01*
X170681393Y-88196278D01*
X170708966Y-88182385D01*
X170836950Y-88115028D01*
X170906364Y-88064328D01*
X170914244Y-88046459D01*
X171176984Y-88046459D01*
X171194550Y-88064025D01*
X171212116Y-88046459D01*
X171194550Y-88028893D01*
X171176984Y-88046459D01*
X170914244Y-88046459D01*
X170924649Y-88022866D01*
X170904078Y-87987854D01*
X170853849Y-87984619D01*
X170758401Y-88020433D01*
X170627016Y-88090000D01*
X170468973Y-88188021D01*
X170293552Y-88309197D01*
X170142658Y-88422585D01*
X170048361Y-88487103D01*
X169950722Y-88540026D01*
X169864099Y-88575878D01*
X169802849Y-88589187D01*
X169781329Y-88574479D01*
X169788139Y-88557734D01*
X169828832Y-88518634D01*
X169906230Y-88460228D01*
X169999057Y-88396833D01*
X170086036Y-88342768D01*
X170145891Y-88312354D01*
X170156323Y-88309944D01*
X170207043Y-88286151D01*
X170278539Y-88228728D01*
X170348844Y-88158616D01*
X170395992Y-88096750D01*
X170404094Y-88073767D01*
X170386245Y-88032225D01*
X170375437Y-88028893D01*
X170335380Y-88047641D01*
X170250399Y-88098285D01*
X170133129Y-88172426D01*
X169996208Y-88261663D01*
X169852270Y-88357598D01*
X169713951Y-88451830D01*
X169593887Y-88535960D01*
X169504714Y-88601589D01*
X169465646Y-88633675D01*
X169319909Y-88744902D01*
X169166417Y-88822630D01*
X169165712Y-88822886D01*
X169113956Y-88855422D01*
X169104232Y-88875042D01*
X169078769Y-88891841D01*
X169057163Y-88886911D01*
X168998788Y-88895645D01*
X168965033Y-88923145D01*
X168910463Y-88968384D01*
X168882032Y-88977441D01*
X168835774Y-89000131D01*
X168763170Y-89057400D01*
X168728768Y-89089217D01*
X168656323Y-89151372D01*
X168604600Y-89181078D01*
X168592547Y-89180094D01*
X168606486Y-89147855D01*
X168663928Y-89080051D01*
X168754613Y-88986350D01*
X168868279Y-88876425D01*
X168994667Y-88759947D01*
X169123516Y-88646587D01*
X169244567Y-88546014D01*
X169347557Y-88467901D01*
X169349846Y-88466296D01*
X169400214Y-88429621D01*
X169541246Y-88429621D01*
X169546851Y-88448513D01*
X169570645Y-88450470D01*
X169632030Y-88422406D01*
X169666334Y-88380207D01*
X169687942Y-88325963D01*
X169683667Y-88309944D01*
X169646092Y-88331398D01*
X169587978Y-88380207D01*
X169541246Y-88429621D01*
X169400214Y-88429621D01*
X169505144Y-88353218D01*
X169633954Y-88250848D01*
X169655696Y-88231341D01*
X169838334Y-88231341D01*
X169865860Y-88233168D01*
X169944811Y-88195550D01*
X170015393Y-88153277D01*
X170121795Y-88079113D01*
X170175697Y-88025547D01*
X170173067Y-87997297D01*
X170151464Y-87994103D01*
X170100136Y-88014880D01*
X170016759Y-88068006D01*
X169951224Y-88117063D01*
X169865650Y-88191997D01*
X169838334Y-88231341D01*
X169655696Y-88231341D01*
X169727740Y-88166704D01*
X169777964Y-88108302D01*
X169781894Y-88085900D01*
X169745516Y-88095274D01*
X169666781Y-88139379D01*
X169558396Y-88209307D01*
X169433072Y-88296151D01*
X169303518Y-88391001D01*
X169182441Y-88484949D01*
X169082553Y-88569086D01*
X169051535Y-88597846D01*
X168959597Y-88685959D01*
X168886425Y-88753184D01*
X168815078Y-88813580D01*
X168728612Y-88881207D01*
X168610085Y-88970124D01*
X168542130Y-89020564D01*
X168397858Y-89131681D01*
X168250518Y-89251926D01*
X168126980Y-89359219D01*
X168102987Y-89381409D01*
X167943911Y-89522864D01*
X167763140Y-89670426D01*
X167584599Y-89805274D01*
X167435491Y-89906551D01*
X167347250Y-89970013D01*
X167241499Y-90057550D01*
X167189571Y-90104629D01*
X167070875Y-90207879D01*
X166901848Y-90342275D01*
X166691293Y-90501016D01*
X166453825Y-90673158D01*
X166390036Y-90743084D01*
X166386206Y-90796118D01*
X166395488Y-90835343D01*
X166373950Y-90811942D01*
X166369187Y-90805258D01*
X166336353Y-90772518D01*
X166313267Y-90804147D01*
X166310634Y-90810871D01*
X166262070Y-90862981D01*
X166201913Y-90889962D01*
X166144377Y-90916660D01*
X166135176Y-90944067D01*
X166123542Y-90982132D01*
X166075133Y-91019059D01*
X166004521Y-91070726D01*
X165917069Y-91152893D01*
X165876696Y-91196479D01*
X165801678Y-91273162D01*
X165740437Y-91320637D01*
X165718605Y-91328471D01*
X165704437Y-91317848D01*
X165723574Y-91307731D01*
X165769570Y-91266081D01*
X165819907Y-91189763D01*
X165822317Y-91185168D01*
X165856025Y-91116022D01*
X165853531Y-91096759D01*
X165811647Y-91115239D01*
X165804904Y-91118838D01*
X165738288Y-91170101D01*
X165659154Y-91251425D01*
X165635899Y-91279305D01*
X165568213Y-91353650D01*
X165512582Y-91396976D01*
X165498120Y-91401506D01*
X165449866Y-91427506D01*
X165380507Y-91492293D01*
X165307698Y-91576048D01*
X165249095Y-91658955D01*
X165225412Y-91707609D01*
X165181928Y-91757391D01*
X165092855Y-91812305D01*
X165029089Y-91840611D01*
X164931145Y-91884965D01*
X164867341Y-91926032D01*
X164853333Y-91945961D01*
X164834700Y-91999936D01*
X164796138Y-92064765D01*
X164749857Y-92116964D01*
X164718123Y-92110818D01*
X164709772Y-92099224D01*
X164686209Y-92074330D01*
X164657777Y-92080976D01*
X164617341Y-92127045D01*
X164557764Y-92220419D01*
X164482652Y-92350055D01*
X164403278Y-92505762D01*
X164358219Y-92643769D01*
X164336086Y-92799744D01*
X164335102Y-92812256D01*
X164317392Y-93046103D01*
X164154158Y-93046103D01*
X164131358Y-92843186D01*
X164152646Y-92625821D01*
X164216856Y-92417751D01*
X164296174Y-92274369D01*
X164341399Y-92203143D01*
X164361437Y-92158405D01*
X164361493Y-92157337D01*
X164383649Y-92107888D01*
X164444707Y-92016363D01*
X164536555Y-91892897D01*
X164651079Y-91747628D01*
X164780168Y-91590695D01*
X164915709Y-91432234D01*
X165049588Y-91282383D01*
X165133272Y-91192938D01*
X165256851Y-91062334D01*
X165286130Y-91030564D01*
X165907275Y-91030564D01*
X165927860Y-91051372D01*
X165987241Y-91018349D01*
X166081854Y-90933726D01*
X166114020Y-90901246D01*
X166209517Y-90796757D01*
X166253341Y-90731989D01*
X166248206Y-90702174D01*
X166229173Y-90698879D01*
X166192655Y-90722571D01*
X166126966Y-90782115D01*
X166048892Y-90860214D01*
X165975219Y-90939573D01*
X165922732Y-91002895D01*
X165907275Y-91030564D01*
X165286130Y-91030564D01*
X165359775Y-90950652D01*
X165433763Y-90867110D01*
X165470534Y-90820925D01*
X165472904Y-90814901D01*
X165428402Y-90814774D01*
X165337321Y-90842689D01*
X165214152Y-90891940D01*
X165073387Y-90955822D01*
X164929516Y-91027630D01*
X164797031Y-91100659D01*
X164690423Y-91168203D01*
X164659283Y-91191376D01*
X164520671Y-91276135D01*
X164402441Y-91294391D01*
X164305509Y-91246153D01*
X164259473Y-91187821D01*
X164164315Y-91078642D01*
X164018249Y-90967284D01*
X163839498Y-90864121D01*
X163646283Y-90779531D01*
X163456830Y-90723889D01*
X163438273Y-90720219D01*
X163350340Y-90695723D01*
X163313395Y-90656321D01*
X163307552Y-90609459D01*
X163310347Y-90557434D01*
X163328260Y-90531935D01*
X163375577Y-90531260D01*
X163466588Y-90553707D01*
X163555878Y-90579870D01*
X163784014Y-90662304D01*
X164003920Y-90768248D01*
X164193198Y-90885856D01*
X164300839Y-90973874D01*
X164381168Y-91046903D01*
X164433381Y-91076621D01*
X164477885Y-91070533D01*
X164511627Y-91051387D01*
X164707653Y-90938011D01*
X164934666Y-90824692D01*
X165167323Y-90722903D01*
X165380285Y-90644116D01*
X165471004Y-90617054D01*
X165587331Y-90585185D01*
X165676825Y-90554824D01*
X165753432Y-90516812D01*
X165831102Y-90461987D01*
X165923780Y-90381191D01*
X166045416Y-90265263D01*
X166125799Y-90187023D01*
X166269009Y-90048949D01*
X166890954Y-90048949D01*
X166908520Y-90066514D01*
X166926085Y-90048949D01*
X166908520Y-90031383D01*
X166890954Y-90048949D01*
X166269009Y-90048949D01*
X166316034Y-90003610D01*
X166360804Y-89961120D01*
X166961217Y-89961120D01*
X166987951Y-89995231D01*
X166996348Y-89996252D01*
X167030459Y-89969517D01*
X167031480Y-89961120D01*
X167004745Y-89927010D01*
X166996348Y-89925989D01*
X166962238Y-89952723D01*
X166961217Y-89961120D01*
X166360804Y-89961120D01*
X166537674Y-89793258D01*
X166777380Y-89568352D01*
X166978566Y-89381452D01*
X167839502Y-89381452D01*
X167857067Y-89399018D01*
X167874633Y-89381452D01*
X167857067Y-89363886D01*
X167839502Y-89381452D01*
X166978566Y-89381452D01*
X167021811Y-89341278D01*
X167207341Y-89170664D01*
X168050290Y-89170664D01*
X168067856Y-89188229D01*
X168085421Y-89170664D01*
X168225947Y-89170664D01*
X168243513Y-89188229D01*
X168261078Y-89170664D01*
X168243513Y-89153098D01*
X168225947Y-89170664D01*
X168085421Y-89170664D01*
X168067856Y-89153098D01*
X168050290Y-89170664D01*
X167207341Y-89170664D01*
X167257626Y-89124422D01*
X167471484Y-88930167D01*
X167650046Y-88770901D01*
X167669981Y-88753403D01*
X167782061Y-88648030D01*
X167873086Y-88549689D01*
X168963729Y-88549689D01*
X168993092Y-88544817D01*
X169065507Y-88493547D01*
X169112436Y-88453373D01*
X169176483Y-88386556D01*
X169204557Y-88337264D01*
X169202218Y-88325957D01*
X169166057Y-88334476D01*
X169100680Y-88383466D01*
X169053554Y-88428448D01*
X168982267Y-88510215D01*
X168963729Y-88549689D01*
X167873086Y-88549689D01*
X167876091Y-88546442D01*
X167936462Y-88465961D01*
X167946512Y-88446569D01*
X167983936Y-88375800D01*
X168016238Y-88345113D01*
X168017022Y-88345076D01*
X168044427Y-88315838D01*
X168094054Y-88237496D01*
X168157339Y-88124106D01*
X168191078Y-88059347D01*
X168322963Y-87812273D01*
X168468367Y-87564308D01*
X168514580Y-87492015D01*
X178591541Y-87492015D01*
X178607591Y-87525215D01*
X178625858Y-87538426D01*
X178685828Y-87568079D01*
X178735226Y-87556026D01*
X178759922Y-87541162D01*
X178776972Y-87515036D01*
X178730416Y-87492264D01*
X178711862Y-87487293D01*
X178630103Y-87477112D01*
X178591541Y-87492015D01*
X168514580Y-87492015D01*
X168634634Y-87304211D01*
X168829107Y-87020742D01*
X169059130Y-86702661D01*
X169207372Y-86503677D01*
X169372992Y-86285539D01*
X176878476Y-86285539D01*
X176892806Y-86306603D01*
X176975840Y-86328483D01*
X177126024Y-86350825D01*
X177202019Y-86359538D01*
X177313764Y-86376071D01*
X177465205Y-86404574D01*
X177640898Y-86441447D01*
X177825399Y-86483086D01*
X178003264Y-86525887D01*
X178159049Y-86566248D01*
X178277311Y-86600565D01*
X178342604Y-86625236D01*
X178343789Y-86625909D01*
X178409464Y-86654017D01*
X178456918Y-86634581D01*
X178499889Y-86580689D01*
X178548786Y-86455229D01*
X178537558Y-86318403D01*
X178472067Y-86182981D01*
X178358175Y-86061728D01*
X178222645Y-85976923D01*
X178154031Y-85948169D01*
X178092713Y-85938197D01*
X178015839Y-85947724D01*
X177900558Y-85977470D01*
X177862762Y-85988235D01*
X177532840Y-86083388D01*
X177270386Y-86160246D01*
X177075053Y-86218914D01*
X176946497Y-86259495D01*
X176884375Y-86282094D01*
X176878476Y-86285539D01*
X169372992Y-86285539D01*
X169612343Y-85970289D01*
X169984276Y-85492409D01*
X170326926Y-85065684D01*
X170644046Y-84685761D01*
X170939391Y-84348287D01*
X171216714Y-84048909D01*
X171479770Y-83783275D01*
X171732311Y-83547031D01*
X171835698Y-83455913D01*
X171971628Y-83337457D01*
X172063145Y-83252832D01*
X172119059Y-83189995D01*
X172148179Y-83136906D01*
X172159314Y-83081521D01*
X172161273Y-83011800D01*
X172161277Y-83010857D01*
X172174725Y-82792186D01*
X172210112Y-82552129D01*
X172262238Y-82315649D01*
X172325908Y-82107709D01*
X172372369Y-81996925D01*
X172439908Y-81883042D01*
X172529772Y-81762395D01*
X172628768Y-81649374D01*
X172723701Y-81558369D01*
X172801376Y-81503770D01*
X172833106Y-81494453D01*
X172860833Y-81465927D01*
X172851919Y-81384647D01*
X172807568Y-81257058D01*
X172775120Y-81183565D01*
X172728352Y-81080908D01*
X172696608Y-81007027D01*
X172687634Y-80981560D01*
X172718029Y-80971341D01*
X172784451Y-80967483D01*
X172844976Y-80976940D01*
X172892007Y-81015532D01*
X172940649Y-81098590D01*
X172965611Y-81151331D01*
X173014044Y-81276903D01*
X173046099Y-81397973D01*
X173053233Y-81454864D01*
X173045300Y-81540486D01*
X173003496Y-81598156D01*
X172933554Y-81643240D01*
X172753931Y-81770773D01*
X172614873Y-81934356D01*
X172509865Y-82144139D01*
X172432390Y-82410268D01*
X172427974Y-82430595D01*
X172381123Y-82669311D01*
X172356588Y-82842406D01*
X172354402Y-82950892D01*
X172374599Y-82995784D01*
X172417212Y-82978097D01*
X172445223Y-82948180D01*
X172497821Y-82899919D01*
X172588769Y-82829748D01*
X172686340Y-82761114D01*
X172922306Y-82601722D01*
X173116189Y-82469165D01*
X173284655Y-82351730D01*
X173444370Y-82237707D01*
X173611997Y-82115386D01*
X173741576Y-82019585D01*
X173924628Y-81884002D01*
X174065788Y-81780305D01*
X174179429Y-81698292D01*
X174279919Y-81627759D01*
X174381630Y-81558504D01*
X174498932Y-81480324D01*
X174530663Y-81459322D01*
X174649119Y-81380177D01*
X174797768Y-81279734D01*
X174949016Y-81176659D01*
X174985084Y-81151922D01*
X175253582Y-80967483D01*
X175885269Y-80967483D01*
X176118665Y-80969335D01*
G37*
G36*
X169219379Y-99066102D02*
G01*
X169280000Y-99107994D01*
X169370352Y-99183299D01*
X169477964Y-99280055D01*
X169590367Y-99386301D01*
X169695090Y-99490077D01*
X169779664Y-99579420D01*
X169831618Y-99642369D01*
X169841991Y-99663309D01*
X169826525Y-99690736D01*
X169778184Y-99672055D01*
X169694057Y-99605007D01*
X169571232Y-99487330D01*
X169437980Y-99349769D01*
X169313004Y-99214578D01*
X169232978Y-99120268D01*
X169199803Y-99069308D01*
X169215379Y-99064161D01*
X169219379Y-99066102D01*
G37*
G36*
X169698274Y-99259471D02*
G01*
X169767985Y-99320536D01*
X169855011Y-99404124D01*
X169944539Y-99495355D01*
X170021756Y-99579350D01*
X170071851Y-99641227D01*
X170082056Y-99659101D01*
X170081048Y-99696498D01*
X170042643Y-99690274D01*
X169978395Y-99647212D01*
X169899855Y-99574096D01*
X169858214Y-99527652D01*
X169748667Y-99395767D01*
X169681181Y-99308459D01*
X169650666Y-99258211D01*
X169652034Y-99237505D01*
X169660689Y-99235809D01*
X169698274Y-99259471D01*
G37*
G36*
X170182200Y-99539319D02*
G01*
X170240383Y-99589550D01*
X170287278Y-99641837D01*
X170298699Y-99665193D01*
X170270684Y-99687240D01*
X170210806Y-99691122D01*
X170155318Y-99675909D01*
X170146463Y-99669096D01*
X170128328Y-99624118D01*
X170123537Y-99562245D01*
X170133598Y-99520158D01*
X170140207Y-99516860D01*
X170182200Y-99539319D01*
G37*
G36*
X168631657Y-97618718D02*
G01*
X168696197Y-97665650D01*
X168757402Y-97721370D01*
X168840182Y-97797499D01*
X168918354Y-97852892D01*
X169012133Y-97898086D01*
X169141734Y-97943617D01*
X169244758Y-97975378D01*
X169403202Y-98041472D01*
X169558382Y-98138445D01*
X169701037Y-98256075D01*
X169821904Y-98384141D01*
X169911723Y-98512420D01*
X169961233Y-98630690D01*
X169961171Y-98728730D01*
X169949660Y-98753383D01*
X169927956Y-98803588D01*
X169944967Y-98846943D01*
X170010273Y-98904474D01*
X170022921Y-98914175D01*
X170232162Y-99102133D01*
X170402736Y-99312841D01*
X170492361Y-99468309D01*
X170546546Y-99584959D01*
X170571590Y-99651942D01*
X170568546Y-99683034D01*
X170538467Y-99692013D01*
X170509488Y-99692517D01*
X170450240Y-99667596D01*
X170439094Y-99631037D01*
X170417074Y-99541397D01*
X170349173Y-99426426D01*
X170232127Y-99281879D01*
X170062671Y-99103509D01*
X169945467Y-98988991D01*
X169817995Y-98863463D01*
X169711350Y-98751898D01*
X169634904Y-98664601D01*
X169598029Y-98611879D01*
X169596072Y-98604756D01*
X169616213Y-98590176D01*
X169674512Y-98630959D01*
X169694605Y-98649568D01*
X169787574Y-98724743D01*
X169847029Y-98741631D01*
X169870611Y-98700387D01*
X169864762Y-98638254D01*
X169798835Y-98479844D01*
X169668546Y-98326164D01*
X169479788Y-98182820D01*
X169264400Y-98067105D01*
X169147041Y-98020664D01*
X169085819Y-98015333D01*
X169080341Y-98051930D01*
X169130209Y-98131275D01*
X169195376Y-98209886D01*
X169287029Y-98322116D01*
X169331148Y-98394310D01*
X169326829Y-98423684D01*
X169273170Y-98407456D01*
X169256654Y-98398615D01*
X169207841Y-98357782D01*
X169130279Y-98277985D01*
X169033731Y-98170915D01*
X168927960Y-98048266D01*
X168822727Y-97921729D01*
X168727795Y-97802998D01*
X168652926Y-97703766D01*
X168607882Y-97635725D01*
X168599747Y-97611804D01*
X168631657Y-97618718D01*
G37*
G36*
X171287121Y-99439225D02*
G01*
X171361481Y-99478560D01*
X171424445Y-99518096D01*
X171520177Y-99576753D01*
X171595791Y-99614480D01*
X171622836Y-99622104D01*
X171678951Y-99647876D01*
X171686390Y-99657386D01*
X171681629Y-99685068D01*
X171631895Y-99690171D01*
X171557830Y-99675234D01*
X171480082Y-99642797D01*
X171458036Y-99629299D01*
X171354144Y-99552454D01*
X171280543Y-99485570D01*
X171249310Y-99440245D01*
X171251345Y-99430789D01*
X171287121Y-99439225D01*
G37*
G36*
X172547109Y-99106862D02*
G01*
X172523263Y-99158493D01*
X172460634Y-99242773D01*
X172372583Y-99345258D01*
X172272471Y-99451504D01*
X172173660Y-99547068D01*
X172089511Y-99617505D01*
X172053008Y-99640989D01*
X171956331Y-99678514D01*
X171870779Y-99691479D01*
X171817403Y-99678197D01*
X171809350Y-99660520D01*
X171838268Y-99628056D01*
X171912015Y-99580796D01*
X171966057Y-99552661D01*
X172096389Y-99466068D01*
X172234835Y-99334036D01*
X172291023Y-99268607D01*
X172400388Y-99143938D01*
X172481200Y-99074886D01*
X172530938Y-99063045D01*
X172547109Y-99106862D01*
G37*
G36*
X177721256Y-99426888D02*
G01*
X177805842Y-99466522D01*
X177910418Y-99520419D01*
X178016578Y-99578630D01*
X178105916Y-99631207D01*
X178160027Y-99668202D01*
X178168132Y-99677975D01*
X178139589Y-99695475D01*
X178068467Y-99689601D01*
X177976531Y-99665208D01*
X177885543Y-99627153D01*
X177851334Y-99607279D01*
X177748903Y-99532880D01*
X177680573Y-99469119D01*
X177654934Y-99425542D01*
X177675066Y-99411466D01*
X177721256Y-99426888D01*
G37*
G36*
X174198285Y-99358769D02*
G01*
X174180719Y-99376335D01*
X174163153Y-99358769D01*
X174180719Y-99341203D01*
X174198285Y-99358769D01*
G37*
G36*
X167261380Y-98824361D02*
G01*
X167242268Y-98838980D01*
X167161675Y-98873690D01*
X167040993Y-98931713D01*
X166899801Y-99002937D01*
X166757677Y-99077254D01*
X166634200Y-99144554D01*
X166548949Y-99194726D01*
X166534217Y-99204597D01*
X166451067Y-99257895D01*
X166409546Y-99266594D01*
X166399114Y-99237497D01*
X166429610Y-99189234D01*
X166511145Y-99124471D01*
X166628791Y-99050899D01*
X166767622Y-98976207D01*
X166912710Y-98908089D01*
X167049127Y-98854235D01*
X167161946Y-98822335D01*
X167215221Y-98817006D01*
X167261380Y-98824361D01*
G37*
G36*
X174077594Y-99089322D02*
G01*
X174102356Y-99154707D01*
X174117822Y-99223119D01*
X174114807Y-99260560D01*
X174093607Y-99240888D01*
X174065212Y-99199556D01*
X174027295Y-99117242D01*
X174032154Y-99068102D01*
X174053663Y-99060152D01*
X174077594Y-99089322D01*
G37*
G36*
X163516748Y-98481132D02*
G01*
X163526437Y-98573441D01*
X163532944Y-98695778D01*
X163535983Y-98829961D01*
X163535269Y-98957811D01*
X163530514Y-99061145D01*
X163521432Y-99121785D01*
X163515078Y-99130415D01*
X163501801Y-99097748D01*
X163491233Y-99009579D01*
X163484690Y-98880655D01*
X163483208Y-98773246D01*
X163485101Y-98627214D01*
X163490215Y-98514280D01*
X163497699Y-98448059D01*
X163504163Y-98437031D01*
X163516748Y-98481132D01*
G37*
G36*
X167900310Y-98941877D02*
G01*
X167909765Y-98974899D01*
X167886814Y-99007818D01*
X167810978Y-99023252D01*
X167742890Y-99025438D01*
X167607960Y-99035616D01*
X167453918Y-99061000D01*
X167382794Y-99077718D01*
X167266888Y-99108868D01*
X167203465Y-99124037D01*
X167176888Y-99124465D01*
X167171518Y-99111390D01*
X167172005Y-99094414D01*
X167206929Y-99052619D01*
X167310984Y-99008380D01*
X167483096Y-98962102D01*
X167575498Y-98942139D01*
X167740649Y-98915091D01*
X167846836Y-98914800D01*
X167900310Y-98941877D01*
G37*
G36*
X163975048Y-99077718D02*
G01*
X163957482Y-99095283D01*
X163939917Y-99077718D01*
X163957482Y-99060152D01*
X163975048Y-99077718D01*
G37*
G36*
X166361459Y-98960981D02*
G01*
X166335921Y-98985268D01*
X166328852Y-98989889D01*
X166264485Y-99020923D01*
X166233763Y-99015765D01*
X166241023Y-98989889D01*
X166291159Y-98959321D01*
X166322142Y-98955296D01*
X166361459Y-98960981D01*
G37*
G36*
X176258961Y-98976281D02*
G01*
X176253471Y-98989889D01*
X176221902Y-99023404D01*
X176216267Y-99025021D01*
X176201177Y-98997840D01*
X176200774Y-98989889D01*
X176227782Y-98956108D01*
X176237979Y-98954758D01*
X176258961Y-98976281D01*
G37*
G36*
X164010179Y-98937192D02*
G01*
X163992614Y-98954758D01*
X163975048Y-98937192D01*
X163992614Y-98919626D01*
X164010179Y-98937192D01*
G37*
G36*
X166457301Y-98906018D02*
G01*
X166451812Y-98919626D01*
X166420242Y-98953141D01*
X166414607Y-98954758D01*
X166399517Y-98927577D01*
X166399114Y-98919626D01*
X166426122Y-98885845D01*
X166436319Y-98884495D01*
X166457301Y-98906018D01*
G37*
G36*
X163834522Y-98287261D02*
G01*
X163853327Y-98354132D01*
X163863138Y-98466527D01*
X163863956Y-98600282D01*
X163855781Y-98731238D01*
X163838613Y-98835231D01*
X163834522Y-98849364D01*
X163820888Y-98862760D01*
X163810997Y-98807408D01*
X163805018Y-98684728D01*
X163803431Y-98585878D01*
X163804668Y-98416026D01*
X163811940Y-98314599D01*
X163825415Y-98280005D01*
X163834522Y-98287261D01*
G37*
G36*
X180219081Y-98203473D02*
G01*
X180307395Y-98233270D01*
X180423815Y-98288166D01*
X180651922Y-98407743D01*
X180836202Y-98506292D01*
X180971075Y-98580768D01*
X181050958Y-98628122D01*
X181066473Y-98638953D01*
X181126571Y-98665279D01*
X181189433Y-98679123D01*
X181261769Y-98711550D01*
X181277261Y-98758607D01*
X181260596Y-98822070D01*
X181206607Y-98834166D01*
X181109308Y-98795850D01*
X181094284Y-98787826D01*
X180888108Y-98674068D01*
X180691452Y-98562981D01*
X180515801Y-98461270D01*
X180372642Y-98375640D01*
X180273463Y-98312793D01*
X180241410Y-98290047D01*
X180179211Y-98231932D01*
X180174061Y-98203051D01*
X180219081Y-98203473D01*
G37*
G36*
X164349783Y-98474629D02*
G01*
X164353987Y-98516321D01*
X164349783Y-98521471D01*
X164328897Y-98516648D01*
X164326362Y-98498050D01*
X164339216Y-98469132D01*
X164349783Y-98474629D01*
G37*
G36*
X169373427Y-97748136D02*
G01*
X169436736Y-97801258D01*
X169530307Y-97886699D01*
X169639986Y-97991569D01*
X169773716Y-98120432D01*
X169906133Y-98245550D01*
X170019369Y-98350164D01*
X170079229Y-98403587D01*
X170151156Y-98472609D01*
X170185509Y-98519618D01*
X170179186Y-98533181D01*
X170135303Y-98510893D01*
X170051456Y-98450076D01*
X169939362Y-98359803D01*
X169810738Y-98249146D01*
X169799965Y-98239577D01*
X169601614Y-98056561D01*
X169460960Y-97911977D01*
X169377356Y-97805104D01*
X169350152Y-97735953D01*
X169373427Y-97748136D01*
G37*
G36*
X163682286Y-98439497D02*
G01*
X163686491Y-98481190D01*
X163682286Y-98486339D01*
X163661401Y-98481517D01*
X163658865Y-98462918D01*
X163671719Y-98434001D01*
X163682286Y-98439497D01*
G37*
G36*
X169964285Y-97940383D02*
G01*
X170077341Y-98016145D01*
X170202666Y-98111823D01*
X170334293Y-98222419D01*
X170431326Y-98314784D01*
X170490148Y-98383525D01*
X170507143Y-98423251D01*
X170478695Y-98428570D01*
X170401187Y-98394090D01*
X170386528Y-98385957D01*
X170315790Y-98338343D01*
X170216996Y-98262578D01*
X170106539Y-98172426D01*
X170000807Y-98081647D01*
X169916193Y-98004005D01*
X169869086Y-97953261D01*
X169866594Y-97949397D01*
X169853294Y-97904294D01*
X169887730Y-97902194D01*
X169964285Y-97940383D01*
G37*
G36*
X172004280Y-97770475D02*
G01*
X172016451Y-97788532D01*
X172034319Y-97861409D01*
X172013611Y-97912393D01*
X171967156Y-97922262D01*
X171938231Y-97905730D01*
X171905972Y-97893108D01*
X171856524Y-97903625D01*
X171779447Y-97942272D01*
X171664298Y-98014039D01*
X171545498Y-98093394D01*
X171336398Y-98232431D01*
X171171959Y-98335915D01*
X171055830Y-98401658D01*
X170991656Y-98427475D01*
X170987580Y-98427787D01*
X170955585Y-98403630D01*
X170952969Y-98399675D01*
X170973904Y-98370858D01*
X171043474Y-98311811D01*
X171151385Y-98230575D01*
X171287346Y-98135191D01*
X171318273Y-98114267D01*
X171467255Y-98012176D01*
X171598930Y-97918394D01*
X171700026Y-97842617D01*
X171757274Y-97794543D01*
X171760596Y-97791064D01*
X171842938Y-97737336D01*
X171932958Y-97730385D01*
X172004280Y-97770475D01*
G37*
G36*
X168145919Y-97500317D02*
G01*
X168207342Y-97578068D01*
X168291271Y-97696432D01*
X168384043Y-97835782D01*
X168432135Y-97911450D01*
X168519194Y-98046490D01*
X168599823Y-98163702D01*
X168662557Y-98246788D01*
X168686837Y-98273480D01*
X168740969Y-98336900D01*
X168749981Y-98381154D01*
X168724678Y-98392655D01*
X168685373Y-98369300D01*
X168619239Y-98310401D01*
X168587710Y-98278478D01*
X168500608Y-98172914D01*
X168396270Y-98025737D01*
X168288436Y-97858401D01*
X168190846Y-97692360D01*
X168117240Y-97549068D01*
X168109584Y-97531936D01*
X168048325Y-97391411D01*
X168145919Y-97500317D01*
G37*
G36*
X175444848Y-97819072D02*
G01*
X175421113Y-97880793D01*
X175368587Y-97966738D01*
X175296549Y-98063061D01*
X175214276Y-98155916D01*
X175146832Y-98218805D01*
X175037452Y-98300727D01*
X174939752Y-98358510D01*
X174866989Y-98385859D01*
X174832418Y-98376479D01*
X174831257Y-98368674D01*
X174857818Y-98331754D01*
X174922724Y-98276866D01*
X174940515Y-98264056D01*
X175027785Y-98196509D01*
X175128951Y-98108597D01*
X175229981Y-98013873D01*
X175316847Y-97925892D01*
X175375518Y-97858208D01*
X175392752Y-97827147D01*
X175419918Y-97796701D01*
X175430516Y-97795422D01*
X175444848Y-97819072D01*
G37*
G36*
X163693997Y-98304827D02*
G01*
X163676431Y-98322393D01*
X163658865Y-98304827D01*
X163676431Y-98287261D01*
X163693997Y-98304827D01*
G37*
G36*
X171662383Y-97679263D02*
G01*
X171668824Y-97708030D01*
X171636977Y-97760387D01*
X171544416Y-97836065D01*
X171395606Y-97932155D01*
X171195016Y-98045746D01*
X170975681Y-98159644D01*
X170820969Y-98236888D01*
X170718286Y-98286205D01*
X170656986Y-98311428D01*
X170626424Y-98316394D01*
X170615955Y-98304940D01*
X170614882Y-98289653D01*
X170639427Y-98248943D01*
X170715704Y-98188822D01*
X170847675Y-98106645D01*
X171039301Y-97999766D01*
X171089156Y-97973050D01*
X171227393Y-97895357D01*
X171351493Y-97818478D01*
X171440753Y-97755476D01*
X171459958Y-97739097D01*
X171545436Y-97677524D01*
X171618189Y-97656795D01*
X171662383Y-97679263D01*
G37*
G36*
X163693997Y-98199433D02*
G01*
X163676431Y-98216998D01*
X163658865Y-98199433D01*
X163676431Y-98181867D01*
X163693997Y-98199433D01*
G37*
G36*
X168309391Y-97425409D02*
G01*
X168347404Y-97466433D01*
X168406605Y-97547211D01*
X168496030Y-97664909D01*
X168601866Y-97801693D01*
X168710304Y-97939731D01*
X168807534Y-98061188D01*
X168817350Y-98073259D01*
X168881796Y-98162278D01*
X168898320Y-98207242D01*
X168873453Y-98208498D01*
X168813725Y-98166397D01*
X168725669Y-98081285D01*
X168713041Y-98067690D01*
X168626093Y-97965731D01*
X168532869Y-97844695D01*
X168442285Y-97717833D01*
X168363253Y-97598393D01*
X168304688Y-97499626D01*
X168275504Y-97434783D01*
X168275767Y-97417708D01*
X168309391Y-97425409D01*
G37*
G36*
X179378987Y-97563802D02*
G01*
X179460336Y-97590142D01*
X179510075Y-97611510D01*
X179596581Y-97651314D01*
X179730975Y-97712807D01*
X179897163Y-97788639D01*
X180079051Y-97871461D01*
X180145287Y-97901578D01*
X180352378Y-97997173D01*
X180501136Y-98069744D01*
X180598161Y-98123112D01*
X180650051Y-98161099D01*
X180663406Y-98187529D01*
X180657197Y-98198082D01*
X180620555Y-98192846D01*
X180539433Y-98167081D01*
X180469239Y-98140980D01*
X180389807Y-98107300D01*
X180268954Y-98052882D01*
X180119436Y-97983802D01*
X179954012Y-97906138D01*
X179785438Y-97825966D01*
X179626474Y-97749363D01*
X179489876Y-97682406D01*
X179388402Y-97631173D01*
X179334810Y-97601740D01*
X179330396Y-97598507D01*
X179334558Y-97566095D01*
X179337345Y-97563046D01*
X179378987Y-97563802D01*
G37*
G36*
X163693997Y-98094039D02*
G01*
X163676431Y-98111604D01*
X163658865Y-98094039D01*
X163676431Y-98076473D01*
X163693997Y-98094039D01*
G37*
G36*
X163858768Y-97863569D02*
G01*
X163868745Y-97933781D01*
X163869654Y-97969005D01*
X163865633Y-98071526D01*
X163855291Y-98106897D01*
X163841206Y-98074043D01*
X163827606Y-97986512D01*
X163825072Y-97899367D01*
X163837771Y-97847247D01*
X163841328Y-97843913D01*
X163858768Y-97863569D01*
G37*
G36*
X163998469Y-97877395D02*
G01*
X164002674Y-97919088D01*
X163998469Y-97924237D01*
X163977583Y-97919414D01*
X163975048Y-97900816D01*
X163987902Y-97871899D01*
X163998469Y-97877395D01*
G37*
G36*
X163576892Y-97772001D02*
G01*
X163581097Y-97813693D01*
X163576892Y-97818843D01*
X163556007Y-97814020D01*
X163553471Y-97795422D01*
X163566325Y-97766505D01*
X163576892Y-97772001D01*
G37*
G36*
X163682286Y-97736869D02*
G01*
X163686491Y-97778562D01*
X163682286Y-97783711D01*
X163661401Y-97778889D01*
X163658865Y-97760290D01*
X163671719Y-97731373D01*
X163682286Y-97736869D01*
G37*
G36*
X163858521Y-97718572D02*
G01*
X163862709Y-97773478D01*
X163855748Y-97785907D01*
X163839780Y-97775429D01*
X163837296Y-97739797D01*
X163845876Y-97702311D01*
X163858521Y-97718572D01*
G37*
G36*
X164045311Y-97742725D02*
G01*
X164027745Y-97760290D01*
X164010179Y-97742725D01*
X164027745Y-97725159D01*
X164045311Y-97742725D01*
G37*
G36*
X172922911Y-96983941D02*
G01*
X172923233Y-97066865D01*
X172917382Y-97113315D01*
X172889390Y-97238030D01*
X172846576Y-97362071D01*
X172797187Y-97467021D01*
X172749471Y-97534463D01*
X172722052Y-97549502D01*
X172688569Y-97576202D01*
X172687634Y-97584232D01*
X172666189Y-97635382D01*
X172617571Y-97699937D01*
X172565356Y-97749517D01*
X172541375Y-97760290D01*
X172501108Y-97735600D01*
X172498415Y-97731636D01*
X172508216Y-97690939D01*
X172550158Y-97608972D01*
X172615791Y-97501817D01*
X172632253Y-97476933D01*
X172712979Y-97347500D01*
X172781921Y-97220946D01*
X172824797Y-97123596D01*
X172826109Y-97119632D01*
X172868895Y-97010702D01*
X172902981Y-96965346D01*
X172922911Y-96983941D01*
G37*
G36*
X176717313Y-97160162D02*
G01*
X176714896Y-97234122D01*
X176699475Y-97354021D01*
X176690300Y-97408294D01*
X176657597Y-97565465D01*
X176627019Y-97655681D01*
X176597073Y-97682156D01*
X176573190Y-97660617D01*
X176569975Y-97608569D01*
X176588534Y-97528302D01*
X176619105Y-97427597D01*
X176652355Y-97304362D01*
X176659997Y-97273687D01*
X176688518Y-97173967D01*
X176708072Y-97138118D01*
X176717313Y-97160162D01*
G37*
G36*
X171843419Y-97320322D02*
G01*
X171844481Y-97351038D01*
X171836030Y-97442556D01*
X171823157Y-97493931D01*
X171774350Y-97539453D01*
X171701940Y-97547954D01*
X171657114Y-97526081D01*
X171628511Y-97455735D01*
X171652383Y-97376188D01*
X171718485Y-97309916D01*
X171765435Y-97288384D01*
X171824157Y-97280508D01*
X171843419Y-97320322D01*
G37*
G36*
X179275771Y-97143160D02*
G01*
X179360086Y-97180569D01*
X179424726Y-97212270D01*
X179548320Y-97272140D01*
X179699953Y-97341704D01*
X179819308Y-97394046D01*
X179971900Y-97462023D01*
X180060970Y-97509159D01*
X180089434Y-97537479D01*
X180060211Y-97549006D01*
X180043356Y-97549502D01*
X179982422Y-97534501D01*
X179876561Y-97494167D01*
X179743227Y-97435505D01*
X179658667Y-97395099D01*
X179488340Y-97308237D01*
X179353972Y-97233690D01*
X179262840Y-97175992D01*
X179222225Y-97139677D01*
X179231504Y-97129042D01*
X179275771Y-97143160D01*
G37*
G36*
X179088761Y-97046038D02*
G01*
X179136810Y-97074474D01*
X179173657Y-97113876D01*
X179157658Y-97126042D01*
X179102626Y-97105958D01*
X179082566Y-97094166D01*
X179047826Y-97057643D01*
X179049999Y-97042370D01*
X179088761Y-97046038D01*
G37*
G36*
X179011286Y-97004965D02*
G01*
X178993720Y-97022531D01*
X178976155Y-97004965D01*
X178993720Y-96987400D01*
X179011286Y-97004965D01*
G37*
G36*
X176816281Y-96343990D02*
G01*
X176796961Y-96392123D01*
X176776106Y-96481178D01*
X176777802Y-96615201D01*
X176781787Y-96652245D01*
X176789285Y-96777263D01*
X176780154Y-96874193D01*
X176770050Y-96903070D01*
X176745306Y-96933524D01*
X176724268Y-96913535D01*
X176698251Y-96834182D01*
X176696356Y-96827388D01*
X176661232Y-96643115D01*
X176672752Y-96511061D01*
X176710179Y-96447882D01*
X176753371Y-96388547D01*
X176762877Y-96357544D01*
X176788989Y-96321436D01*
X176799244Y-96319903D01*
X176816281Y-96343990D01*
G37*
G36*
X178247231Y-96376736D02*
G01*
X178317694Y-96407583D01*
X178397254Y-96450243D01*
X178461013Y-96491459D01*
X178484315Y-96516596D01*
X178457317Y-96535301D01*
X178393605Y-96528564D01*
X178319101Y-96502780D01*
X178259727Y-96464344D01*
X178255766Y-96460213D01*
X178215122Y-96402661D01*
X178210762Y-96370957D01*
X178247231Y-96376736D01*
G37*
G36*
X178202475Y-96062938D02*
G01*
X178261698Y-96123220D01*
X178327330Y-96201730D01*
X178385134Y-96280502D01*
X178420870Y-96341571D01*
X178423269Y-96366134D01*
X178372990Y-96367268D01*
X178317441Y-96352042D01*
X178256243Y-96310643D01*
X178238395Y-96272640D01*
X178213563Y-96210044D01*
X178185698Y-96179377D01*
X178144449Y-96123988D01*
X178134103Y-96068023D01*
X178158956Y-96039180D01*
X178163900Y-96038852D01*
X178202475Y-96062938D01*
G37*
G36*
X176802931Y-95993960D02*
G01*
X176849345Y-96049484D01*
X176852657Y-96054466D01*
X176888984Y-96123802D01*
X176894074Y-96165184D01*
X176893402Y-96165956D01*
X176863348Y-96154007D01*
X176816934Y-96098482D01*
X176813622Y-96093501D01*
X176777294Y-96024164D01*
X176772204Y-95982783D01*
X176772876Y-95982010D01*
X176802931Y-95993960D01*
G37*
G36*
X176885423Y-95688579D02*
G01*
X176903402Y-95705104D01*
X176969227Y-95774464D01*
X177006005Y-95825440D01*
X177008796Y-95834636D01*
X176989049Y-95862558D01*
X176936260Y-95838497D01*
X176874395Y-95781885D01*
X176813737Y-95703691D01*
X176797892Y-95655360D01*
X176823056Y-95646966D01*
X176885423Y-95688579D01*
G37*
G36*
X170044491Y-95553704D02*
G01*
X170141578Y-95572103D01*
X170171116Y-95600552D01*
X170133580Y-95631497D01*
X170038084Y-95656024D01*
X169938587Y-95684364D01*
X169867205Y-95726046D01*
X169858554Y-95735666D01*
X169805148Y-95782496D01*
X169756480Y-95789710D01*
X169736597Y-95756204D01*
X169759461Y-95708747D01*
X169815453Y-95640831D01*
X169824920Y-95631153D01*
X169910947Y-95567828D01*
X170011765Y-95551849D01*
X170044491Y-95553704D01*
G37*
G36*
X176832900Y-95360850D02*
G01*
X176883823Y-95391793D01*
X176927007Y-95428750D01*
X176912672Y-95440996D01*
X176894624Y-95441618D01*
X176831049Y-95421243D01*
X176814129Y-95404149D01*
X176800016Y-95360299D01*
X176832900Y-95360850D01*
G37*
G36*
X171934381Y-94779401D02*
G01*
X172037704Y-94799271D01*
X172198924Y-94841743D01*
X172355581Y-94899024D01*
X172491208Y-94963411D01*
X172589339Y-95027201D01*
X172631792Y-95077210D01*
X172629439Y-95117909D01*
X172575999Y-95114325D01*
X172474469Y-95067033D01*
X172422994Y-95037173D01*
X172288364Y-94977568D01*
X172118779Y-94932403D01*
X171940905Y-94906105D01*
X171781409Y-94903102D01*
X171697039Y-94916631D01*
X171602416Y-94932418D01*
X171564190Y-94915313D01*
X171582332Y-94874296D01*
X171656816Y-94818347D01*
X171697400Y-94796288D01*
X171759614Y-94772642D01*
X171831445Y-94766950D01*
X171934381Y-94779401D01*
G37*
G36*
X176257710Y-93554761D02*
G01*
X176218093Y-93615058D01*
X176154653Y-93667769D01*
X176052972Y-93735016D01*
X175932519Y-93805878D01*
X175812762Y-93869430D01*
X175713170Y-93914750D01*
X175655028Y-93930968D01*
X175609051Y-93912049D01*
X175603540Y-93896646D01*
X175630653Y-93856349D01*
X175696290Y-93805854D01*
X175700152Y-93803474D01*
X175782770Y-93752213D01*
X175895949Y-93680856D01*
X175984448Y-93624493D01*
X176098675Y-93560830D01*
X176188687Y-93527729D01*
X176244896Y-93525577D01*
X176257710Y-93554761D01*
G37*
G36*
X175127086Y-92740176D02*
G01*
X175122457Y-92778483D01*
X175091770Y-92857798D01*
X175062588Y-92919159D01*
X174999330Y-93054918D01*
X174936568Y-93206092D01*
X174916327Y-93259967D01*
X174867412Y-93367928D01*
X174819974Y-93427446D01*
X174782087Y-93433750D01*
X174761828Y-93382069D01*
X174760387Y-93352092D01*
X174776311Y-93272124D01*
X174818336Y-93165496D01*
X174877840Y-93046594D01*
X174946204Y-92929805D01*
X175014805Y-92829514D01*
X175075024Y-92760107D01*
X175118238Y-92735969D01*
X175127086Y-92740176D01*
G37*
G36*
X175616309Y-91213405D02*
G01*
X175682888Y-91299316D01*
X175690712Y-91310269D01*
X175821446Y-91473599D01*
X175985345Y-91648931D01*
X176156744Y-91809847D01*
X176252352Y-91888368D01*
X176296966Y-91925085D01*
X176327424Y-91963682D01*
X176347391Y-92018384D01*
X176360532Y-92103412D01*
X176370513Y-92232989D01*
X176378707Y-92378705D01*
X176391592Y-92558030D01*
X176409427Y-92726532D01*
X176429657Y-92863083D01*
X176446077Y-92935869D01*
X176474777Y-93072869D01*
X176460000Y-93156064D01*
X176402020Y-93184676D01*
X176360003Y-93179068D01*
X176263135Y-93179841D01*
X176136678Y-93212492D01*
X176007857Y-93267555D01*
X175903893Y-93335561D01*
X175899893Y-93339080D01*
X175812260Y-93396043D01*
X175748815Y-93390841D01*
X175722285Y-93352982D01*
X175715278Y-93289765D01*
X175721422Y-93271688D01*
X175768747Y-93233140D01*
X175860737Y-93181861D01*
X175975692Y-93128193D01*
X176091913Y-93082481D01*
X176165643Y-93059939D01*
X176248756Y-93030752D01*
X176279702Y-92988306D01*
X176280277Y-92944444D01*
X176275169Y-92876851D01*
X176267483Y-92756369D01*
X176258277Y-92600277D01*
X176248966Y-92432548D01*
X176225981Y-92005636D01*
X176019021Y-91823462D01*
X175885268Y-91693738D01*
X175763006Y-91553478D01*
X175662560Y-91416766D01*
X175594257Y-91297686D01*
X175568422Y-91210319D01*
X175568409Y-91208866D01*
X175579639Y-91184491D01*
X175616309Y-91213405D01*
G37*
G36*
X175884780Y-92304775D02*
G01*
X175959481Y-92367621D01*
X176043003Y-92437443D01*
X176108282Y-92481995D01*
X176130613Y-92490581D01*
X176163731Y-92511015D01*
X176153699Y-92552564D01*
X176113632Y-92583007D01*
X176057318Y-92574041D01*
X175971494Y-92527935D01*
X175918789Y-92489841D01*
X175837116Y-92428594D01*
X175781476Y-92393350D01*
X175767385Y-92389734D01*
X175751479Y-92428896D01*
X175725222Y-92504875D01*
X175725090Y-92505276D01*
X175685774Y-92584988D01*
X175642037Y-92622183D01*
X175608021Y-92609374D01*
X175597974Y-92572554D01*
X175602242Y-92428871D01*
X175647668Y-92325864D01*
X175662493Y-92308011D01*
X175727675Y-92256815D01*
X175797096Y-92254798D01*
X175884780Y-92304775D01*
G37*
G36*
X175486855Y-90942773D02*
G01*
X175485440Y-91038530D01*
X175475247Y-91129239D01*
X175454556Y-91343925D01*
X175449834Y-91550661D01*
X175460480Y-91731765D01*
X175485894Y-91869554D01*
X175501814Y-91912353D01*
X175534880Y-91969950D01*
X175577842Y-92002483D01*
X175651010Y-92018603D01*
X175770392Y-92026757D01*
X175898667Y-92037253D01*
X175975041Y-92057308D01*
X176017774Y-92092732D01*
X176027479Y-92108548D01*
X176051894Y-92192351D01*
X176036425Y-92252784D01*
X175993437Y-92275132D01*
X175935291Y-92244677D01*
X175923781Y-92231985D01*
X175868540Y-92201988D01*
X175768791Y-92175821D01*
X175688699Y-92164010D01*
X175571495Y-92145975D01*
X175479566Y-92121228D01*
X175445586Y-92104249D01*
X175408716Y-92036797D01*
X175383009Y-91913592D01*
X175369336Y-91748386D01*
X175368563Y-91554930D01*
X175381560Y-91346977D01*
X175391893Y-91254210D01*
X175413705Y-91108648D01*
X175437164Y-90993509D01*
X175458876Y-90923691D01*
X175470423Y-90909668D01*
X175486855Y-90942773D01*
G37*
G36*
X167134638Y-92976070D02*
G01*
X167136874Y-93002059D01*
X167123725Y-93042393D01*
X167110525Y-93042764D01*
X167071377Y-93053055D01*
X167022090Y-93095005D01*
X166986964Y-93143617D01*
X166985856Y-93171006D01*
X166970862Y-93191751D01*
X166912665Y-93212873D01*
X166845038Y-93238143D01*
X166820691Y-93261562D01*
X166798372Y-93299304D01*
X166740965Y-93369116D01*
X166688948Y-93426040D01*
X166602279Y-93522178D01*
X166528425Y-93612201D01*
X166501779Y-93648987D01*
X166455779Y-93702602D01*
X166423654Y-93695397D01*
X166418547Y-93688068D01*
X166429539Y-93644166D01*
X166492595Y-93559366D01*
X166608653Y-93432541D01*
X166745263Y-93295183D01*
X166873688Y-93170377D01*
X166984061Y-93065412D01*
X167066906Y-92989126D01*
X167112742Y-92950359D01*
X167118329Y-92947289D01*
X167134638Y-92976070D01*
G37*
G36*
X167340471Y-93136106D02*
G01*
X167317012Y-93166860D01*
X167263478Y-93216184D01*
X167232111Y-93228340D01*
X167207354Y-93221435D01*
X167210064Y-93218399D01*
X167246666Y-93192162D01*
X167294965Y-93156919D01*
X167342743Y-93123875D01*
X167340471Y-93136106D01*
G37*
G36*
X167417925Y-93105380D02*
G01*
X167400359Y-93122946D01*
X167382794Y-93105380D01*
X167400359Y-93087814D01*
X167417925Y-93105380D01*
G37*
G36*
X167207137Y-92894592D02*
G01*
X167189571Y-92912157D01*
X167172005Y-92894592D01*
X167189571Y-92877026D01*
X167207137Y-92894592D01*
G37*
G36*
X167464549Y-92721173D02*
G01*
X167421369Y-92770135D01*
X167354096Y-92832582D01*
X167303748Y-92873601D01*
X167254996Y-92897885D01*
X167242268Y-92883720D01*
X167268174Y-92843446D01*
X167329411Y-92786614D01*
X167401253Y-92733143D01*
X167458978Y-92702949D01*
X167468631Y-92701369D01*
X167464549Y-92721173D01*
G37*
G36*
X167874633Y-92332489D02*
G01*
X167857067Y-92350055D01*
X167839502Y-92332489D01*
X167857067Y-92314924D01*
X167874633Y-92332489D01*
G37*
G36*
X170685145Y-92297358D02*
G01*
X170667579Y-92314924D01*
X170650013Y-92297358D01*
X170667579Y-92279792D01*
X170685145Y-92297358D01*
G37*
G36*
X169139363Y-92121701D02*
G01*
X169121798Y-92139267D01*
X169104232Y-92121701D01*
X169121798Y-92104135D01*
X169139363Y-92121701D01*
G37*
G36*
X168987127Y-91975320D02*
G01*
X168991332Y-92017013D01*
X168987127Y-92022162D01*
X168966242Y-92017340D01*
X168963706Y-91998741D01*
X168976560Y-91969824D01*
X168987127Y-91975320D01*
G37*
G36*
X169385283Y-91138022D02*
G01*
X169367717Y-91155588D01*
X169350152Y-91138022D01*
X169367717Y-91120456D01*
X169385283Y-91138022D01*
G37*
G36*
X170298699Y-91138022D02*
G01*
X170281134Y-91155588D01*
X170263568Y-91138022D01*
X170281134Y-91120456D01*
X170298699Y-91138022D01*
G37*
G36*
X170579751Y-89662503D02*
G01*
X170562185Y-89680069D01*
X170544619Y-89662503D01*
X170562185Y-89644938D01*
X170579751Y-89662503D01*
G37*
G36*
X170367895Y-88451240D02*
G01*
X170368962Y-88465030D01*
X170340523Y-88517955D01*
X170313392Y-88534540D01*
X170228541Y-88554764D01*
X170193845Y-88532737D01*
X170193305Y-88526372D01*
X170221656Y-88491802D01*
X170281134Y-88456862D01*
X170345562Y-88434411D01*
X170367895Y-88451240D01*
G37*
G36*
X169651021Y-93109218D02*
G01*
X169631203Y-93140512D01*
X169571391Y-93185155D01*
X169539073Y-93193209D01*
X169495141Y-93212927D01*
X169490677Y-93227104D01*
X169463266Y-93268590D01*
X169420415Y-93298603D01*
X169362846Y-93317089D01*
X169350152Y-93301105D01*
X169376939Y-93263193D01*
X169442400Y-93206700D01*
X169524181Y-93147870D01*
X169599930Y-93102946D01*
X169643660Y-93087814D01*
X169651021Y-93109218D01*
G37*
G36*
X173320000Y-89627372D02*
G01*
X173302434Y-89644938D01*
X173284868Y-89627372D01*
X173302434Y-89609806D01*
X173320000Y-89627372D01*
G37*
D13*
%TO.C,C8*%
X151492164Y-64060000D02*
X151707836Y-64060000D01*
X151492164Y-64780000D02*
X151707836Y-64780000D01*
%TO.C,C1*%
X144862164Y-66600000D02*
X145077836Y-66600000D01*
X144862164Y-67320000D02*
X145077836Y-67320000D01*
%TO.C,J2*%
X141920000Y-62295000D02*
X141920000Y-59595000D01*
X144640000Y-59545000D02*
X144640000Y-60185000D01*
X144640000Y-61705000D02*
X145270000Y-61705000D01*
X144640000Y-62345000D02*
X144640000Y-61705000D01*
%TO.C,L1*%
X147447221Y-73480000D02*
X147772779Y-73480000D01*
X147447221Y-74500000D02*
X147772779Y-74500000D01*
%TO.C,U3*%
X163470000Y-81585000D02*
X167230000Y-81585000D01*
X163470000Y-88405000D02*
X167230000Y-88405000D01*
X167230000Y-81585000D02*
X167230000Y-82845000D01*
X167230000Y-88405000D02*
X167230000Y-87145000D01*
X162190000Y-81685000D02*
X161950000Y-81355000D01*
X162430000Y-81355000D01*
X162190000Y-81685000D01*
G36*
X162190000Y-81685000D02*
G01*
X161950000Y-81355000D01*
X162430000Y-81355000D01*
X162190000Y-81685000D01*
G37*
%TO.C,U1*%
X158050000Y-50110000D02*
X158050000Y-56310000D01*
X158050000Y-50110000D02*
X176450000Y-50110000D01*
X158050000Y-74960000D02*
X158050000Y-75960000D01*
X158050000Y-75960000D02*
X159550000Y-75960000D01*
X176450000Y-50110000D02*
X176450000Y-56310000D01*
X176450000Y-75960000D02*
X174950000Y-75960000D01*
X176450000Y-75960000D02*
X176450000Y-74960000D01*
X158050000Y-56985000D02*
X157550000Y-56985000D01*
X158050000Y-56485000D01*
X158050000Y-56985000D01*
G36*
X158050000Y-56985000D02*
G01*
X157550000Y-56985000D01*
X158050000Y-56485000D01*
X158050000Y-56985000D01*
G37*
%TO.C,R1*%
X162226359Y-90795000D02*
X162533641Y-90795000D01*
X162226359Y-91555000D02*
X162533641Y-91555000D01*
%TO.C,R3*%
X153916359Y-78750000D02*
X154223641Y-78750000D01*
X153916359Y-79510000D02*
X154223641Y-79510000D01*
%TO.C,SW2*%
X174400000Y-78989000D02*
X175550000Y-77820000D01*
X174400000Y-79670000D02*
X174400000Y-78989000D01*
X174400000Y-82270000D02*
X174400000Y-82970000D01*
X174400000Y-82970000D02*
X175550000Y-84120000D01*
X175550000Y-77820000D02*
X179550000Y-77820000D01*
X175550000Y-84120000D02*
X179550000Y-84120000D01*
X179550000Y-77820000D02*
X180700000Y-78970000D01*
X179550000Y-84120000D02*
X180700000Y-82970000D01*
X180700000Y-78970000D02*
X180700000Y-79670000D01*
X180700000Y-82970000D02*
X180700000Y-82270000D01*
%TO.C,U2*%
X147520000Y-66182500D02*
X147995000Y-66182500D01*
X147520000Y-66657500D02*
X147520000Y-66182500D01*
X147520000Y-70402500D02*
X147520000Y-69927500D01*
X147995000Y-70402500D02*
X147520000Y-70402500D01*
X151265000Y-66182500D02*
X151740000Y-66182500D01*
X151740000Y-66182500D02*
X151740000Y-66657500D01*
X151740000Y-69927500D02*
X151740000Y-70402500D01*
X151740000Y-70402500D02*
X151265000Y-70402500D01*
X147020000Y-67042500D02*
X146690000Y-67282500D01*
X146690000Y-66802500D01*
X147020000Y-67042500D01*
G36*
X147020000Y-67042500D02*
G01*
X146690000Y-67282500D01*
X146690000Y-66802500D01*
X147020000Y-67042500D01*
G37*
%TO.C,C3*%
X154327836Y-71260000D02*
X154112164Y-71260000D01*
X154327836Y-71980000D02*
X154112164Y-71980000D01*
%TO.C,R4*%
X180106359Y-73930000D02*
X180413641Y-73930000D01*
X180106359Y-74690000D02*
X180413641Y-74690000D01*
%TO.C,SW1*%
X147070000Y-88209000D02*
X148220000Y-87040000D01*
X147070000Y-88890000D02*
X147070000Y-88209000D01*
X147070000Y-91490000D02*
X147070000Y-92190000D01*
X147070000Y-92190000D02*
X148220000Y-93340000D01*
X148220000Y-87040000D02*
X152220000Y-87040000D01*
X148220000Y-93340000D02*
X152220000Y-93340000D01*
X152220000Y-87040000D02*
X153370000Y-88190000D01*
X152220000Y-93340000D02*
X153370000Y-92190000D01*
X153370000Y-88190000D02*
X153370000Y-88890000D01*
X153370000Y-92190000D02*
X153370000Y-91490000D01*
%TO.C,C5*%
X146212164Y-64560000D02*
X146427836Y-64560000D01*
X146212164Y-65280000D02*
X146427836Y-65280000D01*
%TO.C,C7*%
X171292164Y-84135000D02*
X171507836Y-84135000D01*
X171292164Y-84855000D02*
X171507836Y-84855000D01*
%TO.C,C4*%
X145932164Y-71310000D02*
X146147836Y-71310000D01*
X145932164Y-72030000D02*
X146147836Y-72030000D01*
%TO.C,C2*%
X150342164Y-72380000D02*
X150557836Y-72380000D01*
X150342164Y-73100000D02*
X150557836Y-73100000D01*
%TO.C,J1*%
X158220000Y-95505000D02*
X158220000Y-97505000D01*
X158220000Y-99405000D02*
X158220000Y-101305000D01*
X158220000Y-101305000D02*
X167620000Y-101305000D01*
X167620000Y-95505000D02*
X167620000Y-97505000D01*
X167620000Y-99405000D02*
X167620000Y-101305000D01*
%TO.C,C6*%
X159267836Y-87205000D02*
X159052164Y-87205000D01*
X159267836Y-87925000D02*
X159052164Y-87925000D01*
%TO.C,R2*%
X164926359Y-90645000D02*
X165233641Y-90645000D01*
X164926359Y-91405000D02*
X165233641Y-91405000D01*
%TD*%
M02*
