%TF.GenerationSoftware,KiCad,Pcbnew,9.0.8*%
%TF.CreationDate,2026-04-30T20:24:59-06:00*%
%TF.ProjectId,usb hub,75736220-6875-4622-9e6b-696361645f70,rev?*%
%TF.SameCoordinates,Original*%
%TF.FileFunction,Copper,L2,Bot*%
%TF.FilePolarity,Positive*%
%FSLAX46Y46*%
G04 Gerber Fmt 4.6, Leading zero omitted, Abs format (unit mm)*
G04 Created by KiCad (PCBNEW 9.0.8) date 2026-04-30 20:24:59*
%MOMM*%
%LPD*%
G01*
G04 APERTURE LIST*
%TA.AperFunction,HeatsinkPad*%
%ADD10C,0.600000*%
%TD*%
%TA.AperFunction,HeatsinkPad*%
%ADD11O,1.000000X2.100000*%
%TD*%
%TA.AperFunction,HeatsinkPad*%
%ADD12O,1.000000X1.600000*%
%TD*%
%TA.AperFunction,ViaPad*%
%ADD13C,0.600000*%
%TD*%
%TA.AperFunction,Conductor*%
%ADD14C,0.200000*%
%TD*%
G04 APERTURE END LIST*
D10*
%TO.P,U1,41,GND*%
%TO.N,Net-(U1-GND-Pad1)*%
X164350000Y-64770000D03*
X164350000Y-66170000D03*
X165050000Y-64070000D03*
X165050000Y-65470000D03*
X165050000Y-66870000D03*
X165750000Y-64770000D03*
X165750000Y-66170000D03*
X166450000Y-64070000D03*
X166450000Y-65470000D03*
X166450000Y-66870000D03*
X167150000Y-64770000D03*
X167150000Y-66170000D03*
%TD*%
D11*
%TO.P,J1,S1,SHIELD*%
%TO.N,unconnected-(J1-SHIELD-PadS1)*%
X158600000Y-94275000D03*
D12*
X158600000Y-98455000D03*
D11*
X167240000Y-94275000D03*
D12*
X167240000Y-98455000D03*
%TD*%
D13*
%TO.N,GND*%
X153760000Y-70320000D03*
X149630000Y-68292500D03*
X152560000Y-69811472D03*
X145560000Y-71670000D03*
%TO.N,+3V3*%
X153305735Y-74744265D03*
X153760000Y-72950000D03*
X148766985Y-71196985D03*
X162170000Y-84995000D03*
X153980000Y-82960000D03*
X150590000Y-71310000D03*
X165160000Y-85000000D03*
%TO.N,Net-(J1-CC1)*%
X162712303Y-90242303D03*
X161160000Y-95490000D03*
%TO.N,nss*%
X155880000Y-66710000D03*
X151005000Y-66355000D03*
%TO.N,mosi*%
X156050000Y-64330000D03*
X152680000Y-65755000D03*
%TO.N,busy*%
X156630000Y-62230000D03*
X152272385Y-69042500D03*
%TO.N,miso*%
X155880000Y-65390000D03*
X153690000Y-65755000D03*
%TO.N,dio1*%
X160110000Y-71400000D03*
X151567500Y-69667500D03*
%TO.N,sck*%
X155880000Y-63450000D03*
X151840000Y-65755000D03*
%TO.N,reset*%
X154680000Y-75270000D03*
X160265000Y-75510000D03*
%TD*%
D14*
%TO.N,GND*%
X146252500Y-71670000D02*
X145560000Y-71670000D01*
X153068528Y-70320000D02*
X152560000Y-69811472D01*
X153760000Y-70320000D02*
X153068528Y-70320000D01*
X149630000Y-68292500D02*
X146252500Y-71670000D01*
%TO.N,+3V3*%
X153980000Y-82960000D02*
X156015000Y-84995000D01*
X153760000Y-72950000D02*
X152120000Y-71310000D01*
X162175000Y-85000000D02*
X162170000Y-84995000D01*
X156015000Y-84995000D02*
X162170000Y-84995000D01*
X153305735Y-73404265D02*
X153760000Y-72950000D01*
X152120000Y-71310000D02*
X150590000Y-71310000D01*
X165160000Y-85000000D02*
X162175000Y-85000000D01*
X153305735Y-74744265D02*
X153305735Y-73404265D01*
X148766985Y-71196985D02*
X150476985Y-71196985D01*
X150476985Y-71196985D02*
X150590000Y-71310000D01*
%TO.N,Net-(J1-CC1)*%
X161160000Y-91794606D02*
X161160000Y-95490000D01*
X162712303Y-90242303D02*
X161160000Y-91794606D01*
%TO.N,nss*%
X155880000Y-66710000D02*
X155525000Y-66355000D01*
X155525000Y-66355000D02*
X151005000Y-66355000D01*
%TO.N,mosi*%
X154105000Y-64330000D02*
X152680000Y-65755000D01*
X156050000Y-64330000D02*
X154105000Y-64330000D01*
%TO.N,busy*%
X154396029Y-69042500D02*
X152272385Y-69042500D01*
X156660000Y-62260000D02*
X156660000Y-66778529D01*
X156630000Y-62230000D02*
X156660000Y-62260000D01*
X156660000Y-66778529D02*
X154396029Y-69042500D01*
%TO.N,miso*%
X154055000Y-65390000D02*
X153690000Y-65755000D01*
X155880000Y-65390000D02*
X154055000Y-65390000D01*
%TO.N,dio1*%
X153300000Y-71400000D02*
X151567500Y-69667500D01*
X160110000Y-71400000D02*
X153300000Y-71400000D01*
%TO.N,sck*%
X155880000Y-63450000D02*
X154136471Y-63450000D01*
X154136471Y-63450000D02*
X151840000Y-65746471D01*
X151840000Y-65746471D02*
X151840000Y-65755000D01*
%TO.N,reset*%
X154680000Y-75270000D02*
X154920000Y-75510000D01*
X154920000Y-75510000D02*
X160265000Y-75510000D01*
%TD*%
%TA.AperFunction,Conductor*%
%TO.N,GND*%
G36*
X143193039Y-46280185D02*
G01*
X143238794Y-46332989D01*
X143250000Y-46384500D01*
X143250000Y-56260000D01*
X182865500Y-56260000D01*
X182932539Y-56279685D01*
X182978294Y-56332489D01*
X182989500Y-56384000D01*
X182989500Y-98415572D01*
X182989184Y-98424418D01*
X182989184Y-98424419D01*
X182974869Y-98624557D01*
X182972351Y-98642068D01*
X182930645Y-98833790D01*
X182925661Y-98850765D01*
X182857093Y-99034605D01*
X182849743Y-99050699D01*
X182755709Y-99222908D01*
X182746144Y-99237791D01*
X182628561Y-99394864D01*
X182616975Y-99408235D01*
X182478235Y-99546975D01*
X182464864Y-99558561D01*
X182307791Y-99676144D01*
X182292908Y-99685709D01*
X182120699Y-99779743D01*
X182104605Y-99787093D01*
X181920765Y-99855661D01*
X181903790Y-99860645D01*
X181712068Y-99902351D01*
X181694557Y-99904869D01*
X181513779Y-99917799D01*
X181494417Y-99919184D01*
X181485572Y-99919500D01*
X167666471Y-99919500D01*
X167599432Y-99899815D01*
X167553677Y-99847011D01*
X167543733Y-99777853D01*
X167572758Y-99714297D01*
X167619019Y-99680939D01*
X167713907Y-99641635D01*
X167713907Y-99641634D01*
X167713914Y-99641632D01*
X167877782Y-99532139D01*
X168017139Y-99392782D01*
X168126632Y-99228914D01*
X168202051Y-99046835D01*
X168240500Y-98853541D01*
X168240500Y-98056459D01*
X168240500Y-98056456D01*
X168202052Y-97863170D01*
X168202051Y-97863169D01*
X168202051Y-97863165D01*
X168202049Y-97863160D01*
X168126635Y-97681092D01*
X168126628Y-97681079D01*
X168017139Y-97517218D01*
X168017136Y-97517214D01*
X167877785Y-97377863D01*
X167877781Y-97377860D01*
X167713920Y-97268371D01*
X167713907Y-97268364D01*
X167531839Y-97192950D01*
X167531829Y-97192947D01*
X167338543Y-97154500D01*
X167338541Y-97154500D01*
X167141459Y-97154500D01*
X167141457Y-97154500D01*
X166948170Y-97192947D01*
X166948160Y-97192950D01*
X166766092Y-97268364D01*
X166766079Y-97268371D01*
X166602218Y-97377860D01*
X166602214Y-97377863D01*
X166462863Y-97517214D01*
X166462860Y-97517218D01*
X166353371Y-97681079D01*
X166353364Y-97681092D01*
X166277950Y-97863160D01*
X166277947Y-97863170D01*
X166239500Y-98056456D01*
X166239500Y-98056459D01*
X166239500Y-98853541D01*
X166239500Y-98853543D01*
X166239499Y-98853543D01*
X166277947Y-99046829D01*
X166277950Y-99046839D01*
X166353364Y-99228907D01*
X166353371Y-99228920D01*
X166462860Y-99392781D01*
X166462863Y-99392785D01*
X166602214Y-99532136D01*
X166602218Y-99532139D01*
X166766079Y-99641628D01*
X166766092Y-99641635D01*
X166860981Y-99680939D01*
X166915385Y-99724780D01*
X166937450Y-99791074D01*
X166920171Y-99858773D01*
X166869034Y-99906384D01*
X166813529Y-99919500D01*
X159026471Y-99919500D01*
X158959432Y-99899815D01*
X158913677Y-99847011D01*
X158903733Y-99777853D01*
X158932758Y-99714297D01*
X158979019Y-99680939D01*
X159073907Y-99641635D01*
X159073907Y-99641634D01*
X159073914Y-99641632D01*
X159237782Y-99532139D01*
X159377139Y-99392782D01*
X159486632Y-99228914D01*
X159562051Y-99046835D01*
X159600500Y-98853541D01*
X159600500Y-98056459D01*
X159600500Y-98056456D01*
X159562052Y-97863170D01*
X159562051Y-97863169D01*
X159562051Y-97863165D01*
X159562049Y-97863160D01*
X159486635Y-97681092D01*
X159486628Y-97681079D01*
X159377139Y-97517218D01*
X159377136Y-97517214D01*
X159237785Y-97377863D01*
X159237781Y-97377860D01*
X159073920Y-97268371D01*
X159073907Y-97268364D01*
X158891839Y-97192950D01*
X158891829Y-97192947D01*
X158698543Y-97154500D01*
X158698541Y-97154500D01*
X158501459Y-97154500D01*
X158501457Y-97154500D01*
X158308170Y-97192947D01*
X158308160Y-97192950D01*
X158126092Y-97268364D01*
X158126079Y-97268371D01*
X157962218Y-97377860D01*
X157962214Y-97377863D01*
X157822863Y-97517214D01*
X157822860Y-97517218D01*
X157713371Y-97681079D01*
X157713364Y-97681092D01*
X157637950Y-97863160D01*
X157637947Y-97863170D01*
X157599500Y-98056456D01*
X157599500Y-98056459D01*
X157599500Y-98853541D01*
X157599500Y-98853543D01*
X157599499Y-98853543D01*
X157637947Y-99046829D01*
X157637950Y-99046839D01*
X157713364Y-99228907D01*
X157713371Y-99228920D01*
X157822860Y-99392781D01*
X157822863Y-99392785D01*
X157962214Y-99532136D01*
X157962218Y-99532139D01*
X158126079Y-99641628D01*
X158126092Y-99641635D01*
X158220981Y-99680939D01*
X158275385Y-99724780D01*
X158297450Y-99791074D01*
X158280171Y-99858773D01*
X158229034Y-99906384D01*
X158173529Y-99919500D01*
X142514428Y-99919500D01*
X142505582Y-99919184D01*
X142483622Y-99917613D01*
X142305442Y-99904869D01*
X142287931Y-99902351D01*
X142096209Y-99860645D01*
X142079234Y-99855661D01*
X141895394Y-99787093D01*
X141879300Y-99779743D01*
X141707091Y-99685709D01*
X141692208Y-99676144D01*
X141535135Y-99558561D01*
X141521764Y-99546975D01*
X141383024Y-99408235D01*
X141371438Y-99394864D01*
X141253855Y-99237791D01*
X141244290Y-99222908D01*
X141150256Y-99050699D01*
X141142909Y-99034611D01*
X141074336Y-98850760D01*
X141069354Y-98833790D01*
X141027648Y-98642068D01*
X141025130Y-98624556D01*
X141010816Y-98424418D01*
X141010500Y-98415572D01*
X141010500Y-94923543D01*
X157599499Y-94923543D01*
X157637947Y-95116829D01*
X157637950Y-95116839D01*
X157713364Y-95298907D01*
X157713371Y-95298920D01*
X157822860Y-95462781D01*
X157822863Y-95462785D01*
X157962214Y-95602136D01*
X157962218Y-95602139D01*
X158126079Y-95711628D01*
X158126092Y-95711635D01*
X158308160Y-95787049D01*
X158308165Y-95787051D01*
X158308169Y-95787051D01*
X158308170Y-95787052D01*
X158501456Y-95825500D01*
X158501459Y-95825500D01*
X158698543Y-95825500D01*
X158828582Y-95799632D01*
X158891835Y-95787051D01*
X159032655Y-95728721D01*
X159073907Y-95711635D01*
X159073907Y-95711634D01*
X159073914Y-95711632D01*
X159237782Y-95602139D01*
X159377139Y-95462782D01*
X159486632Y-95298914D01*
X159486631Y-95298914D01*
X159490017Y-95293848D01*
X159491474Y-95294821D01*
X159534595Y-95250903D01*
X159602729Y-95235426D01*
X159668414Y-95259242D01*
X159670502Y-95260809D01*
X159676632Y-95265512D01*
X159676635Y-95265515D01*
X159807865Y-95341281D01*
X159954234Y-95380500D01*
X159954236Y-95380500D01*
X160105764Y-95380500D01*
X160105766Y-95380500D01*
X160203408Y-95354337D01*
X160273257Y-95356000D01*
X160331119Y-95395163D01*
X160358623Y-95459391D01*
X160359500Y-95474112D01*
X160359500Y-95568846D01*
X160390261Y-95723489D01*
X160390264Y-95723501D01*
X160450602Y-95869172D01*
X160450609Y-95869185D01*
X160538210Y-96000288D01*
X160538213Y-96000292D01*
X160649707Y-96111786D01*
X160649711Y-96111789D01*
X160780814Y-96199390D01*
X160780827Y-96199397D01*
X160926498Y-96259735D01*
X160926503Y-96259737D01*
X161081153Y-96290499D01*
X161081156Y-96290500D01*
X161081158Y-96290500D01*
X161238844Y-96290500D01*
X161238845Y-96290499D01*
X161393497Y-96259737D01*
X161539179Y-96199394D01*
X161670289Y-96111789D01*
X161781789Y-96000289D01*
X161869394Y-95869179D01*
X161929737Y-95723497D01*
X161960500Y-95568842D01*
X161960500Y-95411158D01*
X161960500Y-95411155D01*
X161960499Y-95411153D01*
X161954402Y-95380500D01*
X161929737Y-95256503D01*
X161929735Y-95256498D01*
X161869397Y-95110827D01*
X161869390Y-95110814D01*
X161781398Y-94979125D01*
X161775747Y-94961078D01*
X161765523Y-94945169D01*
X161761071Y-94914207D01*
X161760520Y-94912447D01*
X161760500Y-94910234D01*
X161760500Y-94729234D01*
X165234500Y-94729234D01*
X165234500Y-94880766D01*
X165245962Y-94923543D01*
X165273719Y-95027136D01*
X165311602Y-95092750D01*
X165349485Y-95158365D01*
X165456635Y-95265515D01*
X165587865Y-95341281D01*
X165734234Y-95380500D01*
X165734236Y-95380500D01*
X165885764Y-95380500D01*
X165885766Y-95380500D01*
X166032135Y-95341281D01*
X166163365Y-95265515D01*
X166163374Y-95265505D01*
X166169488Y-95260815D01*
X166234656Y-95235617D01*
X166303101Y-95249650D01*
X166349025Y-95294488D01*
X166349983Y-95293849D01*
X166353009Y-95298378D01*
X166353094Y-95298461D01*
X166353228Y-95298706D01*
X166462860Y-95462781D01*
X166462863Y-95462785D01*
X166602214Y-95602136D01*
X166602218Y-95602139D01*
X166766079Y-95711628D01*
X166766092Y-95711635D01*
X166948160Y-95787049D01*
X166948165Y-95787051D01*
X166948169Y-95787051D01*
X166948170Y-95787052D01*
X167141456Y-95825500D01*
X167141459Y-95825500D01*
X167338543Y-95825500D01*
X167468582Y-95799632D01*
X167531835Y-95787051D01*
X167672655Y-95728721D01*
X167713907Y-95711635D01*
X167713907Y-95711634D01*
X167713914Y-95711632D01*
X167877782Y-95602139D01*
X168017139Y-95462782D01*
X168126632Y-95298914D01*
X168202051Y-95116835D01*
X168214632Y-95053582D01*
X168240500Y-94923543D01*
X168240500Y-93626456D01*
X168202052Y-93433170D01*
X168202051Y-93433169D01*
X168202051Y-93433165D01*
X168202049Y-93433160D01*
X168126635Y-93251092D01*
X168126628Y-93251079D01*
X168017139Y-93087218D01*
X168017136Y-93087214D01*
X167877785Y-92947863D01*
X167877781Y-92947860D01*
X167713920Y-92838371D01*
X167713907Y-92838364D01*
X167531839Y-92762950D01*
X167531829Y-92762947D01*
X167338543Y-92724500D01*
X167338541Y-92724500D01*
X167141459Y-92724500D01*
X167141457Y-92724500D01*
X166948170Y-92762947D01*
X166948160Y-92762950D01*
X166766092Y-92838364D01*
X166766079Y-92838371D01*
X166602218Y-92947860D01*
X166602214Y-92947863D01*
X166462863Y-93087214D01*
X166462860Y-93087218D01*
X166353371Y-93251079D01*
X166353364Y-93251092D01*
X166277950Y-93433160D01*
X166277947Y-93433170D01*
X166239500Y-93626456D01*
X166239500Y-94173666D01*
X166219815Y-94240705D01*
X166167011Y-94286460D01*
X166097853Y-94296404D01*
X166053501Y-94281054D01*
X166032137Y-94268719D01*
X165892864Y-94231402D01*
X165885766Y-94229500D01*
X165734234Y-94229500D01*
X165587863Y-94268719D01*
X165456635Y-94344485D01*
X165456632Y-94344487D01*
X165349487Y-94451632D01*
X165349485Y-94451635D01*
X165273719Y-94582863D01*
X165234500Y-94729234D01*
X161760500Y-94729234D01*
X161760500Y-92094703D01*
X161780185Y-92027664D01*
X161796819Y-92007022D01*
X162241026Y-91562815D01*
X162726965Y-91076875D01*
X162788286Y-91043392D01*
X162790453Y-91042941D01*
X162848388Y-91031416D01*
X162945800Y-91012040D01*
X163091482Y-90951697D01*
X163222592Y-90864092D01*
X163334092Y-90752592D01*
X163421697Y-90621482D01*
X163482040Y-90475800D01*
X163512803Y-90321145D01*
X163512803Y-90163461D01*
X163512803Y-90163458D01*
X163512802Y-90163456D01*
X163482041Y-90008813D01*
X163482041Y-90008811D01*
X163482040Y-90008806D01*
X163482038Y-90008801D01*
X163421700Y-89863130D01*
X163421693Y-89863117D01*
X163334092Y-89732014D01*
X163334089Y-89732010D01*
X163222595Y-89620516D01*
X163222591Y-89620513D01*
X163091488Y-89532912D01*
X163091475Y-89532905D01*
X162945804Y-89472567D01*
X162945792Y-89472564D01*
X162791148Y-89441803D01*
X162791145Y-89441803D01*
X162633461Y-89441803D01*
X162633458Y-89441803D01*
X162478813Y-89472564D01*
X162478801Y-89472567D01*
X162333130Y-89532905D01*
X162333117Y-89532912D01*
X162202014Y-89620513D01*
X162202010Y-89620516D01*
X162090516Y-89732010D01*
X162090513Y-89732014D01*
X162002912Y-89863117D01*
X162002905Y-89863130D01*
X161942567Y-90008801D01*
X161942564Y-90008811D01*
X161911664Y-90164153D01*
X161879279Y-90226064D01*
X161877728Y-90227642D01*
X160679481Y-91425888D01*
X160679479Y-91425891D01*
X160629361Y-91512700D01*
X160629359Y-91512702D01*
X160600425Y-91562815D01*
X160600424Y-91562816D01*
X160600423Y-91562821D01*
X160559499Y-91715549D01*
X160559499Y-91715551D01*
X160559499Y-91883652D01*
X160559500Y-91883665D01*
X160559500Y-94231402D01*
X160539815Y-94298441D01*
X160487011Y-94344196D01*
X160417853Y-94354140D01*
X160373500Y-94338789D01*
X160252138Y-94268720D01*
X160252135Y-94268719D01*
X160105766Y-94229500D01*
X159954234Y-94229500D01*
X159807862Y-94268719D01*
X159786499Y-94281054D01*
X159718598Y-94297525D01*
X159652572Y-94274673D01*
X159609382Y-94219751D01*
X159600500Y-94173666D01*
X159600500Y-93626456D01*
X159562052Y-93433170D01*
X159562051Y-93433169D01*
X159562051Y-93433165D01*
X159562049Y-93433160D01*
X159486635Y-93251092D01*
X159486628Y-93251079D01*
X159377139Y-93087218D01*
X159377136Y-93087214D01*
X159237785Y-92947863D01*
X159237781Y-92947860D01*
X159073920Y-92838371D01*
X159073907Y-92838364D01*
X158891839Y-92762950D01*
X158891829Y-92762947D01*
X158698543Y-92724500D01*
X158698541Y-92724500D01*
X158501459Y-92724500D01*
X158501457Y-92724500D01*
X158308170Y-92762947D01*
X158308160Y-92762950D01*
X158126092Y-92838364D01*
X158126079Y-92838371D01*
X157962218Y-92947860D01*
X157962214Y-92947863D01*
X157822863Y-93087214D01*
X157822860Y-93087218D01*
X157713371Y-93251079D01*
X157713364Y-93251092D01*
X157637950Y-93433160D01*
X157637947Y-93433170D01*
X157599500Y-93626456D01*
X157599500Y-93626459D01*
X157599500Y-94923541D01*
X157599500Y-94923543D01*
X157599499Y-94923543D01*
X141010500Y-94923543D01*
X141010500Y-82881153D01*
X153179500Y-82881153D01*
X153179500Y-83038846D01*
X153210261Y-83193489D01*
X153210264Y-83193501D01*
X153270602Y-83339172D01*
X153270609Y-83339185D01*
X153358210Y-83470288D01*
X153358213Y-83470292D01*
X153469707Y-83581786D01*
X153469711Y-83581789D01*
X153600814Y-83669390D01*
X153600827Y-83669397D01*
X153746498Y-83729735D01*
X153746503Y-83729737D01*
X153811147Y-83742595D01*
X153901849Y-83760638D01*
X153963760Y-83793023D01*
X153965337Y-83794572D01*
X155646284Y-85475520D01*
X155646286Y-85475521D01*
X155646290Y-85475524D01*
X155706504Y-85510288D01*
X155783216Y-85554577D01*
X155935943Y-85595501D01*
X155935945Y-85595501D01*
X156101654Y-85595501D01*
X156101670Y-85595500D01*
X161590234Y-85595500D01*
X161657273Y-85615185D01*
X161659125Y-85616398D01*
X161790814Y-85704390D01*
X161790827Y-85704397D01*
X161936498Y-85764735D01*
X161936503Y-85764737D01*
X162091153Y-85795499D01*
X162091156Y-85795500D01*
X162091158Y-85795500D01*
X162248844Y-85795500D01*
X162248845Y-85795499D01*
X162403497Y-85764737D01*
X162537108Y-85709394D01*
X162549172Y-85704397D01*
X162549172Y-85704396D01*
X162549179Y-85704394D01*
X162549185Y-85704390D01*
X162673392Y-85621398D01*
X162740070Y-85600520D01*
X162742283Y-85600500D01*
X164580234Y-85600500D01*
X164647273Y-85620185D01*
X164649125Y-85621398D01*
X164780814Y-85709390D01*
X164780827Y-85709397D01*
X164914427Y-85764735D01*
X164926503Y-85769737D01*
X165081153Y-85800499D01*
X165081156Y-85800500D01*
X165081158Y-85800500D01*
X165238844Y-85800500D01*
X165238845Y-85800499D01*
X165393497Y-85769737D01*
X165539179Y-85709394D01*
X165670289Y-85621789D01*
X165781789Y-85510289D01*
X165869394Y-85379179D01*
X165929737Y-85233497D01*
X165960500Y-85078842D01*
X165960500Y-84921158D01*
X165960500Y-84921155D01*
X165960499Y-84921153D01*
X165929738Y-84766510D01*
X165929737Y-84766503D01*
X165929735Y-84766498D01*
X165869397Y-84620827D01*
X165869390Y-84620814D01*
X165781789Y-84489711D01*
X165781786Y-84489707D01*
X165670292Y-84378213D01*
X165670288Y-84378210D01*
X165539185Y-84290609D01*
X165539172Y-84290602D01*
X165393501Y-84230264D01*
X165393489Y-84230261D01*
X165238845Y-84199500D01*
X165238842Y-84199500D01*
X165081158Y-84199500D01*
X165081155Y-84199500D01*
X164926510Y-84230261D01*
X164926498Y-84230264D01*
X164780827Y-84290602D01*
X164780814Y-84290609D01*
X164649125Y-84378602D01*
X164582447Y-84399480D01*
X164580234Y-84399500D01*
X162756691Y-84399500D01*
X162689652Y-84379815D01*
X162683805Y-84375560D01*
X162549185Y-84285609D01*
X162549172Y-84285602D01*
X162403501Y-84225264D01*
X162403489Y-84225261D01*
X162248845Y-84194500D01*
X162248842Y-84194500D01*
X162091158Y-84194500D01*
X162091155Y-84194500D01*
X161936510Y-84225261D01*
X161936498Y-84225264D01*
X161790827Y-84285602D01*
X161790814Y-84285609D01*
X161659125Y-84373602D01*
X161592447Y-84394480D01*
X161590234Y-84394500D01*
X156315098Y-84394500D01*
X156248059Y-84374815D01*
X156227417Y-84358181D01*
X154814573Y-82945337D01*
X154781088Y-82884014D01*
X154780637Y-82881847D01*
X154749738Y-82726510D01*
X154749737Y-82726503D01*
X154749735Y-82726498D01*
X154689397Y-82580827D01*
X154689390Y-82580814D01*
X154601789Y-82449711D01*
X154601786Y-82449707D01*
X154490292Y-82338213D01*
X154490288Y-82338210D01*
X154359185Y-82250609D01*
X154359172Y-82250602D01*
X154213501Y-82190264D01*
X154213489Y-82190261D01*
X154058845Y-82159500D01*
X154058842Y-82159500D01*
X153901158Y-82159500D01*
X153901155Y-82159500D01*
X153746510Y-82190261D01*
X153746498Y-82190264D01*
X153600827Y-82250602D01*
X153600814Y-82250609D01*
X153469711Y-82338210D01*
X153469707Y-82338213D01*
X153358213Y-82449707D01*
X153358210Y-82449711D01*
X153270609Y-82580814D01*
X153270602Y-82580827D01*
X153210264Y-82726498D01*
X153210261Y-82726510D01*
X153179500Y-82881153D01*
X141010500Y-82881153D01*
X141010500Y-71118138D01*
X147966485Y-71118138D01*
X147966485Y-71275831D01*
X147997246Y-71430474D01*
X147997249Y-71430486D01*
X148057587Y-71576157D01*
X148057594Y-71576170D01*
X148145195Y-71707273D01*
X148145198Y-71707277D01*
X148256692Y-71818771D01*
X148256696Y-71818774D01*
X148387799Y-71906375D01*
X148387812Y-71906382D01*
X148533483Y-71966720D01*
X148533488Y-71966722D01*
X148688138Y-71997484D01*
X148688141Y-71997485D01*
X148688143Y-71997485D01*
X148845829Y-71997485D01*
X148845830Y-71997484D01*
X149000482Y-71966722D01*
X149136717Y-71910292D01*
X149146157Y-71906382D01*
X149146157Y-71906381D01*
X149146164Y-71906379D01*
X149146170Y-71906375D01*
X149277860Y-71818383D01*
X149344538Y-71797505D01*
X149346751Y-71797485D01*
X149894044Y-71797485D01*
X149961083Y-71817170D01*
X149981725Y-71833804D01*
X150079707Y-71931786D01*
X150079711Y-71931789D01*
X150210814Y-72019390D01*
X150210827Y-72019397D01*
X150311820Y-72061229D01*
X150356503Y-72079737D01*
X150505578Y-72109390D01*
X150511153Y-72110499D01*
X150511156Y-72110500D01*
X150511158Y-72110500D01*
X150668844Y-72110500D01*
X150668845Y-72110499D01*
X150823497Y-72079737D01*
X150964341Y-72021398D01*
X150969172Y-72019397D01*
X150969172Y-72019396D01*
X150969179Y-72019394D01*
X151048007Y-71966723D01*
X151100875Y-71931398D01*
X151167553Y-71910520D01*
X151169766Y-71910500D01*
X151819903Y-71910500D01*
X151886942Y-71930185D01*
X151907584Y-71946819D01*
X152823082Y-72862317D01*
X152856567Y-72923640D01*
X152851583Y-72993332D01*
X152841101Y-73014832D01*
X152833436Y-73027327D01*
X152825215Y-73035549D01*
X152775095Y-73122360D01*
X152774280Y-73123770D01*
X152774265Y-73123796D01*
X152746160Y-73172474D01*
X152746159Y-73172475D01*
X152746158Y-73172480D01*
X152705234Y-73325208D01*
X152705234Y-73325210D01*
X152705234Y-73493311D01*
X152705235Y-73493324D01*
X152705235Y-74164499D01*
X152685550Y-74231538D01*
X152684337Y-74233390D01*
X152596344Y-74365079D01*
X152596337Y-74365092D01*
X152535999Y-74510763D01*
X152535996Y-74510775D01*
X152505235Y-74665418D01*
X152505235Y-74823111D01*
X152535996Y-74977754D01*
X152535999Y-74977766D01*
X152596337Y-75123437D01*
X152596344Y-75123450D01*
X152683945Y-75254553D01*
X152683948Y-75254557D01*
X152795442Y-75366051D01*
X152795446Y-75366054D01*
X152926549Y-75453655D01*
X152926562Y-75453662D01*
X153046876Y-75503497D01*
X153072238Y-75514002D01*
X153226888Y-75544764D01*
X153226891Y-75544765D01*
X153226893Y-75544765D01*
X153384579Y-75544765D01*
X153384580Y-75544764D01*
X153539232Y-75514002D01*
X153684914Y-75453659D01*
X153684919Y-75453655D01*
X153684922Y-75453654D01*
X153720770Y-75429701D01*
X153787447Y-75408822D01*
X153854827Y-75427306D01*
X153901518Y-75479284D01*
X153907722Y-75497899D01*
X153908494Y-75497665D01*
X153910264Y-75503501D01*
X153970602Y-75649172D01*
X153970609Y-75649185D01*
X154058210Y-75780288D01*
X154058213Y-75780292D01*
X154169707Y-75891786D01*
X154169711Y-75891789D01*
X154300814Y-75979390D01*
X154300827Y-75979397D01*
X154399558Y-76020292D01*
X154446503Y-76039737D01*
X154601153Y-76070499D01*
X154601156Y-76070500D01*
X154601158Y-76070500D01*
X154675334Y-76070500D01*
X154707427Y-76074725D01*
X154733629Y-76081745D01*
X154840942Y-76110500D01*
X154840943Y-76110500D01*
X159685234Y-76110500D01*
X159752273Y-76130185D01*
X159754125Y-76131398D01*
X159885814Y-76219390D01*
X159885827Y-76219397D01*
X160031498Y-76279735D01*
X160031503Y-76279737D01*
X160186153Y-76310499D01*
X160186156Y-76310500D01*
X160186158Y-76310500D01*
X160343844Y-76310500D01*
X160343845Y-76310499D01*
X160498497Y-76279737D01*
X160644179Y-76219394D01*
X160775289Y-76131789D01*
X160886789Y-76020289D01*
X160974394Y-75889179D01*
X161034737Y-75743497D01*
X161065500Y-75588842D01*
X161065500Y-75431158D01*
X161065500Y-75431155D01*
X161065499Y-75431153D01*
X161049126Y-75348842D01*
X161034737Y-75276503D01*
X161025647Y-75254557D01*
X160974397Y-75130827D01*
X160974390Y-75130814D01*
X160886789Y-74999711D01*
X160886786Y-74999707D01*
X160775292Y-74888213D01*
X160775288Y-74888210D01*
X160644185Y-74800609D01*
X160644172Y-74800602D01*
X160498501Y-74740264D01*
X160498489Y-74740261D01*
X160343845Y-74709500D01*
X160343842Y-74709500D01*
X160186158Y-74709500D01*
X160186155Y-74709500D01*
X160031510Y-74740261D01*
X160031498Y-74740264D01*
X159885827Y-74800602D01*
X159885814Y-74800609D01*
X159754125Y-74888602D01*
X159687447Y-74909480D01*
X159685234Y-74909500D01*
X155468155Y-74909500D01*
X155401116Y-74889815D01*
X155365053Y-74854391D01*
X155301789Y-74759711D01*
X155301786Y-74759707D01*
X155190292Y-74648213D01*
X155190288Y-74648210D01*
X155059185Y-74560609D01*
X155059172Y-74560602D01*
X154913501Y-74500264D01*
X154913489Y-74500261D01*
X154758845Y-74469500D01*
X154758842Y-74469500D01*
X154601158Y-74469500D01*
X154601155Y-74469500D01*
X154446510Y-74500261D01*
X154446498Y-74500264D01*
X154300827Y-74560602D01*
X154300811Y-74560611D01*
X154264961Y-74584565D01*
X154198283Y-74605442D01*
X154130904Y-74586956D01*
X154084214Y-74534977D01*
X154078020Y-74516363D01*
X154077241Y-74516600D01*
X154075470Y-74510763D01*
X154015132Y-74365092D01*
X154015125Y-74365079D01*
X153927133Y-74233390D01*
X153906255Y-74166712D01*
X153906235Y-74164499D01*
X153906235Y-73838171D01*
X153925920Y-73771132D01*
X153978724Y-73725377D01*
X153991963Y-73720371D01*
X153993490Y-73719738D01*
X153993497Y-73719737D01*
X154139179Y-73659394D01*
X154270289Y-73571789D01*
X154381789Y-73460289D01*
X154469394Y-73329179D01*
X154529737Y-73183497D01*
X154560500Y-73028842D01*
X154560500Y-72871158D01*
X154560500Y-72871155D01*
X154560499Y-72871153D01*
X154529738Y-72716510D01*
X154529737Y-72716503D01*
X154529735Y-72716498D01*
X154469397Y-72570827D01*
X154469390Y-72570814D01*
X154381789Y-72439711D01*
X154381786Y-72439707D01*
X154270292Y-72328213D01*
X154270288Y-72328210D01*
X154139185Y-72240609D01*
X154139178Y-72240605D01*
X154135451Y-72239062D01*
X154081047Y-72195222D01*
X154058981Y-72128928D01*
X154076259Y-72061229D01*
X154127395Y-72013617D01*
X154182902Y-72000500D01*
X159530234Y-72000500D01*
X159597273Y-72020185D01*
X159599125Y-72021398D01*
X159730814Y-72109390D01*
X159730827Y-72109397D01*
X159827646Y-72149500D01*
X159876503Y-72169737D01*
X160004624Y-72195222D01*
X160031153Y-72200499D01*
X160031156Y-72200500D01*
X160031158Y-72200500D01*
X160188844Y-72200500D01*
X160188845Y-72200499D01*
X160343497Y-72169737D01*
X160489179Y-72109394D01*
X160620289Y-72021789D01*
X160731789Y-71910289D01*
X160819394Y-71779179D01*
X160879737Y-71633497D01*
X160910500Y-71478842D01*
X160910500Y-71321158D01*
X160910500Y-71321155D01*
X160910499Y-71321153D01*
X160879738Y-71166510D01*
X160879737Y-71166503D01*
X160859704Y-71118138D01*
X160819397Y-71020827D01*
X160819390Y-71020814D01*
X160731789Y-70889711D01*
X160731786Y-70889707D01*
X160620292Y-70778213D01*
X160620288Y-70778210D01*
X160489185Y-70690609D01*
X160489172Y-70690602D01*
X160343501Y-70630264D01*
X160343489Y-70630261D01*
X160188845Y-70599500D01*
X160188842Y-70599500D01*
X160031158Y-70599500D01*
X160031155Y-70599500D01*
X159876510Y-70630261D01*
X159876498Y-70630264D01*
X159730827Y-70690602D01*
X159730814Y-70690609D01*
X159599125Y-70778602D01*
X159532447Y-70799480D01*
X159530234Y-70799500D01*
X153600097Y-70799500D01*
X153533058Y-70779815D01*
X153512416Y-70763181D01*
X152668224Y-69918989D01*
X152658127Y-69900499D01*
X152644047Y-69884823D01*
X152641717Y-69870446D01*
X152634739Y-69857666D01*
X152636241Y-69836651D01*
X152632872Y-69815853D01*
X152638684Y-69802500D01*
X152639723Y-69787974D01*
X152652349Y-69771107D01*
X152660758Y-69751790D01*
X152679235Y-69735192D01*
X152681595Y-69732041D01*
X152686980Y-69728229D01*
X152782674Y-69664289D01*
X152782673Y-69664289D01*
X152783261Y-69663897D01*
X152849939Y-69643020D01*
X152852151Y-69643000D01*
X154309360Y-69643000D01*
X154309376Y-69643001D01*
X154316972Y-69643001D01*
X154475083Y-69643001D01*
X154475086Y-69643001D01*
X154627814Y-69602077D01*
X154677933Y-69573139D01*
X154764745Y-69523020D01*
X154876549Y-69411216D01*
X154876549Y-69411214D01*
X154886757Y-69401007D01*
X154886759Y-69401004D01*
X157018506Y-67269257D01*
X157018511Y-67269253D01*
X157028714Y-67259049D01*
X157028716Y-67259049D01*
X157140520Y-67147245D01*
X157219577Y-67010313D01*
X157260500Y-66857586D01*
X157260500Y-64691153D01*
X163549500Y-64691153D01*
X163549500Y-64848846D01*
X163580261Y-65003489D01*
X163580264Y-65003501D01*
X163640602Y-65149172D01*
X163640609Y-65149185D01*
X163728210Y-65280288D01*
X163728213Y-65280292D01*
X163830240Y-65382319D01*
X163863725Y-65443642D01*
X163858741Y-65513334D01*
X163830240Y-65557681D01*
X163728213Y-65659707D01*
X163728210Y-65659711D01*
X163640609Y-65790814D01*
X163640602Y-65790827D01*
X163580264Y-65936498D01*
X163580261Y-65936510D01*
X163549500Y-66091153D01*
X163549500Y-66248846D01*
X163580261Y-66403489D01*
X163580264Y-66403501D01*
X163640602Y-66549172D01*
X163640609Y-66549185D01*
X163728210Y-66680288D01*
X163728213Y-66680292D01*
X163839707Y-66791786D01*
X163839711Y-66791789D01*
X163970814Y-66879390D01*
X163970827Y-66879397D01*
X164080082Y-66924651D01*
X164116503Y-66939737D01*
X164171831Y-66950742D01*
X164233740Y-66983126D01*
X164268315Y-67043841D01*
X164269256Y-67048166D01*
X164280261Y-67103492D01*
X164280264Y-67103501D01*
X164340602Y-67249172D01*
X164340609Y-67249185D01*
X164428210Y-67380288D01*
X164428213Y-67380292D01*
X164539707Y-67491786D01*
X164539711Y-67491789D01*
X164670814Y-67579390D01*
X164670827Y-67579397D01*
X164816498Y-67639735D01*
X164816503Y-67639737D01*
X164971153Y-67670499D01*
X164971156Y-67670500D01*
X164971158Y-67670500D01*
X165128844Y-67670500D01*
X165128845Y-67670499D01*
X165283497Y-67639737D01*
X165429179Y-67579394D01*
X165560289Y-67491789D01*
X165560292Y-67491786D01*
X165662319Y-67389760D01*
X165723642Y-67356275D01*
X165793334Y-67361259D01*
X165837681Y-67389760D01*
X165939707Y-67491786D01*
X165939711Y-67491789D01*
X166070814Y-67579390D01*
X166070827Y-67579397D01*
X166216498Y-67639735D01*
X166216503Y-67639737D01*
X166371153Y-67670499D01*
X166371156Y-67670500D01*
X166371158Y-67670500D01*
X166528844Y-67670500D01*
X166528845Y-67670499D01*
X166683497Y-67639737D01*
X166829179Y-67579394D01*
X166960289Y-67491789D01*
X167071789Y-67380289D01*
X167159394Y-67249179D01*
X167219737Y-67103497D01*
X167230743Y-67048166D01*
X167263125Y-66986258D01*
X167323841Y-66951683D01*
X167328118Y-66950752D01*
X167383497Y-66939737D01*
X167529179Y-66879394D01*
X167660289Y-66791789D01*
X167771789Y-66680289D01*
X167859394Y-66549179D01*
X167919737Y-66403497D01*
X167950500Y-66248842D01*
X167950500Y-66091158D01*
X167950500Y-66091155D01*
X167950499Y-66091153D01*
X167919738Y-65936510D01*
X167919737Y-65936503D01*
X167881714Y-65844707D01*
X167859397Y-65790827D01*
X167859390Y-65790814D01*
X167771789Y-65659711D01*
X167771786Y-65659707D01*
X167669760Y-65557681D01*
X167636275Y-65496358D01*
X167641259Y-65426666D01*
X167669760Y-65382319D01*
X167771786Y-65280292D01*
X167771789Y-65280289D01*
X167859394Y-65149179D01*
X167919737Y-65003497D01*
X167950500Y-64848842D01*
X167950500Y-64691158D01*
X167950500Y-64691155D01*
X167950499Y-64691153D01*
X167919738Y-64536510D01*
X167919737Y-64536503D01*
X167919735Y-64536498D01*
X167859397Y-64390827D01*
X167859390Y-64390814D01*
X167771789Y-64259711D01*
X167771786Y-64259707D01*
X167660292Y-64148213D01*
X167660288Y-64148210D01*
X167529185Y-64060609D01*
X167529172Y-64060602D01*
X167383501Y-64000264D01*
X167383492Y-64000261D01*
X167328166Y-63989256D01*
X167266256Y-63956870D01*
X167231682Y-63896154D01*
X167230750Y-63891874D01*
X167219737Y-63836503D01*
X167204651Y-63800082D01*
X167159397Y-63690827D01*
X167159390Y-63690814D01*
X167071789Y-63559711D01*
X167071786Y-63559707D01*
X166960292Y-63448213D01*
X166960288Y-63448210D01*
X166829185Y-63360609D01*
X166829172Y-63360602D01*
X166683501Y-63300264D01*
X166683489Y-63300261D01*
X166528845Y-63269500D01*
X166528842Y-63269500D01*
X166371158Y-63269500D01*
X166371155Y-63269500D01*
X166216510Y-63300261D01*
X166216498Y-63300264D01*
X166070827Y-63360602D01*
X166070814Y-63360609D01*
X165939711Y-63448210D01*
X165939707Y-63448213D01*
X165837681Y-63550240D01*
X165776358Y-63583725D01*
X165706666Y-63578741D01*
X165662319Y-63550240D01*
X165560292Y-63448213D01*
X165560288Y-63448210D01*
X165429185Y-63360609D01*
X165429172Y-63360602D01*
X165283501Y-63300264D01*
X165283489Y-63300261D01*
X165128845Y-63269500D01*
X165128842Y-63269500D01*
X164971158Y-63269500D01*
X164971155Y-63269500D01*
X164816510Y-63300261D01*
X164816498Y-63300264D01*
X164670827Y-63360602D01*
X164670814Y-63360609D01*
X164539711Y-63448210D01*
X164539707Y-63448213D01*
X164428213Y-63559707D01*
X164428210Y-63559711D01*
X164340609Y-63690814D01*
X164340602Y-63690827D01*
X164280264Y-63836498D01*
X164280262Y-63836505D01*
X164269256Y-63891833D01*
X164236870Y-63953743D01*
X164176153Y-63988316D01*
X164171833Y-63989256D01*
X164116505Y-64000262D01*
X164116498Y-64000264D01*
X163970827Y-64060602D01*
X163970814Y-64060609D01*
X163839711Y-64148210D01*
X163839707Y-64148213D01*
X163728213Y-64259707D01*
X163728210Y-64259711D01*
X163640609Y-64390814D01*
X163640602Y-64390827D01*
X163580264Y-64536498D01*
X163580261Y-64536510D01*
X163549500Y-64691153D01*
X157260500Y-64691153D01*
X157260500Y-62764867D01*
X157280185Y-62697828D01*
X157281398Y-62695976D01*
X157309475Y-62653956D01*
X157339394Y-62609179D01*
X157399737Y-62463497D01*
X157430500Y-62308842D01*
X157430500Y-62151158D01*
X157430500Y-62151155D01*
X157430499Y-62151153D01*
X157399738Y-61996510D01*
X157399737Y-61996503D01*
X157399735Y-61996498D01*
X157339397Y-61850827D01*
X157339390Y-61850814D01*
X157251789Y-61719711D01*
X157251786Y-61719707D01*
X157140292Y-61608213D01*
X157140288Y-61608210D01*
X157009185Y-61520609D01*
X157009172Y-61520602D01*
X156863501Y-61460264D01*
X156863489Y-61460261D01*
X156708845Y-61429500D01*
X156708842Y-61429500D01*
X156551158Y-61429500D01*
X156551155Y-61429500D01*
X156396510Y-61460261D01*
X156396498Y-61460264D01*
X156250827Y-61520602D01*
X156250814Y-61520609D01*
X156119711Y-61608210D01*
X156119707Y-61608213D01*
X156008213Y-61719707D01*
X156008210Y-61719711D01*
X155920609Y-61850814D01*
X155920602Y-61850827D01*
X155860264Y-61996498D01*
X155860261Y-61996510D01*
X155829500Y-62151153D01*
X155829500Y-62308846D01*
X155860261Y-62463489D01*
X155860264Y-62463501D01*
X155869123Y-62484889D01*
X155876590Y-62554359D01*
X155845314Y-62616837D01*
X155785224Y-62652488D01*
X155778753Y-62653956D01*
X155646508Y-62680261D01*
X155646498Y-62680264D01*
X155500827Y-62740602D01*
X155500814Y-62740609D01*
X155369125Y-62828602D01*
X155302447Y-62849480D01*
X155300234Y-62849500D01*
X154057411Y-62849500D01*
X154016490Y-62860464D01*
X154016490Y-62860465D01*
X153979222Y-62870451D01*
X153904685Y-62890423D01*
X153904680Y-62890426D01*
X153767761Y-62969475D01*
X153767753Y-62969481D01*
X151814692Y-64922543D01*
X151753369Y-64956028D01*
X151751203Y-64956479D01*
X151606508Y-64985261D01*
X151606498Y-64985264D01*
X151460827Y-65045602D01*
X151460814Y-65045609D01*
X151329711Y-65133210D01*
X151329707Y-65133213D01*
X151218213Y-65244707D01*
X151218210Y-65244711D01*
X151130609Y-65375814D01*
X151130602Y-65375827D01*
X151088302Y-65477952D01*
X151044462Y-65532356D01*
X150978167Y-65554421D01*
X150973741Y-65554500D01*
X150926155Y-65554500D01*
X150771510Y-65585261D01*
X150771498Y-65585264D01*
X150625827Y-65645602D01*
X150625814Y-65645609D01*
X150494711Y-65733210D01*
X150494707Y-65733213D01*
X150383213Y-65844707D01*
X150383210Y-65844711D01*
X150295609Y-65975814D01*
X150295602Y-65975827D01*
X150235264Y-66121498D01*
X150235261Y-66121510D01*
X150204500Y-66276153D01*
X150204500Y-66433846D01*
X150235261Y-66588489D01*
X150235264Y-66588501D01*
X150295602Y-66734172D01*
X150295609Y-66734185D01*
X150383210Y-66865288D01*
X150383213Y-66865292D01*
X150494707Y-66976786D01*
X150494711Y-66976789D01*
X150625814Y-67064390D01*
X150625827Y-67064397D01*
X150720234Y-67103501D01*
X150771503Y-67124737D01*
X150884658Y-67147245D01*
X150926153Y-67155499D01*
X150926156Y-67155500D01*
X150926158Y-67155500D01*
X151083844Y-67155500D01*
X151083845Y-67155499D01*
X151238497Y-67124737D01*
X151384179Y-67064394D01*
X151414939Y-67043841D01*
X151515875Y-66976398D01*
X151582553Y-66955520D01*
X151584766Y-66955500D01*
X155032381Y-66955500D01*
X155043893Y-66958880D01*
X155055841Y-66957739D01*
X155076800Y-66968543D01*
X155099420Y-66975185D01*
X155108830Y-66985053D01*
X155117945Y-66989752D01*
X155129799Y-67007043D01*
X155139764Y-67017493D01*
X155143828Y-67024532D01*
X155170606Y-67089179D01*
X155248300Y-67205457D01*
X155250332Y-67208975D01*
X155257653Y-67239146D01*
X155266929Y-67268769D01*
X155265821Y-67272805D01*
X155266809Y-67276874D01*
X155256658Y-67306208D01*
X155248445Y-67336149D01*
X155244629Y-67340970D01*
X155243961Y-67342903D01*
X155241682Y-67344694D01*
X155230630Y-67358663D01*
X154183613Y-68405681D01*
X154122290Y-68439166D01*
X154095932Y-68442000D01*
X152852151Y-68442000D01*
X152785112Y-68422315D01*
X152783260Y-68421102D01*
X152651570Y-68333109D01*
X152651557Y-68333102D01*
X152505886Y-68272764D01*
X152505874Y-68272761D01*
X152351230Y-68242000D01*
X152351227Y-68242000D01*
X152193543Y-68242000D01*
X152193540Y-68242000D01*
X152038895Y-68272761D01*
X152038883Y-68272764D01*
X151893212Y-68333102D01*
X151893199Y-68333109D01*
X151762096Y-68420710D01*
X151762092Y-68420713D01*
X151650598Y-68532207D01*
X151650595Y-68532211D01*
X151562994Y-68663314D01*
X151562989Y-68663323D01*
X151503088Y-68807940D01*
X151459247Y-68862343D01*
X151412720Y-68882104D01*
X151334007Y-68897761D01*
X151333998Y-68897764D01*
X151188327Y-68958102D01*
X151188314Y-68958109D01*
X151057211Y-69045710D01*
X151057207Y-69045713D01*
X150945713Y-69157207D01*
X150945710Y-69157211D01*
X150858109Y-69288314D01*
X150858102Y-69288327D01*
X150797764Y-69433998D01*
X150797761Y-69434010D01*
X150767000Y-69588653D01*
X150767000Y-69746346D01*
X150797761Y-69900989D01*
X150797764Y-69901001D01*
X150858102Y-70046672D01*
X150858109Y-70046685D01*
X150945710Y-70177788D01*
X150945713Y-70177792D01*
X151057207Y-70289286D01*
X151057211Y-70289289D01*
X151188314Y-70376890D01*
X151188327Y-70376897D01*
X151333998Y-70437235D01*
X151334003Y-70437237D01*
X151334007Y-70437237D01*
X151334008Y-70437238D01*
X151467958Y-70463883D01*
X151529868Y-70496268D01*
X151564443Y-70556984D01*
X151560703Y-70626753D01*
X151519836Y-70683425D01*
X151454818Y-70709006D01*
X151443766Y-70709500D01*
X151169766Y-70709500D01*
X151102727Y-70689815D01*
X151100875Y-70688602D01*
X150969185Y-70600609D01*
X150969172Y-70600602D01*
X150823501Y-70540264D01*
X150823489Y-70540261D01*
X150668845Y-70509500D01*
X150668842Y-70509500D01*
X150511158Y-70509500D01*
X150511155Y-70509500D01*
X150356510Y-70540261D01*
X150356502Y-70540263D01*
X150301568Y-70563017D01*
X150243556Y-70587046D01*
X150196106Y-70596485D01*
X149346751Y-70596485D01*
X149279712Y-70576800D01*
X149277860Y-70575587D01*
X149146170Y-70487594D01*
X149146157Y-70487587D01*
X149000486Y-70427249D01*
X149000474Y-70427246D01*
X148845830Y-70396485D01*
X148845827Y-70396485D01*
X148688143Y-70396485D01*
X148688140Y-70396485D01*
X148533495Y-70427246D01*
X148533483Y-70427249D01*
X148387812Y-70487587D01*
X148387799Y-70487594D01*
X148256696Y-70575195D01*
X148256692Y-70575198D01*
X148145198Y-70686692D01*
X148145195Y-70686696D01*
X148057594Y-70817799D01*
X148057587Y-70817812D01*
X147997249Y-70963483D01*
X147997246Y-70963495D01*
X147966485Y-71118138D01*
X141010500Y-71118138D01*
X141010500Y-61895000D01*
X142180000Y-61895000D01*
X144270000Y-61895000D01*
X144270000Y-59995000D01*
X142180000Y-59995000D01*
X142180000Y-61895000D01*
X141010500Y-61895000D01*
X141010500Y-47764427D01*
X141010816Y-47755581D01*
X141025130Y-47555443D01*
X141027646Y-47537938D01*
X141069356Y-47346200D01*
X141074335Y-47329242D01*
X141142911Y-47145382D01*
X141150251Y-47129310D01*
X141244294Y-46957083D01*
X141253850Y-46942214D01*
X141371443Y-46785128D01*
X141383017Y-46771771D01*
X141521771Y-46633017D01*
X141535128Y-46621443D01*
X141692214Y-46503850D01*
X141707083Y-46494294D01*
X141879310Y-46400251D01*
X141895382Y-46392911D01*
X142079242Y-46324335D01*
X142096200Y-46319356D01*
X142287938Y-46277646D01*
X142305436Y-46275130D01*
X142505582Y-46260816D01*
X142514428Y-46260500D01*
X142575892Y-46260500D01*
X143126000Y-46260500D01*
X143193039Y-46280185D01*
G37*
%TD.AperFunction*%
%TD*%
M02*
