%TF.GenerationSoftware,KiCad,Pcbnew,9.0.8*%
%TF.CreationDate,2026-04-30T20:24:59-06:00*%
%TF.ProjectId,usb hub,75736220-6875-4622-9e6b-696361645f70,rev?*%
%TF.SameCoordinates,Original*%
%TF.FileFunction,Paste,Top*%
%TF.FilePolarity,Positive*%
%FSLAX46Y46*%
G04 Gerber Fmt 4.6, Leading zero omitted, Abs format (unit mm)*
G04 Created by KiCad (PCBNEW 9.0.8) date 2026-04-30 20:24:59*
%MOMM*%
%LPD*%
G01*
G04 APERTURE LIST*
G04 Aperture macros list*
%AMRoundRect*
0 Rectangle with rounded corners*
0 $1 Rounding radius*
0 $2 $3 $4 $5 $6 $7 $8 $9 X,Y pos of 4 corners*
0 Add a 4 corners polygon primitive as box body*
4,1,4,$2,$3,$4,$5,$6,$7,$8,$9,$2,$3,0*
0 Add four circle primitives for the rounded corners*
1,1,$1+$1,$2,$3*
1,1,$1+$1,$4,$5*
1,1,$1+$1,$6,$7*
1,1,$1+$1,$8,$9*
0 Add four rect primitives between the rounded corners*
20,1,$1+$1,$2,$3,$4,$5,0*
20,1,$1+$1,$4,$5,$6,$7,0*
20,1,$1+$1,$6,$7,$8,$9,0*
20,1,$1+$1,$8,$9,$2,$3,0*%
G04 Aperture macros list end*
%ADD10RoundRect,0.140000X-0.140000X-0.170000X0.140000X-0.170000X0.140000X0.170000X-0.140000X0.170000X0*%
%ADD11RoundRect,0.147500X-0.147500X-0.172500X0.147500X-0.172500X0.147500X0.172500X-0.147500X0.172500X0*%
%ADD12RoundRect,0.250000X0.275000X0.250000X-0.275000X0.250000X-0.275000X-0.250000X0.275000X-0.250000X0*%
%ADD13RoundRect,0.250000X0.850000X0.275000X-0.850000X0.275000X-0.850000X-0.275000X0.850000X-0.275000X0*%
%ADD14RoundRect,0.218750X-0.218750X-0.256250X0.218750X-0.256250X0.218750X0.256250X-0.218750X0.256250X0*%
%ADD15RoundRect,0.375000X-0.625000X-0.375000X0.625000X-0.375000X0.625000X0.375000X-0.625000X0.375000X0*%
%ADD16RoundRect,0.500000X-0.500000X-1.400000X0.500000X-1.400000X0.500000X1.400000X-0.500000X1.400000X0*%
%ADD17R,0.900000X0.900000*%
%ADD18R,1.500000X0.900000*%
%ADD19R,0.900000X1.500000*%
%ADD20RoundRect,0.135000X-0.135000X-0.185000X0.135000X-0.185000X0.135000X0.185000X-0.135000X0.185000X0*%
%ADD21RoundRect,0.500000X-0.500000X-0.500000X0.500000X-0.500000X0.500000X0.500000X-0.500000X0.500000X0*%
%ADD22RoundRect,0.250000X-0.275000X-0.275000X0.275000X-0.275000X0.275000X0.275000X-0.275000X0.275000X0*%
%ADD23RoundRect,0.062500X-0.350000X-0.062500X0.350000X-0.062500X0.350000X0.062500X-0.350000X0.062500X0*%
%ADD24RoundRect,0.062500X-0.062500X-0.350000X0.062500X-0.350000X0.062500X0.350000X-0.062500X0.350000X0*%
%ADD25RoundRect,0.140000X0.140000X0.170000X-0.140000X0.170000X-0.140000X-0.170000X0.140000X-0.170000X0*%
%ADD26R,0.600000X1.450000*%
%ADD27R,0.300000X1.450000*%
G04 APERTURE END LIST*
D10*
%TO.C,C8*%
X151120000Y-64420000D03*
X152080000Y-64420000D03*
%TD*%
%TO.C,C1*%
X144490000Y-66960000D03*
X145450000Y-66960000D03*
%TD*%
D11*
%TO.C,L2*%
X148225000Y-64430000D03*
X149195000Y-64430000D03*
%TD*%
D12*
%TO.C,J2*%
X144805000Y-60945000D03*
D13*
X143280000Y-62420000D03*
X143280000Y-59470000D03*
%TD*%
D14*
%TO.C,L1*%
X146822500Y-73990000D03*
X148397500Y-73990000D03*
%TD*%
D15*
%TO.C,U3*%
X162170000Y-82695000D03*
X162170000Y-84995000D03*
D16*
X168470000Y-84995000D03*
D15*
X162170000Y-87295000D03*
%TD*%
D17*
%TO.C,U1*%
X164350000Y-64070000D03*
X164350000Y-65470000D03*
X164350000Y-66870000D03*
X165750000Y-64070000D03*
X165750000Y-65470000D03*
X165750000Y-66870000D03*
X167150000Y-64070000D03*
X167150000Y-65470000D03*
X167150000Y-66870000D03*
D18*
X158500000Y-57750000D03*
X158500000Y-59020000D03*
X158500000Y-60290000D03*
X158500000Y-61560000D03*
X158500000Y-62830000D03*
X158500000Y-64100000D03*
X158500000Y-65370000D03*
X158500000Y-66640000D03*
X158500000Y-67910000D03*
X158500000Y-69180000D03*
X158500000Y-70450000D03*
X158500000Y-71720000D03*
X158500000Y-72990000D03*
X158500000Y-74260000D03*
D19*
X160265000Y-75510000D03*
X161535000Y-75510000D03*
X162805000Y-75510000D03*
X164075000Y-75510000D03*
X165345000Y-75510000D03*
X166615000Y-75510000D03*
X167885000Y-75510000D03*
X169155000Y-75510000D03*
X170425000Y-75510000D03*
X171695000Y-75510000D03*
X172965000Y-75510000D03*
X174235000Y-75510000D03*
D18*
X176000000Y-74260000D03*
X176000000Y-72990000D03*
X176000000Y-71720000D03*
X176000000Y-70450000D03*
X176000000Y-69180000D03*
X176000000Y-67910000D03*
X176000000Y-66640000D03*
X176000000Y-65370000D03*
X176000000Y-64100000D03*
X176000000Y-62830000D03*
X176000000Y-61560000D03*
X176000000Y-60290000D03*
X176000000Y-59020000D03*
X176000000Y-57750000D03*
%TD*%
D20*
%TO.C,R1*%
X161870000Y-91175000D03*
X162890000Y-91175000D03*
%TD*%
%TO.C,R3*%
X153560000Y-79130000D03*
X154580000Y-79130000D03*
%TD*%
D21*
%TO.C,SW2*%
X174550000Y-80970000D03*
X180550000Y-80970000D03*
%TD*%
D22*
%TO.C,U2*%
X148980000Y-67642500D03*
X148980000Y-68942500D03*
X150280000Y-67642500D03*
X150280000Y-68942500D03*
D23*
X147692500Y-67042500D03*
X147692500Y-67542500D03*
X147692500Y-68042500D03*
X147692500Y-68542500D03*
X147692500Y-69042500D03*
X147692500Y-69542500D03*
D24*
X148380000Y-70230000D03*
X148880000Y-70230000D03*
X149380000Y-70230000D03*
X149880000Y-70230000D03*
X150380000Y-70230000D03*
X150880000Y-70230000D03*
D23*
X151567500Y-69542500D03*
X151567500Y-69042500D03*
X151567500Y-68542500D03*
X151567500Y-68042500D03*
X151567500Y-67542500D03*
X151567500Y-67042500D03*
D24*
X150880000Y-66355000D03*
X150380000Y-66355000D03*
X149880000Y-66355000D03*
X149380000Y-66355000D03*
X148880000Y-66355000D03*
X148380000Y-66355000D03*
%TD*%
D25*
%TO.C,C3*%
X154700000Y-71620000D03*
X153740000Y-71620000D03*
%TD*%
D20*
%TO.C,R4*%
X179750000Y-74310000D03*
X180770000Y-74310000D03*
%TD*%
D21*
%TO.C,SW1*%
X147220000Y-90190000D03*
X153220000Y-90190000D03*
%TD*%
D10*
%TO.C,C5*%
X145840000Y-64920000D03*
X146800000Y-64920000D03*
%TD*%
%TO.C,C7*%
X170920000Y-84495000D03*
X171880000Y-84495000D03*
%TD*%
%TO.C,C4*%
X145560000Y-71670000D03*
X146520000Y-71670000D03*
%TD*%
%TO.C,C2*%
X149970000Y-72740000D03*
X150930000Y-72740000D03*
%TD*%
D26*
%TO.C,J1*%
X159670000Y-93360000D03*
X160470000Y-93360000D03*
D27*
X161670000Y-93360000D03*
X162670000Y-93360000D03*
X163170000Y-93360000D03*
X164170000Y-93360000D03*
D26*
X165370000Y-93360000D03*
X166170000Y-93360000D03*
X166170000Y-93360000D03*
X165370000Y-93360000D03*
D27*
X164670000Y-93360000D03*
X163670000Y-93360000D03*
X162170000Y-93360000D03*
X161170000Y-93360000D03*
D26*
X160470000Y-93360000D03*
X159670000Y-93360000D03*
%TD*%
D25*
%TO.C,C6*%
X159640000Y-87565000D03*
X158680000Y-87565000D03*
%TD*%
D20*
%TO.C,R2*%
X164570000Y-91025000D03*
X165590000Y-91025000D03*
%TD*%
M02*
